<?xml version="1.0" encoding="UTF-8" standalone="no"?>
<!DOCTYPE svg  PUBLIC '-//W3C//DTD SVG 1.1//EN'  'http://www.w3.org/Graphics/SVG/1.1/DTD/svg11.dtd'>
<svg xmlns="http://www.w3.org/2000/svg" version="1.1">
<defs>
<font id="NimbusSansDOT-ReguExte" horiz-adv-x="659">
<font-face font-family="Nimbus Sans D OT Extended" cap-height="667" bbox="-59 -210 1052 893" font-stretch="expanded" font-weight="400" descent="-200" underline-position="-156" ascent="800" panose-1="2 0 0 0 0 0 0 0 0 0" units-per-em="1000" x-height="491" underline-thickness="58" unicode-range="U+0020-00FE"/>
<missing-glyph/>
<glyph unicode=" " horiz-adv-x="250" glyph-name="space"/>
<glyph unicode=" " horiz-adv-x="250" glyph-name="space"/>
<glyph unicode="!" horiz-adv-x="242" d="M74 0v94h94v-94h-94zM99 167l-25 298v202h94v-202l-21 -298h-48z" glyph-name="exclam"/>
<glyph unicode='&quot;' horiz-adv-x="337" d="M131 386h-73l-13 281h100zM278 386h-73l-13 281h99z" glyph-name="quotedbl"/>
<glyph unicode="#" horiz-adv-x="600" d="M552 281l-11 -77h-110l-32 -204h-89l34 204h-124l-33 -204h-85l33 204h-110l11 77h110l21 123h-110l11 77h110l29 186h87l-30 -186h124l29 186h88l-31 -186h108l-11 -77h-108l-19 -123h108zM375 404h-123l-19 -123h124z" glyph-name="numbersign"/>
<glyph unicode="$" d="M29 211h90q6 -65 50.5 -103t118.5 -42v232q-101 12 -159 40q-42 21 -66.5 60.5t-24.5 85.5q0 50 28 93t78 69q59 32 144 37v101h72v-102q109 -4 172 -56t73 -144h-93q-8 50 -48 80.5t-104 35.5v-218q104 -12 169 -37q102 -41 102 -149q0 -58 -31 -104t-88 -74 q-62 -30 -152 -35v-115h-72v115q-128 10 -191.5 66t-67.5 164zM360 286v-222q171 8 171 117q0 62 -67 84q-24 9 -104 21zM288 392v208q-150 -14 -150 -109q0 -42 34.5 -65t115.5 -34z" glyph-name="dollar"/>
<glyph unicode="%" horiz-adv-x="840" d="M186 676q72 0 110.5 -46.5t38.5 -134.5q0 -82 -38.5 -126.5t-109.5 -44.5q-72 0 -110.5 44.5t-38.5 128.5q0 85 38.5 132t109.5 47zM187 631q-92 0 -92 -134q0 -128 92 -128q91 0 91 126q0 136 -91 136zM240 0l298 667h66l-302 -667h-62zM652 343q73 0 111.5 -46.5 t38.5 -134.5q0 -82 -38.5 -126.5t-110.5 -44.5t-110.5 44.5t-38.5 128.5q0 85 38.5 132t109.5 47zM653 298q-92 0 -92 -134q0 -128 92 -128t92 126q0 136 -92 136z" glyph-name="percent"/>
<glyph unicode="&amp;" horiz-adv-x="766" d="M583 315h88q-11 -98 -58 -164l165 -151h-128l-91 81q-58 -54 -115 -77t-134 -23q-116 0 -192 52q-35 24 -56.5 66t-21.5 87q0 100 88 158q38 25 95 48q-81 60 -81 142q0 68 50 110t129 42q78 0 126.5 -41.5t48.5 -108.5q0 -50 -29.5 -86t-102.5 -76l191 -170 q20 32 28 111zM502 134l-227 205q-138 -51 -138 -143q0 -62 48.5 -100t127.5 -38q122 0 189 76zM310 420q98 55 98 110q0 33 -26 56t-63 23q-36 0 -61.5 -21.5t-25.5 -52.5q0 -25 15 -47t63 -68z" glyph-name="ampersand"/>
<glyph unicode="&apos;" horiz-adv-x="190" d="M131 386h-72l-14 281h100z" glyph-name="quotesingle"/>
<glyph unicode="(" horiz-adv-x="350" d="M227 667h66q-59 -62 -106 -159q-46 -98 -46 -228q0 -137 55 -244q43 -88 97 -143h-66q-56 56 -105 135q-73 118 -73 252q0 140 83 268q43 67 95 119z" glyph-name="parenleft"/>
<glyph unicode=")" horiz-adv-x="350" d="M123 -107h-66q60 62 106 159q46 98 46 228q0 136 -54 244q-45 89 -98 143h66q56 -54 105 -135q73 -118 73 -252q0 -209 -178 -387z" glyph-name="parenright"/>
<glyph unicode="*" horiz-adv-x="430" d="M255 667v-106l102 32l21 -74l-100 -32l65 -87l-63 -44l-64 86l-67 -86l-61 45l66 86l-102 32l23 72l104 -32v108h76z" glyph-name="asterisk"/>
<glyph unicode="+" d="M549 371v-70h-185v-198h-70v198h-185v70h185v198h70v-198h185z" glyph-name="plus"/>
<glyph unicode="," horiz-adv-x="235" d="M67 0v98h100v-96q0 -72 -28 -105q-26 -30 -67 -40v40q28 8 39.5 31.5t12.5 71.5h-57z" glyph-name="comma"/>
<glyph unicode="-" horiz-adv-x="283" d="M0 211v78h283v-78h-283z" glyph-name="hyphen"/>
<glyph unicode="­" horiz-adv-x="283" d="M0 211v78h283v-78h-283z" glyph-name="hyphen"/>
<glyph unicode="." horiz-adv-x="235" d="M67 0v98h100v-98h-100z" glyph-name="period"/>
<glyph unicode="/" horiz-adv-x="484" d="M350 667h89l-354 -774h-85z" glyph-name="slash"/>
<glyph unicode="0" d="M329 686q62 0 117.5 -23.5t89.5 -64.5q76 -88 76 -276q0 -197 -100 -280q-71 -61 -182 -61q-112 0 -183 61q-100 82 -100 285q0 179 76 271q33 41 88.5 64.5t117.5 23.5zM330 605q-89 0 -136 -71.5t-47 -207.5q0 -264 183 -264q182 0 182 261q0 138 -46.5 210t-135.5 72z " glyph-name="zero"/>
<glyph unicode="1" d="M334 0v481h-199v65q9 -1 21 -1q95 0 143 27q45 26 62 95h63v-667h-90z" glyph-name="one"/>
<glyph unicode="2" d="M594 86v-86h-531q7 98 68.5 163.5t219.5 141.5q87 43 118.5 78.5t31.5 88.5q0 59 -45.5 96t-118.5 37q-79 0 -123 -41.5t-49 -120.5h-92q6 109 60 165q73 78 207 78q116 0 186 -58.5t70 -155.5q0 -62 -26 -106.5t-85 -82.5q-36 -23 -168 -90q-117 -61 -140 -107h417z" glyph-name="two"/>
<glyph unicode="3" d="M56 210h93q1 -71 46.5 -109.5t128.5 -38.5q87 0 135.5 35t48.5 97q0 120 -176 120q-27 0 -50 -2v80q38 -3 55 -3q64 0 98 17q21 11 34 34.5t13 51.5q0 50 -42 81.5t-110 31.5q-75 0 -116.5 -36t-46.5 -104h-87q1 103 69.5 162t185.5 59q108 0 175 -53t67 -138 q0 -109 -109 -144q135 -18 135 -150q0 -100 -74.5 -160t-197.5 -60q-130 0 -201 59t-74 170z" glyph-name="three"/>
<glyph unicode="4" d="M404 0v161h-353v79l355 427h88v-433h108v-73h-108v-161h-90zM404 234v323l-270 -323h270z" glyph-name="four"/>
<glyph unicode="5" d="M57 171h91q26 -109 171 -109q94 0 141 41q47 42 47 110q0 67 -50.5 107t-135.5 40q-98 0 -154 -55h-89l70 362h406v-86h-340l-47 -200q73 60 181 60q116 0 185 -60t69 -162q0 -109 -75.5 -173.5t-202.5 -64.5q-136 0 -210 68q-49 44 -57 122z" glyph-name="five"/>
<glyph unicode="6" d="M595 515h-95q-35 90 -145 90q-126 0 -174 -96q-28 -58 -28 -140q0 -12 1 -22q62 102 207 102q117 0 184.5 -60.5t67.5 -165.5q0 -113 -74 -175q-79 -67 -199 -67q-161 0 -230 115q-51 87 -51 216q0 189 81 286q74 88 222 88q117 0 180 -63q39 -38 53 -108zM348 368 q-82 0 -136 -46q-45 -38 -45 -101q0 -71 48 -115t125 -44t125 43t48 111q0 71 -44 111.5t-121 40.5z" glyph-name="six"/>
<glyph unicode="7" d="M74 581v86h517v-84q-2 -3 -12.5 -18t-28 -39t-36.5 -50q-70 -102 -132 -246t-75 -230h-105q14 67 50.5 157t78.5 161q128 216 185 263h-442z" glyph-name="seven"/>
<glyph unicode="8" d="M202 366q-122 33 -122 141q0 82 67 130.5t182 48.5t182.5 -48t67.5 -131q0 -108 -122 -141q70 -14 113.5 -64t43.5 -115q0 -45 -24 -88.5t-62 -68.5q-77 -49 -199 -49q-121 0 -198 49q-38 25 -62 68.5t-24 88.5q0 66 43.5 115.5t113.5 63.5zM330 323q-88 0 -139 -33.5 t-51 -90.5q0 -62 52.5 -99.5t137.5 -37.5q84 0 136.5 37.5t52.5 97.5q0 59 -50.5 92.5t-138.5 33.5zM330 605q-70 0 -112.5 -27t-42.5 -71q0 -48 42.5 -77.5t112.5 -29.5q68 0 111 29t43 76q0 46 -42 73t-112 27z" glyph-name="eight"/>
<glyph unicode="9" d="M64 152h95q35 -90 145 -90q126 0 174 96q28 58 28 140q0 12 -1 22q-62 -102 -207 -102q-117 0 -184.5 60.5t-67.5 165.5q0 113 74 175q79 67 199 67q161 0 230 -115q51 -87 51 -216q0 -189 -81 -286q-74 -88 -222 -88q-117 0 -180 63q-39 38 -53 108zM319 605 q-77 0 -125 -43t-48 -111q0 -71 44 -111.5t121 -40.5q84 0 136 46q45 38 45 101q0 71 -48 115t-125 44z" glyph-name="nine"/>
<glyph unicode=":" horiz-adv-x="235" d="M67 0v98h100v-98h-100zM67 393v98h100v-98h-100z" glyph-name="colon"/>
<glyph unicode=";" horiz-adv-x="235" d="M67 0v98h100v-96q0 -72 -28 -105q-26 -30 -67 -40v40q28 8 39.5 31.5t12.5 71.5h-57zM67 393v98h100v-98h-100z" glyph-name="semicolon"/>
<glyph unicode="&lt;" horiz-adv-x="500" d="M466 581v-90l-337 -158l337 -157v-90l-433 209v77z" glyph-name="less"/>
<glyph unicode="=" d="M549 457v-70h-440v70h440zM549 297v-70h-440v70h440z" glyph-name="equal"/>
<glyph unicode="&gt;" horiz-adv-x="500" d="M34 581l433 -209v-77l-433 -209v90l337 157l-337 158v90z" glyph-name="greater"/>
<glyph unicode="?" horiz-adv-x="552" d="M221 0v94h94v-94h-94zM118 456h-89q10 94 56 144q69 76 199 76q120 0 182 -61q56 -54 56 -136q0 -74 -51 -128q-30 -30 -105 -86q-38 -29 -46 -43.5t-9 -54.5h-85q2 62 24.5 96.5t96.5 86.5q83 60 83 127q0 55 -38.5 87t-106.5 32q-142 0 -167 -140z" glyph-name="question"/>
<glyph unicode="@" horiz-adv-x="773" d="M514 500h66l-43 -213q-6 -27 -6 -45q0 -19 9 -30.5t24 -11.5q40 0 72 56.5t32 127.5q0 107 -73.5 175.5t-189.5 68.5q-124 0 -209 -85t-85 -209q0 -121 80 -204q81 -84 220 -84q114 0 217 46l18 -58q-109 -47 -233 -47q-165 0 -268 97q-50 48 -77.5 114.5t-27.5 136.5 q0 148 105.5 249.5t258.5 101.5q142 0 236 -85.5t94 -214.5q0 -95 -52 -167.5t-121 -72.5q-29 0 -50.5 16t-27.5 44q-22 -30 -55.5 -47.5t-70.5 -17.5q-65 0 -107 46.5t-42 118.5q0 85 54 145.5t130 60.5q79 0 112 -65zM399 446q-47 0 -81 -41t-34 -98q0 -45 24 -73.5 t63 -28.5q45 0 76.5 43t31.5 105q0 43 -21.5 68t-58.5 25z" glyph-name="at"/>
<glyph unicode="A" horiz-adv-x="721" d="M7 0l292 667h109l307 -667h-101l-88 190h-338l-83 -190h-98zM224 272h268l-139 304z" glyph-name="A"/>
<glyph unicode="B" horiz-adv-x="729" d="M75 0v667h343q101 0 148 -23q44 -21 68 -61t24 -91q0 -55 -26.5 -88t-84.5 -50q65 -15 94 -45q44 -46 44 -117q0 -54 -25.5 -99.5t-67.5 -68.5q-27 -14 -56.5 -19t-90.5 -5h-370zM165 81h254q79 0 109 12q57 23 57 101q0 67 -40 92q-24 14 -49.5 18t-92.5 4h-238v-227z M165 386h237q77 0 103 9q53 18 53 93q0 55 -32.5 76.5t-115.5 21.5h-245v-200z" glyph-name="B"/>
<glyph unicode="C" horiz-adv-x="779" d="M653 247h96q-12 -104 -94 -179q-94 -87 -241 -87q-168 0 -264 91q-48 45 -75 114.5t-27 147.5q0 83 31 155t87 120q92 77 239 77q191 0 284 -116q52 -65 58 -141h-98q-17 81 -81 127.5t-160 46.5q-122 0 -191 -73.5t-69 -202.5q0 -125 69.5 -194t194.5 -69q201 0 241 183 z" glyph-name="C"/>
<glyph unicode="D" horiz-adv-x="758" d="M75 0v667h318q80 0 126 -11t82 -39q108 -82 108 -278q0 -102 -30 -179t-86 -118q-33 -23 -78.5 -32.5t-127.5 -9.5h-312zM165 81h227q97 0 142 37q75 63 75 215q0 131 -56 192t-176 61h-212v-505z" glyph-name="D"/>
<glyph unicode="E" horiz-adv-x="658" d="M75 0v667h528v-81h-438v-206h420v-78h-420v-221h448v-81h-538z" glyph-name="E"/>
<glyph unicode="F" horiz-adv-x="571" d="M75 0v667h466v-81h-376v-207h376v-78h-376v-301h-90z" glyph-name="F"/>
<glyph unicode="G" horiz-adv-x="810" d="M748 352v-352h-63l-13 105q-35 -45 -64 -66q-80 -58 -204 -58q-159 0 -257 96q-46 46 -72.5 113t-26.5 139q0 78 31.5 151.5t85.5 120.5q96 85 246 85q173 0 268 -104q55 -59 65 -123h-97q-25 69 -85 106.5t-145 37.5q-124 0 -196.5 -73t-72.5 -197q0 -123 72 -196 t194 -73q141 0 212 94q42 57 46 116h-222v78h298z" glyph-name="G"/>
<glyph unicode="H" horiz-adv-x="758" d="M75 0v667h91v-277h426v277h90v-667h-90v312h-426v-312h-91z" glyph-name="H"/>
<glyph unicode="I" horiz-adv-x="241" d="M75 0v667h90v-667h-90z" glyph-name="I"/>
<glyph unicode="J" horiz-adv-x="536" d="M16 228h92q0 -73 17 -103q33 -61 116 -61q73 0 109 42q26 31 26 106v455h91v-455q0 -66 -11 -103t-39 -65q-61 -63 -177 -63q-117 0 -175 61q-49 50 -49 169v17z" glyph-name="J"/>
<glyph unicode="K" horiz-adv-x="688" d="M75 0v667h90v-354l388 354h135l-325 -285l325 -382h-121l-273 324l-129 -111v-213h-90z" glyph-name="K"/>
<glyph unicode="L" horiz-adv-x="593" d="M75 0v667h90v-586h411v-81h-501z" glyph-name="L"/>
<glyph unicode="M" horiz-adv-x="975" d="M75 0v667h137l273 -567l278 567h136v-667h-90v578l-284 -578h-82l-278 578v-578h-90z" glyph-name="M"/>
<glyph unicode="N" horiz-adv-x="802" d="M75 0v667h109l453 -562v562h90v-667h-112l-450 559v-559h-90z" glyph-name="N"/>
<glyph unicode="O" horiz-adv-x="828" d="M423 686q159 0 258 -96.5t99 -251.5q0 -157 -103.5 -257t-265.5 -100q-164 0 -263.5 96.5t-99.5 255.5q0 155 105.5 254t269.5 99zM421 603q-118 0 -195.5 -75.5t-77.5 -191.5q0 -122 73.5 -197t191.5 -75q119 0 193 74t74 194q0 121 -72 196t-187 75z" glyph-name="O"/>
<glyph unicode="P" horiz-adv-x="667" d="M75 0v667h283q118 0 163 -14q54 -16 86 -66t32 -117q0 -99 -64 -157q-31 -28 -73 -37.5t-140 -9.5h-197v-266h-90zM165 344h192q79 0 120 13q29 10 45.5 39t16.5 69q0 92 -79 114q-28 7 -104 7h-191v-242z" glyph-name="P"/>
<glyph unicode="Q" horiz-adv-x="842" d="M794 -20l-50 -62l-133 115q-95 -52 -205 -52q-157 0 -257.5 97.5t-100.5 250.5q0 159 104.5 258t271.5 99q160 0 258.5 -96t98.5 -251q0 -157 -105 -258zM509 222l97 -84q40 42 57.5 86t17.5 105q0 124 -71.5 199t-187.5 75q-119 0 -197 -76t-78 -192q0 -118 73.5 -193.5 t189.5 -75.5q64 0 130 26l-81 69z" glyph-name="Q"/>
<glyph unicode="R" horiz-adv-x="739" d="M75 0v667h357q110 0 151 -19q43 -20 67 -63t24 -100q0 -135 -127 -167q70 -17 90.5 -50.5t26.5 -139.5q4 -68 10 -89.5t27 -38.5h-120q-10 54 -13 128q-4 91 -34.5 121t-119.5 30h-249v-279h-90zM165 357h246q69 0 97 9q31 10 48.5 39t17.5 73q0 76 -62 99q-22 9 -84 9 h-263v-229z" glyph-name="R"/>
<glyph unicode="S" horiz-adv-x="689" d="M43 213h92q10 -79 61 -114t155 -35q194 0 194 119q0 59 -64 83q-30 10 -145 28q-143 21 -192 46q-91 46 -91 144q0 91 76.5 146.5t203.5 55.5q262 0 287 -204h-93q-25 121 -199 121q-81 0 -128 -30t-47 -82q0 -56 70 -81q40 -13 158 -31q130 -19 181 -41q83 -39 83 -141 q0 -99 -79.5 -157.5t-213.5 -58.5q-300 0 -309 232z" glyph-name="S"/>
<glyph unicode="T" horiz-adv-x="633" d="M270 0v586h-253v81h600v-81h-257v-586h-90z" glyph-name="T"/>
<glyph unicode="U" horiz-adv-x="736" d="M577 667h91v-399q0 -73 -9 -113t-32 -72q-37 -49 -104.5 -75.5t-154.5 -26.5q-95 0 -166 31.5t-104 89.5q-29 51 -29 166v399h91v-405q0 -78 25 -121q21 -35 71 -56t113 -21q70 0 121 24t70 67q17 38 17 107v405z" glyph-name="U"/>
<glyph unicode="V" horiz-adv-x="714" d="M7 667h106l247 -579l249 579h98l-300 -667h-98z" glyph-name="V"/>
<glyph unicode="W" horiz-adv-x="1059" d="M7 667h99l174 -571l193 571h107l185 -571l185 571h102l-230 -667h-108l-189 567l-196 -567h-107z" glyph-name="W"/>
<glyph unicode="X" horiz-adv-x="660" d="M9 0l262 332l-262 335h123l199 -267l201 267h120l-261 -335l261 -332h-125l-196 260l-201 -260h-121z" glyph-name="X"/>
<glyph unicode="Y" horiz-adv-x="679" d="M678 667l-293 -391v-276h-90v276l-295 391h119l223 -312l222 312h114z" glyph-name="Y"/>
<glyph unicode="Z" horiz-adv-x="665" d="M30 0v80l483 506h-458v81h572v-82l-481 -504h495v-81h-611z" glyph-name="Z"/>
<glyph unicode="[" horiz-adv-x="302" d="M69 667h174v-70h-88v-634h88v-70h-174v774z" glyph-name="bracketleft"/>
<glyph unicode="\" horiz-adv-x="484" d="M129 667l350 -774h-85l-354 774h89z" glyph-name="backslash"/>
<glyph unicode="]" horiz-adv-x="302" d="M234 -107h-174v70h88v634h-88v70h174v-774z" glyph-name="bracketright"/>
<glyph unicode="^" horiz-adv-x="500" d="M113 370h-84l170 299h102l171 -299h-84l-138 237z" glyph-name="asciicircum"/>
<glyph unicode="_" horiz-adv-x="500" d="M0 -69h500v-58h-500v58z" glyph-name="underscore"/>
<glyph unicode="`" horiz-adv-x="500" d="M311 567h-73l-129 113h140z" glyph-name="grave"/>
<glyph unicode="a" horiz-adv-x="604" d="M605 69v-62q-24 -10 -58 -10q-91 0 -103 84q-63 -98 -212 -98q-91 0 -145 41t-54 111q0 117 155 144q36 4 179 20q40 5 57.5 18t17.5 39q0 37 -37 57.5t-105 20.5q-79 0 -115 -21.5t-43 -73.5h-91q11 87 71 128t175 41q131 0 185 -42q29 -22 38.5 -51.5t9.5 -93.5v-199 q0 -32 11 -43.5t42 -11.5q2 0 5 0.5t7.5 1t9.5 0.5zM446 259q-38 -15 -63.5 -21t-140.5 -25q-67 -11 -88 -28q-26 -19 -26 -50q0 -34 34.5 -56.5t86.5 -22.5q62 0 116.5 30t69.5 72q11 30 11 101z" glyph-name="a"/>
<glyph unicode="b" horiz-adv-x="666" d="M153 667v-269q66 107 207 107q116 0 190 -72t74 -187q0 -114 -74.5 -187t-190.5 -73q-69 0 -123 27t-83 75v-88h-86v667h86zM342 432q-84 0 -139 -53.5t-55 -135.5q0 -80 54.5 -132t139.5 -52q83 0 135 52.5t52 135.5q0 82 -48 130q-55 55 -139 55z" glyph-name="b"/>
<glyph unicode="c" horiz-adv-x="601" d="M478 176h92q-27 -92 -94.5 -142.5t-162.5 -50.5q-122 0 -196 71.5t-74 188.5q0 121 75.5 193t201.5 72q96 0 160.5 -47.5t89.5 -135.5h-96q-32 109 -152 109q-82 0 -133 -52t-51 -135q0 -87 48 -139t128 -52q124 0 164 120z" glyph-name="c"/>
<glyph unicode="d" horiz-adv-x="666" d="M513 667h86v-667h-86v88q-72 -102 -207 -102q-115 0 -189.5 73.5t-74.5 186.5q0 115 74 187t190 72q141 0 207 -107v269zM323 432q-82 0 -134 -50.5t-52 -129.5q0 -88 51 -140.5t136 -52.5t139 52t54 132q0 82 -55 135.5t-139 53.5z" glyph-name="d"/>
<glyph unicode="e" horiz-adv-x="624" d="M472 143h94q-29 -76 -95.5 -118t-157.5 -42q-121 0 -195.5 70t-74.5 184q0 118 77 194.5t195 76.5q86 0 151 -41t94 -115q12 -30 16 -56.5t6 -77.5h-449q23 -162 186 -162q116 0 153 87zM133 285h357q-11 69 -59 109.5t-118 40.5q-93 0 -141 -64q-20 -27 -39 -86z" glyph-name="e"/>
<glyph unicode="f" horiz-adv-x="325" d="M98 0v424h-85v67h85v26q0 89 22 116q19 24 48 33t84 9q8 0 54 -2v-80q-42 2 -45 2q-47 0 -62 -14.5t-15 -60.5v-29h122v-67h-122v-424h-86z" glyph-name="f"/>
<glyph unicode="g" horiz-adv-x="666" d="M512 491h87v-404q0 -70 -7.5 -105t-29.5 -64q-65 -90 -242 -90q-118 0 -176.5 34t-73.5 112h94q13 -39 48 -56t102 -17q149 0 183 84q12 31 15 123q-26 -45 -65 -66q-57 -32 -133 -32q-122 0 -196.5 66t-74.5 173q0 116 72.5 186t191.5 70q70 0 116.5 -22t88.5 -74v82z M326 432q-85 0 -136.5 -47.5t-51.5 -125.5q0 -84 48.5 -130t136.5 -46q83 0 136.5 50t53.5 127t-51.5 124.5t-135.5 47.5z" glyph-name="g"/>
<glyph unicode="h" horiz-adv-x="624" d="M67 0v673h86v-271q68 103 201 103q69 0 118.5 -25t68.5 -71q15 -35 15 -123v-286h-86v283q0 149 -141 149q-53 0 -97.5 -24t-63.5 -62q-15 -33 -15 -91v-255h-86z" glyph-name="h"/>
<glyph unicode="i" horiz-adv-x="221" d="M68 0v491h86v-491h-86zM68 573v94h86v-94h-86z" glyph-name="i"/>
<glyph unicode="j" horiz-adv-x="227" d="M159 491v-487q0 -62 -7 -90.5t-27 -47.5q-38 -35 -118 -35q-2 0 -48 2v74q13 -2 33 -2q49 0 65 19t16 78v489h86zM73 573v94h86v-94h-86z" glyph-name="j"/>
<glyph unicode="k" horiz-adv-x="583" d="M67 0v667h86v-393l268 217h136l-239 -188l257 -303h-121l-208 246l-93 -71v-175h-86z" glyph-name="k"/>
<glyph unicode="l" horiz-adv-x="220" d="M67 0v667h86v-667h-86z" glyph-name="l"/>
<glyph unicode="m" horiz-adv-x="984" d="M67 0v491h87v-87q75 101 195 101q128 0 175 -104q40 56 84.5 80t111.5 24q64 0 113 -25.5t69 -70.5q15 -33 15 -104v-305h-86v276q0 55 -7 82q-7 34 -42.5 54t-88.5 20q-94 0 -135 -58q-23 -32 -23 -98v-276h-86v279q0 64 -10 90q-11 29 -43.5 46t-78.5 17 q-74 0 -119 -40q-44 -38 -44 -118v-274h-87z" glyph-name="m"/>
<glyph unicode="n" horiz-adv-x="617" d="M67 0v491h87v-89q42 57 86.5 80t114.5 23q141 0 180 -89q15 -34 15 -133v-283h-86v273q0 69 -11 96q-23 63 -127 63q-116 0 -155 -74q-17 -35 -17 -114v-244h-87z" glyph-name="n"/>
<glyph unicode="o" horiz-adv-x="652" d="M328 508q127 0 204.5 -73.5t77.5 -195.5q0 -113 -79 -184.5t-204 -71.5q-127 0 -205.5 73.5t-78.5 191.5q0 115 79.5 187.5t205.5 72.5zM330 435q-86 0 -139 -52.5t-53 -137.5q0 -90 52 -138q54 -51 140 -51q84 0 134.5 51.5t50.5 136.5q0 86 -51 138.5t-134 52.5z" glyph-name="o"/>
<glyph unicode="p" horiz-adv-x="666" d="M153 -162h-86v653h86v-86q72 100 206 100q116 0 190.5 -73t74.5 -187q0 -115 -74 -187t-190 -72q-141 0 -207 107v-255zM342 432q-85 0 -139 -52t-54 -132q0 -82 55 -135.5t139 -53.5q82 0 134 50.5t52 129.5q0 88 -51 140.5t-136 52.5z" glyph-name="p"/>
<glyph unicode="q" horiz-adv-x="666" d="M513 -162v255q-66 -107 -207 -107q-116 0 -190 72t-74 187q0 114 74.5 187t190.5 73q134 0 206 -99v85h86v-653h-86zM324 432q-83 0 -135 -52t-52 -136q0 -83 51.5 -134t135.5 -51t139 53.5t55 135.5q0 80 -54.5 132t-139.5 52z" glyph-name="q"/>
<glyph unicode="r" horiz-adv-x="391" d="M67 0v491h87v-115q31 62 61 88q44 41 115 41q21 0 45 -5v-88q-35 7 -58 7q-78 0 -128 -55q-35 -39 -35 -119v-245h-87z" glyph-name="r"/>
<glyph unicode="s" horiz-adv-x="563" d="M34 150h89q7 -38 29 -58q41 -36 139 -36q68 0 106.5 20t38.5 55q0 38 -43 54q-27 9 -130 23q-114 16 -150 36q-64 36 -64 105q0 36 19 69t51 52q63 38 163 38q122 0 185 -59q40 -38 45 -107h-84q-9 44 -39 63q-44 29 -113 29q-61 0 -96.5 -19t-35.5 -52q0 -32 28 -46.5 t106 -24.5q112 -15 159 -31q94 -33 94 -118q0 -73 -65.5 -116.5t-175.5 -43.5q-121 0 -187 43t-69 124z" glyph-name="s"/>
<glyph unicode="t" horiz-adv-x="319" d="M292 65v-72q-41 -7 -76 -7q-98 0 -120 46q-8 15 -9 84v308h-83v67h83v133h86v-133h122v-67h-122v-306q0 -37 11.5 -48t48.5 -11q34 0 59 6z" glyph-name="t"/>
<glyph unicode="u" horiz-adv-x="617" d="M550 491v-491h-87v89q-43 -57 -87.5 -80t-113.5 -23q-140 0 -180 89q-10 22 -12.5 46t-2.5 87v283h86v-273q0 -70 12 -98q25 -61 126 -61q116 0 154 74q18 32 18 114v244h87z" glyph-name="u"/>
<glyph unicode="v" horiz-adv-x="550" d="M3 491h99l171 -390l178 390h96l-232 -491h-89z" glyph-name="v"/>
<glyph unicode="w" horiz-adv-x="840" d="M3 491h100l135 -389l128 389h102l126 -389l139 389h103l-190 -491h-104l-127 388l-126 -388h-104z" glyph-name="w"/>
<glyph unicode="x" horiz-adv-x="562" d="M0 0l218 252l-207 239h118l149 -174l145 174h120l-206 -239l225 -252h-127l-157 187l-154 -187h-124z" glyph-name="x"/>
<glyph unicode="y" horiz-adv-x="558" d="M3 491h103l175 -400l176 400h97l-260 -566q-24 -53 -60.5 -75t-101.5 -22q-27 0 -67 4v80q28 -11 57 -11q48 0 70 18.5t46 77.5z" glyph-name="y"/>
<glyph unicode="z" horiz-adv-x="549" d="M526 79v-79h-489v80l349 332h-331v79h456v-78l-362 -334h377z" glyph-name="z"/>
<glyph unicode="{" horiz-adv-x="318" d="M167 511v-114q0 -47 -12 -73.5t-42 -43.5q30 -18 42 -45t12 -74v-108q0 -55 20 -71q17 -14 59 -14h15v-75h-23q-83 0 -118 31q-40 36 -40 120v114q0 43 -12.5 62.5t-44.5 27.5v69q32 8 44.5 27t12.5 58v124q0 77 36 109t122 32h23v-74h-15q-43 0 -62 -17q-17 -17 -17 -65 z" glyph-name="braceleft"/>
<glyph unicode="|" horiz-adv-x="500" d="M205 667h91v-834h-91v834z" glyph-name="bar"/>
<glyph unicode="}" horiz-adv-x="318" d="M151 49v114q0 47 12 73.5t42 43.5q-30 18 -42 45t-12 74v108q0 55 -20 71q-18 14 -59 14h-15v75h23q83 0 118 -31q40 -36 40 -120v-114q0 -43 12.5 -62.5t44.5 -27.5v-69q-32 -8 -44.5 -27t-12.5 -58v-124q0 -77 -36 -109t-122 -32h-23v74h15q43 0 62 17q17 17 17 65z " glyph-name="braceright"/>
<glyph unicode="~" horiz-adv-x="667" d="M141 576l-47 37q53 117 137 117q37 0 114 -38q66 -33 94 -33q25 0 45 16.5t42 56.5l48 -38q-29 -61 -62 -89t-76 -28q-31 0 -112 39q-66 32 -96 32q-25 0 -44.5 -16t-42.5 -56z" glyph-name="asciitilde"/>
<glyph unicode="¡" horiz-adv-x="236" d="M161 551v-94h-94v94h94zM136 383l25 -298v-201h-94v201l21 298h48z" glyph-name="exclamdown"/>
<glyph unicode="¢" d="M501 270h92q-24 -80 -82 -131.5t-135 -59.5v-114h-72v114q-97 13 -153 60q-84 73 -84 198q0 69 27 126t75 89q52 36 135 48v100h72v-100q175 -17 217 -181h-96q-13 49 -41 73.5t-80 32.5v-370q46 8 79 38.5t46 76.5zM304 154v370q-68 -16 -99 -54q-44 -52 -44 -129 q0 -86 47 -138q30 -34 96 -49z" glyph-name="cent"/>
<glyph unicode="£" d="M411 356v-64h-185q19 -49 19 -74q0 -33 -16.5 -63.5t-58.5 -75.5q44 11 87 11q47 0 139 -20q25 -5 49 -5q60 0 137 44l29 -79q-72 -49 -155 -49q-41 0 -129 22q-52 13 -105 13q-76 0 -133 -35l-42 72q57 38 81.5 73.5t24.5 79.5q0 39 -24 86h-82v64h55q-20 46 -24 61.5 t-4 40.5q0 100 76.5 164t196.5 64q158 0 223 -92q30 -44 41 -127h-93q-20 136 -172 136q-77 0 -126.5 -42t-49.5 -106q0 -47 31 -99h210z" glyph-name="sterling"/>
<glyph unicode="¤" horiz-adv-x="667" d="M133 490l-64 64l45 45l67 -67q64 40 154 40q86 0 151 -40l65 65l45 -44l-62 -62q54 -71 54 -161q0 -85 -55 -150l65 -65l-45 -45l-69 69q-63 -39 -151 -39t-149 40l-68 -68l-45 45l64 64q-57 66 -57 155q0 86 55 154zM336 506q-77 0 -124.5 -47.5t-47.5 -123.5 q0 -81 46 -123q49 -46 126 -46q75 0 120.5 46.5t45.5 122.5q0 77 -45.5 124t-120.5 47z" glyph-name="currency"/>
<glyph unicode="¥" d="M485 469h73v-64h-115l-68 -103h183v-64h-183v-238h-90v238h-185v64h185l-68 103h-117v64h74l-131 198h119l170 -286l169 286h114z" glyph-name="yen"/>
<glyph unicode="¦" horiz-adv-x="500" d="M205 667h91v-338h-91v338zM205 153h91v-320h-91v320z" glyph-name="brokenbar"/>
<glyph unicode="§" horiz-adv-x="599" d="M59 73h78q11 -60 40 -82q45 -35 130 -35q144 0 144 91q0 70 -84 86l-183 38q-71 15 -100.5 42t-29.5 76q0 70 63 122q-29 19 -41 41t-12 57q0 169 234 169q114 0 162.5 -33.5t69.5 -127.5h-82q-9 43 -31 62q-35 29 -116 29q-72 0 -114.5 -24t-42.5 -64q0 -28 23.5 -44.5 t79.5 -27.5l151 -31q81 -15 110 -43q37 -35 37 -90q0 -31 -13.5 -56t-47.5 -56q27 -24 38 -50.5t11 -66.5q0 -175 -220 -175q-133 0 -203 64q-46 43 -51 129zM213 247l157 -33q45 -10 70 -21q33 36 33 72q0 39 -27 53q-17 9 -62 18l-160 34q-39 7 -65 20q-30 -37 -30 -72 q0 -31 17 -45.5t67 -25.5z" glyph-name="section"/>
<glyph unicode="¨" horiz-adv-x="500" d="M90 577v90h90v-90h-90zM320 577v90h90v-90h-90z" glyph-name="dieresis"/>
<glyph unicode="©" horiz-adv-x="757" d="M517 293h62q-5 -47 -28 -78q-56 -79 -165 -79q-96 0 -152.5 54.5t-56.5 146.5q0 91 56 146t148 55q85 0 138.5 -41.5t58.5 -111.5h-64q-9 47 -43 72.5t-88 25.5q-66 0 -103.5 -40t-37.5 -110q0 -68 37.5 -105t106.5 -37q108 0 131 102zM383 680q140 0 240 -102.5 t100 -244.5q0 -143 -101 -244.5t-243 -101.5q-143 0 -244.5 101.5t-101.5 244.5q0 145 102 246t248 101zM382 632q-124 0 -210.5 -87t-86.5 -212q0 -123 86 -210.5t207 -87.5t207 87.5t86 210.5q0 122 -85.5 210.5t-203.5 88.5z" glyph-name="copyright"/>
<glyph unicode="ª" horiz-adv-x="408" d="M397 317v-45q-17 -7 -39 -7q-54 0 -68 42q-40 -51 -128 -51q-59 0 -94 25.5t-35 68.5q0 74 100 89q5 1 111 12q43 4 43 29q0 41 -83 41q-50 0 -69.5 -12t-24.5 -44h-66q7 57 44.5 82.5t113.5 25.5q83 0 117 -25q19 -14 25.5 -32t6.5 -57v-117q0 -16 5.5 -21t22.5 -5 q9 0 18 1zM290 416l-6 -2l-4.5 -1.5t-2.5 -0.5q-23 -8 -109 -21q-36 -5 -51.5 -14.5t-15.5 -26.5q0 -18 20.5 -30t49.5 -12q37 0 70 17t42 40q7 17 7 51z" glyph-name="ordfeminine"/>
<glyph unicode="«" horiz-adv-x="443" d="M196 89l-156 120v83l156 113v-72l-113 -84l113 -77v-83zM392 89l-156 120v83l156 113v-72l-113 -84l113 -77v-83z" glyph-name="guillemotleft"/>
<glyph unicode="¬" horiz-adv-x="500" d="M378 0v200h-345v79h433v-279h-88z" glyph-name="logicalnot"/>
<glyph unicode="®" horiz-adv-x="757" d="M194 147v380h205q64 0 86 -11q54 -25 54 -95q0 -71 -59 -93q31 -11 40.5 -30.5t12.5 -74.5q3 -42 7 -52t23 -24h-85q-5 27 -8 75q-2 49 -17.5 64t-63.5 15h-135v-154h-60zM254 354h133q38 0 53 5q34 11 34 58q0 31 -17 43.5t-60 12.5h-143v-119zM383 680 q140 0 240 -102.5t100 -244.5q0 -143 -101 -244.5t-243 -101.5q-143 0 -244.5 101.5t-101.5 244.5q0 145 102 246t248 101zM382 632q-124 0 -210.5 -87t-86.5 -212q0 -123 86 -210.5t207 -87.5t207 87.5t86 210.5q0 122 -85.5 210.5t-203.5 88.5z" glyph-name="registered"/>
<glyph unicode="°" horiz-adv-x="413" d="M206 680q61 0 104 -43t43 -105q0 -59 -43.5 -102t-102.5 -43q-61 0 -104 43t-43 104q0 60 43 103t103 43zM206 616q-34 0 -58 -24t-24 -58t24 -58.5t59 -24.5q33 0 57.5 24t24.5 58q0 35 -24.5 59t-58.5 24z" glyph-name="degree"/>
<glyph unicode="±" d="M549 404v-70h-185v-198h-70v198h-185v70h185v198h70v-198h185zM549 70v-70h-440v70h440z" glyph-name="plusminus"/>
<glyph unicode="²" horiz-adv-x="442" d="M390 326v-60h-339q3 62 41.5 101.5t140.5 86.5q52 25 71 44.5t19 49.5q0 32 -27 52.5t-70 20.5q-46 0 -72.5 -22.5t-29.5 -64.5v-8h-66q2 47 15 73q18 37 59.5 58t95.5 21q73 0 118 -36t45 -95q0 -71 -71 -114q-25 -16 -105 -53q-58 -29 -80 -54h255z" glyph-name="twosuperior"/>
<glyph unicode="³" horiz-adv-x="442" d="M47 399h67q2 -87 104 -87q52 0 80.5 19t28.5 54q0 66 -103 66l-37 -1v56h7l5 -1q9 -1 26 -1q86 0 86 55q0 28 -25 45t-65 17q-90 0 -96 -82h-63v8q2 60 45.5 95.5t116.5 35.5q69 0 112 -32.5t43 -84.5q0 -55 -53 -82q70 -20 70 -90q0 -61 -47.5 -97.5t-125.5 -36.5 q-171 0 -176 144z" glyph-name="threesuperior"/>
<glyph unicode="´" horiz-adv-x="500" d="M189 567l62 113h140l-129 -113h-73z" glyph-name="acute"/>
<glyph unicode="¶" horiz-adv-x="667" d="M590 667v-774h-94v699h-72v-699h-94v385h-18q-120 0 -176 22q-121 47 -121 170q0 65 37.5 114t103.5 69q45 14 158 14h276z" glyph-name="paragraph"/>
<glyph unicode="¸" horiz-adv-x="500" d="M235 0h46l-36 -62q23 4 35 4q78 0 78 -62q0 -34 -28.5 -55.5t-73.5 -21.5q-60 0 -113 22l17 38q45 -16 77 -16q37 0 37 30q0 28 -34 28q-12 0 -33 -7l-23 19z" glyph-name="cedilla"/>
<glyph unicode="¹" horiz-adv-x="442" d="M219 267v281h-124v48q13 -1 18 -1q60 0 87 15.5t37 56.5h47v-400h-65z" glyph-name="onesuperior"/>
<glyph unicode="º" horiz-adv-x="437" d="M220 573q81 0 130 -44.5t49 -117.5q0 -68 -50 -111t-130 -43q-81 0 -131 44.5t-50 115.5q0 69 51 112.5t131 43.5zM221 521q-51 0 -83 -29.5t-32 -77.5q0 -49 31 -77t84 -28q50 0 80 29t30 76q0 49 -30 78t-80 29z" glyph-name="ordmasculine"/>
<glyph unicode="»" horiz-adv-x="443" d="M247 405l156 -120v-83l-156 -113v72l113 84l-113 77v83zM51 405l156 -120v-83l-156 -113v72l113 84l-113 77v83z" glyph-name="guillemotright"/>
<glyph unicode="¼" horiz-adv-x="983" d="M218 267v281h-123v48q13 -1 18 -1q59 0 86 16t37 56h47v-400h-65zM309 0l298 667h66l-302 -667h-62zM803 0v94h-218v53l222 253h61v-254h67v-52h-67v-94h-65zM803 146v172l-152 -172h152z" glyph-name="onequarter"/>
<glyph unicode="½" horiz-adv-x="983" d="M218 267v281h-123v48q13 -1 18 -1q59 0 86 16t37 56h47v-400h-65zM309 0l298 667h66l-302 -667h-62zM931 60v-60h-339q3 61 42 101t140 86q52 25 71 45t19 49q0 32 -27 52.5t-70 20.5q-46 0 -72.5 -22.5t-29.5 -64.5v-8h-66q2 47 15 73q18 37 59.5 58t95.5 21 q73 0 118 -36t45 -94q0 -71 -71 -115q-17 -10 -105 -52q-59 -30 -80 -54h255z" glyph-name="onehalf"/>
<glyph unicode="¾" horiz-adv-x="983" d="M47 399h67q2 -87 104 -87q52 0 80.5 19t28.5 54q0 66 -103 66l-37 -1v56h7l5 -1q9 -1 26 -1q86 0 86 55q0 28 -25 45t-65 17q-90 0 -96 -82h-63v8q2 60 45.5 95.5t116.5 35.5q69 0 112 -32.5t43 -84.5q0 -55 -53 -82q70 -20 70 -90q0 -61 -47.5 -97.5t-125.5 -36.5 q-171 0 -176 144zM310 0l298 667h66l-302 -667h-62zM804 0v94h-218v53l222 253h61v-254h67v-52h-67v-94h-65zM804 146v172l-152 -172h152z" glyph-name="threequarters"/>
<glyph unicode="¿" horiz-adv-x="552" d="M331 551v-94h-94v94h94zM434 94h89q-10 -92 -56 -144q-69 -75 -199 -75q-120 0 -182 61q-56 54 -56 135q0 74 51 128q29 29 105 86q38 29 46 43.5t9 54.5h85q-2 -62 -24.5 -96.5t-96.5 -86.5q-83 -59 -83 -126q0 -55 38.5 -87t106.5 -32q73 0 113.5 34t53.5 105z" glyph-name="questiondown"/>
<glyph unicode="À" horiz-adv-x="721" d="M7 0l292 667h109l307 -667h-101l-88 190h-338l-83 -190h-98zM224 272h268l-139 304zM395 734h-73l-129 113h140z" glyph-name="Agrave"/>
<glyph unicode="Á" horiz-adv-x="721" d="M7 0l292 667h109l307 -667h-101l-88 190h-338l-83 -190h-98zM224 272h268l-139 304zM320 734l62 113h140l-129 -113h-73z" glyph-name="Aacute"/>
<glyph unicode="Â" horiz-adv-x="721" d="M7 0l292 667h109l307 -667h-101l-88 190h-338l-83 -190h-98zM224 272h268l-139 304zM181 734l118 113h120l115 -113h-112l-67 68l-67 -68h-107z" glyph-name="Acircumflex"/>
<glyph unicode="Ã" horiz-adv-x="721" d="M7 0l292 667h109l307 -667h-101l-88 190h-338l-83 -190h-98zM224 272h268l-139 304zM252 737h-68q4 46 30.5 73.5t64.5 27.5q32 0 141 -34q9 -3 16 -3q22 0 31 29h71q-4 -43 -31 -70t-65 -27q-20 0 -108 25q-32 9 -48 9t-23 -6.5t-11 -23.5z" glyph-name="Atilde"/>
<glyph unicode="Ä" horiz-adv-x="721" d="M7 0l292 667h109l307 -667h-101l-88 190h-338l-83 -190h-98zM224 272h268l-139 304zM201 743v90h90v-90h-90zM431 743v90h90v-90h-90z" glyph-name="Adieresis"/>
<glyph unicode="Å" horiz-adv-x="721" d="M7 0l292 667h109l307 -667h-101l-88 190h-338l-83 -190h-98zM224 272h268l-139 304zM362 893q43 0 72.5 -26t29.5 -64q0 -37 -29.5 -61.5t-74.5 -24.5q-46 0 -74.5 24t-28.5 63q0 37 31 63t74 26zM361 857q-28 0 -44.5 -14.5t-16.5 -38.5t16 -38t44 -14q27 0 44 15t17 38 t-16.5 37.5t-43.5 14.5z" glyph-name="Aring"/>
<glyph unicode="Æ" horiz-adv-x="1093" d="M0 0l352 667h697v-81h-449v-209h419v-78h-419v-218h449v-81h-540v193h-302l-103 -193h-104zM245 271h264v315h-99z" glyph-name="AE"/>
<glyph unicode="Ç" horiz-adv-x="779" d="M653 247h96q-11 -113 -107 -191t-221 -75l-25 -43q22 5 40 5q40 0 62.5 -18t22.5 -50q0 -38 -31.5 -61.5t-80.5 -23.5q-67 0 -125 24l19 42q48 -18 86 -18q40 0 40 33q0 31 -38 31q-12 0 -36 -7l-25 20l41 66q-95 9 -174 56q-69 40 -109 119.5t-40 177.5q0 83 31 155 t87 120q92 77 239 77q191 0 284 -116q52 -65 58 -141h-98q-17 81 -81 127.5t-160 46.5q-122 0 -191 -73.5t-69 -202.5q0 -125 69.5 -194t194.5 -69q201 0 241 183z" glyph-name="Ccedilla"/>
<glyph unicode="È" horiz-adv-x="658" d="M75 0v667h528v-81h-438v-206h420v-78h-420v-221h448v-81h-538zM430 734h-73l-129 113h140z" glyph-name="Egrave"/>
<glyph unicode="É" horiz-adv-x="658" d="M75 0v667h528v-81h-438v-206h420v-78h-420v-221h448v-81h-538zM228 734l62 113h140l-129 -113h-73z" glyph-name="Eacute"/>
<glyph unicode="Ê" horiz-adv-x="658" d="M75 0v667h528v-81h-438v-206h420v-78h-420v-221h448v-81h-538zM149 734l118 113h120l115 -113h-112l-67 68l-67 -68h-107z" glyph-name="Ecircumflex"/>
<glyph unicode="Ë" horiz-adv-x="658" d="M75 0v667h528v-81h-438v-206h420v-78h-420v-221h448v-81h-538zM169 743v90h90v-90h-90zM399 743v90h90v-90h-90z" glyph-name="Edieresis"/>
<glyph unicode="Ì" horiz-adv-x="241" d="M75 0v667h90v-667h-90zM168 734h-73l-109 113h120z" glyph-name="Igrave"/>
<glyph unicode="Í" horiz-adv-x="241" d="M75 0v667h90v-667h-90zM86 734l62 113h120l-109 -113h-73z" glyph-name="Iacute"/>
<glyph unicode="Î" horiz-adv-x="241" d="M76 0v667h90v-667h-90zM-59 734l118 113h120l115 -113h-112l-67 68l-67 -68h-107z" glyph-name="Icircumflex"/>
<glyph unicode="Ï" horiz-adv-x="241" d="M76 0v667h90v-667h-90zM6 743v90h90v-90h-90zM149 743v90h87v-90h-87z" glyph-name="Idieresis"/>
<glyph unicode="Ð" horiz-adv-x="771" d="M89 387v280h318q80 0 126 -11t82 -39q108 -82 108 -277q0 -103 -30 -180t-86 -118q-33 -23 -78.5 -32.5t-127.5 -9.5h-312v307h-67v80h67zM179 387h176v-80h-176v-226h227q97 0 142 37q75 63 75 215q0 131 -56 192t-176 61h-212v-199z" glyph-name="Eth"/>
<glyph unicode="Ñ" horiz-adv-x="802" d="M75 0v667h109l453 -562v562h90v-667h-112l-450 559v-559h-90zM292 737h-68q4 46 30.5 73.5t64.5 27.5q32 0 141 -34q9 -3 16 -3q22 0 31 29h71q-4 -43 -31 -70t-65 -27q-21 0 -108 25q-32 9 -48 9t-23 -6.5t-11 -23.5z" glyph-name="Ntilde"/>
<glyph unicode="Ò" horiz-adv-x="828" d="M423 686q159 0 258 -96.5t99 -251.5q0 -157 -103.5 -257t-265.5 -100q-164 0 -263.5 96.5t-99.5 255.5q0 155 105.5 254t269.5 99zM421 603q-118 0 -195.5 -75.5t-77.5 -191.5q0 -122 73.5 -197t191.5 -75q119 0 193 74t74 194q0 121 -72 196t-187 75zM488 734h-73 l-129 113h140z" glyph-name="Ograve"/>
<glyph unicode="Ó" horiz-adv-x="828" d="M423 686q159 0 258 -96.5t99 -251.5q0 -157 -103.5 -257t-265.5 -100q-164 0 -263.5 96.5t-99.5 255.5q0 155 105.5 254t269.5 99zM421 603q-118 0 -195.5 -75.5t-77.5 -191.5q0 -122 73.5 -197t191.5 -75q119 0 193 74t74 194q0 121 -72 196t-187 75zM340 734l62 113 h140l-129 -113h-73z" glyph-name="Oacute"/>
<glyph unicode="Ô" horiz-adv-x="828" d="M423 686q159 0 258 -96.5t99 -251.5q0 -157 -103.5 -257t-265.5 -100q-164 0 -263.5 96.5t-99.5 255.5q0 155 105.5 254t269.5 99zM421 603q-118 0 -195.5 -75.5t-77.5 -191.5q0 -122 73.5 -197t191.5 -75q119 0 193 74t74 194q0 121 -72 196t-187 75zM234 734l118 113 h120l115 -113h-112l-67 68l-67 -68h-107z" glyph-name="Ocircumflex"/>
<glyph unicode="Õ" horiz-adv-x="828" d="M423 686q159 0 258 -96.5t99 -251.5q0 -157 -103.5 -257t-265.5 -100q-164 0 -263.5 96.5t-99.5 255.5q0 155 105.5 254t269.5 99zM421 603q-118 0 -195.5 -75.5t-77.5 -191.5q0 -122 73.5 -197t191.5 -75q119 0 193 74t74 194q0 121 -72 196t-187 75zM305 737h-68 q4 46 30.5 73.5t64.5 27.5q32 0 141 -34q9 -3 16 -3q22 0 31 29h71q-4 -43 -31 -70t-65 -27q-21 0 -108 25q-32 9 -48 9t-23 -6.5t-11 -23.5z" glyph-name="Otilde"/>
<glyph unicode="Ö" horiz-adv-x="828" d="M423 686q159 0 258 -96.5t99 -251.5q0 -157 -103.5 -257t-265.5 -100q-164 0 -263.5 96.5t-99.5 255.5q0 155 105.5 254t269.5 99zM421 603q-118 0 -195.5 -75.5t-77.5 -191.5q0 -122 73.5 -197t191.5 -75q119 0 193 74t74 194q0 121 -72 196t-187 75zM254 743v90h90v-90 h-90zM484 743v90h90v-90h-90z" glyph-name="Odieresis"/>
<glyph unicode="×" d="M486 541l49 -49l-156 -156l163 -163l-49 -50l-163 163l-157 -156l-49 50l156 156l-163 163l50 49l163 -163z" glyph-name="multiply"/>
<glyph unicode="Ø" horiz-adv-x="827" d="M22 46l84 79q-58 96 -58 202q0 160 104.5 259.5t271.5 99.5q117 0 215 -60l87 83l55 -60l-82 -76q80 -98 80 -233q0 -157 -103.5 -258t-264.5 -101q-144 0 -252 85l-82 -80zM180 195l389 365q-62 43 -147 43q-121 0 -198 -76.5t-77 -196.5q0 -68 33 -135zM629 506 l-400 -375q77 -65 182 -65q120 0 194.5 73.5t74.5 192.5q0 103 -51 174z" glyph-name="Oslash"/>
<glyph unicode="Ù" horiz-adv-x="736" d="M577 667h91v-399q0 -73 -9 -113t-32 -72q-37 -49 -104.5 -75.5t-154.5 -26.5q-95 0 -166 31.5t-104 89.5q-29 51 -29 166v399h91v-405q0 -78 25 -121q21 -35 71 -56t113 -21q70 0 121 24t70 67q17 38 17 107v405zM450 734h-73l-129 113h140z" glyph-name="Ugrave"/>
<glyph unicode="Ú" horiz-adv-x="736" d="M577 667h91v-399q0 -73 -9 -113t-32 -72q-37 -49 -104.5 -75.5t-154.5 -26.5q-95 0 -166 31.5t-104 89.5q-29 51 -29 166v399h91v-405q0 -78 25 -121q21 -35 71 -56t113 -21q70 0 121 24t70 67q17 38 17 107v405zM294 734l62 113h140l-129 -113h-73z" glyph-name="Uacute"/>
<glyph unicode="Û" horiz-adv-x="736" d="M577 667h91v-399q0 -73 -9 -113t-32 -72q-37 -49 -104.5 -75.5t-154.5 -26.5q-95 0 -166 31.5t-104 89.5q-29 51 -29 166v399h91v-405q0 -78 25 -121q21 -35 71 -56t113 -21q70 0 121 24t70 67q17 38 17 107v405zM188 734l118 113h120l115 -113h-112l-67 68l-67 -68h-107 z" glyph-name="Ucircumflex"/>
<glyph unicode="Ü" horiz-adv-x="736" d="M577 667h91v-399q0 -73 -9 -113t-32 -72q-37 -49 -104.5 -75.5t-154.5 -26.5q-95 0 -166 31.5t-104 89.5q-29 51 -29 166v399h91v-405q0 -78 25 -121q21 -35 71 -56t113 -21q70 0 121 24t70 67q17 38 17 107v405zM209 743v90h90v-90h-90zM439 743v90h90v-90h-90z" glyph-name="Udieresis"/>
<glyph unicode="Ý" horiz-adv-x="679" d="M678 667l-293 -391v-276h-90v276l-295 391h119l223 -312l222 312h114zM265 734l62 113h140l-129 -113h-73z" glyph-name="Yacute"/>
<glyph unicode="Þ" horiz-adv-x="667" d="M75 0v667h90v-94h193q118 0 163 -14q54 -16 86 -66t32 -117q0 -59 -28 -110.5t-71 -69.5q-54 -23 -178 -23h-197v-173h-90zM165 251h192q79 0 120 13q29 10 45.5 38.5t16.5 68.5q0 92 -79 114q-29 7 -104 7h-191v-241z" glyph-name="Thorn"/>
<glyph unicode="ß" horiz-adv-x="611" d="M68 0v462q0 58 8.5 88.5t31.5 58.5q29 33 80.5 52.5t112.5 19.5q106 0 170.5 -49t64.5 -130q0 -53 -29 -88t-80 -42q141 -36 141 -170q0 -52 -20.5 -98.5t-55.5 -74.5q-53 -42 -142 -42q-37 0 -93 13v63q34 -7 64 -7q69 0 110.5 39t41.5 104q0 63 -43 96.5t-123 33.5 q-12 0 -45 -1v72q17 -2 38 -2q74 0 107.5 23.5t33.5 75.5t-37 81.5t-101 29.5q-81 0 -119 -43q-18 -19 -24.5 -43t-6.5 -68v-454h-85z" glyph-name="germandbls"/>
<glyph unicode="à" horiz-adv-x="604" d="M605 69v-62q-24 -10 -58 -10q-91 0 -103 84q-63 -98 -212 -98q-91 0 -145 41t-54 111q0 117 155 144q36 4 179 20q40 5 57.5 18t17.5 39q0 37 -37 57.5t-105 20.5q-79 0 -115 -21.5t-43 -73.5h-91q11 87 71 128t175 41q131 0 185 -42q29 -22 38.5 -51.5t9.5 -93.5v-199 q0 -32 11 -43.5t42 -11.5q2 0 5 0.5t7.5 1t9.5 0.5zM446 259q-38 -15 -63.5 -21t-140.5 -25q-67 -11 -88 -28q-26 -19 -26 -50q0 -34 34.5 -56.5t86.5 -22.5q62 0 116.5 30t69.5 72q11 30 11 101zM363 567h-73l-129 113h140z" glyph-name="agrave"/>
<glyph unicode="á" horiz-adv-x="604" d="M605 69v-62q-24 -10 -58 -10q-91 0 -103 84q-63 -98 -212 -98q-91 0 -145 41t-54 111q0 117 155 144q36 4 179 20q40 5 57.5 18t17.5 39q0 37 -37 57.5t-105 20.5q-79 0 -115 -21.5t-43 -73.5h-91q11 87 71 128t175 41q131 0 185 -42q29 -22 38.5 -51.5t9.5 -93.5v-199 q0 -32 11 -43.5t42 -11.5q2 0 5 0.5t7.5 1t9.5 0.5zM446 259q-38 -15 -63.5 -21t-140.5 -25q-67 -11 -88 -28q-26 -19 -26 -50q0 -34 34.5 -56.5t86.5 -22.5q62 0 116.5 30t69.5 72q11 30 11 101zM241 567l62 113h140l-129 -113h-73z" glyph-name="aacute"/>
<glyph unicode="â" horiz-adv-x="604" d="M605 69v-62q-24 -10 -58 -10q-91 0 -103 84q-63 -98 -212 -98q-91 0 -145 41t-54 111q0 117 155 144q36 4 179 20q40 5 57.5 18t17.5 39q0 37 -37 57.5t-105 20.5q-79 0 -115 -21.5t-43 -73.5h-91q11 87 71 128t175 41q131 0 185 -42q29 -22 38.5 -51.5t9.5 -93.5v-199 q0 -32 11 -43.5t42 -11.5q2 0 5 0.5t7.5 1t9.5 0.5zM446 259q-38 -15 -63.5 -21t-140.5 -25q-67 -11 -88 -28q-26 -19 -26 -50q0 -34 34.5 -56.5t86.5 -22.5q62 0 116.5 30t69.5 72q11 30 11 101zM134 570l112 107h114l110 -107h-107l-63 64l-65 -64h-101z" glyph-name="acircumflex"/>
<glyph unicode="ã" horiz-adv-x="604" d="M605 69v-62q-24 -10 -58 -10q-91 0 -103 84q-63 -98 -212 -98q-91 0 -145 41t-54 111q0 117 155 144q36 4 179 20q40 5 57.5 18t17.5 39q0 37 -37 57.5t-105 20.5q-79 0 -115 -21.5t-43 -73.5h-91q11 87 71 128t175 41q131 0 185 -42q29 -22 38.5 -51.5t9.5 -93.5v-199 q0 -32 11 -43.5t42 -11.5q2 0 5 0.5t7.5 1t9.5 0.5zM446 259q-38 -15 -63.5 -21t-140.5 -25q-67 -11 -88 -28q-26 -19 -26 -50q0 -34 34.5 -56.5t86.5 -22.5q62 0 116.5 30t69.5 72q11 30 11 101zM193 570h-68q4 46 30.5 73.5t64.5 27.5q30 0 141 -34q9 -3 16 -3q23 0 31 33 h71q-2 -44 -29.5 -72.5t-66.5 -28.5q-23 0 -108 25q-32 9 -48 9t-23 -6.5t-11 -23.5z" glyph-name="atilde"/>
<glyph unicode="ä" horiz-adv-x="604" d="M605 69v-62q-24 -10 -58 -10q-91 0 -103 84q-63 -98 -212 -98q-91 0 -145 41t-54 111q0 117 155 144q36 4 179 20q40 5 57.5 18t17.5 39q0 37 -37 57.5t-105 20.5q-79 0 -115 -21.5t-43 -73.5h-91q11 87 71 128t175 41q131 0 185 -42q29 -22 38.5 -51.5t9.5 -93.5v-199 q0 -32 11 -43.5t42 -11.5q2 0 5 0.5t7.5 1t9.5 0.5zM446 259q-38 -15 -63.5 -21t-140.5 -25q-67 -11 -88 -28q-26 -19 -26 -50q0 -34 34.5 -56.5t86.5 -22.5q62 0 116.5 30t69.5 72q11 30 11 101zM142 577v90h90v-90h-90zM372 577v90h90v-90h-90z" glyph-name="adieresis"/>
<glyph unicode="å" horiz-adv-x="604" d="M605 69v-62q-24 -10 -58 -10q-91 0 -103 84q-63 -98 -212 -98q-91 0 -145 41t-54 111q0 117 155 144q36 4 179 20q40 5 57.5 18t17.5 39q0 37 -37 57.5t-105 20.5q-79 0 -115 -21.5t-43 -73.5h-91q11 87 71 128t175 41q131 0 185 -42q29 -22 38.5 -51.5t9.5 -93.5v-199 q0 -32 11 -43.5t42 -11.5q2 0 5 0.5t7.5 1t9.5 0.5zM446 259q-38 -15 -63.5 -21t-140.5 -25q-67 -11 -88 -28q-26 -19 -26 -50q0 -34 34.5 -56.5t86.5 -22.5q62 0 116.5 30t69.5 72q11 30 11 101zM299 742q45 0 75.5 -25.5t30.5 -62.5q0 -38 -30 -62.5t-76 -24.5 q-45 0 -73 25t-28 64q0 37 29 61.5t72 24.5zM302 705q-28 0 -45.5 -14t-17.5 -36t17 -36.5t43 -14.5q28 0 45.5 14.5t17.5 37.5q0 22 -17 35.5t-43 13.5z" glyph-name="aring"/>
<glyph unicode="æ" horiz-adv-x="1003" d="M140 341h-85q20 167 242 167q82 0 129 -22.5t69 -71.5q43 52 88 73t113 21q128 0 196.5 -74.5t67.5 -213.5h-440q18 -163 177 -163q112 0 163 88h93q-30 -78 -96 -120t-158 -42q-178 0 -230 117q-59 -117 -227 -117q-100 0 -154.5 39.5t-54.5 111.5q0 48 27.5 84t74.5 49 q45 13 157 20q45 3 68.5 5.5t42 6t25 10.5t9.5 15.5t3 23.5q0 86 -147 86q-71 0 -106.5 -21.5t-46.5 -71.5zM519 287h351q-8 70 -54.5 109t-122.5 39t-122 -39t-52 -109zM440 248l-5 -2q-3 -1 -8 -3q-42 -17 -141 -24q-98 -8 -124 -23q-34 -20 -34 -59q0 -80 121 -80 q62 0 110 20.5t64 54.5q17 34 17 116z" glyph-name="ae"/>
<glyph unicode="ç" horiz-adv-x="601" d="M321 -17l-26 -45q23 4 35 4q78 0 78 -62q0 -34 -28.5 -55.5t-73.5 -21.5q-60 0 -113 22l17 38q45 -16 77 -16q37 0 37 30q0 28 -34 28q-12 0 -32 -7l-23 19l42 68q-112 14 -173 81.5t-61 176.5q0 121 75.5 193t201.5 72q96 0 160.5 -47.5t89.5 -135.5h-96 q-32 109 -152 109q-83 0 -133.5 -51.5t-50.5 -135.5q0 -86 48 -138t128 -52q124 0 164 119h92q-23 -86 -91 -139t-158 -54z" glyph-name="ccedilla"/>
<glyph unicode="è" horiz-adv-x="624" d="M472 143h94q-29 -76 -95.5 -118t-157.5 -42q-121 0 -195.5 70t-74.5 184q0 118 77 194.5t195 76.5q86 0 151 -41t94 -115q12 -30 16 -56.5t6 -77.5h-449q23 -162 186 -162q116 0 153 87zM133 285h357q-11 69 -59 109.5t-118 40.5q-93 0 -141 -64q-20 -27 -39 -86z M387 567h-73l-129 113h140z" glyph-name="egrave"/>
<glyph unicode="é" horiz-adv-x="624" d="M472 143h94q-29 -76 -95.5 -118t-157.5 -42q-121 0 -195.5 70t-74.5 184q0 118 77 194.5t195 76.5q86 0 151 -41t94 -115q12 -30 16 -56.5t6 -77.5h-449q23 -162 186 -162q116 0 153 87zM133 285h357q-11 69 -59 109.5t-118 40.5q-93 0 -141 -64q-20 -27 -39 -86z M238 567l62 113h140l-129 -113h-73z" glyph-name="eacute"/>
<glyph unicode="ê" horiz-adv-x="624" d="M472 143h94q-29 -76 -95.5 -118t-157.5 -42q-121 0 -195.5 70t-74.5 184q0 118 77 194.5t195 76.5q86 0 151 -41t94 -115q12 -30 16 -56.5t6 -77.5h-449q23 -162 186 -162q116 0 153 87zM133 285h357q-11 69 -59 109.5t-118 40.5q-93 0 -141 -64q-20 -27 -39 -86z M145 570l112 107h114l110 -107h-107l-63 64l-65 -64h-101z" glyph-name="ecircumflex"/>
<glyph unicode="ë" horiz-adv-x="624" d="M472 143h94q-29 -76 -95.5 -118t-157.5 -42q-121 0 -195.5 70t-74.5 184q0 118 77 194.5t195 76.5q86 0 151 -41t94 -115q12 -30 16 -56.5t6 -77.5h-449q23 -162 186 -162q116 0 153 87zM133 285h357q-11 69 -59 109.5t-118 40.5q-93 0 -141 -64q-20 -27 -39 -86z M153 577v90h90v-90h-90zM383 577v90h90v-90h-90z" glyph-name="edieresis"/>
<glyph unicode="ì" horiz-adv-x="221" d="M69 0v491h86v-491h-86zM172 567h-73l-109 113h120z" glyph-name="igrave"/>
<glyph unicode="í" horiz-adv-x="221" d="M69 0v491h86v-491h-86zM50 567l62 113h120l-109 -113h-73z" glyph-name="iacute"/>
<glyph unicode="î" horiz-adv-x="221" d="M69 0v491h86v-491h-86zM-57 570l112 107h114l110 -107h-107l-63 64l-65 -64h-101z" glyph-name="icircumflex"/>
<glyph unicode="ï" horiz-adv-x="221" d="M68 0v491h86v-491h-86zM2 577v90h84v-90h-84zM135 577v90h84v-90h-84z" glyph-name="idieresis"/>
<glyph unicode="ð" horiz-adv-x="652" d="M202 576l58 51q-13 15 -41 42l33 34l49 -40l65 58l30 -32l-61 -55q77 -64 138 -127q76 -79 106.5 -138t30.5 -129q0 -115 -78.5 -186t-205.5 -71q-125 0 -204 73.5t-79 188.5q0 118 78.5 190.5t206.5 72.5q16 0 43 -3q-9 9 -81 89l-59 -53zM330 435q-86 0 -139 -52.5 t-53 -137.5q0 -90 52 -138q54 -51 140 -51q84 0 134.5 51.5t50.5 136.5q0 86 -51 138.5t-134 52.5z" glyph-name="eth"/>
<glyph unicode="ñ" horiz-adv-x="617" d="M67 0v491h87v-89q42 57 86.5 80t114.5 23q141 0 180 -89q15 -34 15 -133v-283h-86v273q0 69 -11 96q-23 63 -127 63q-116 0 -155 -74q-17 -35 -17 -114v-244h-87zM199 570h-68q4 46 30.5 73.5t64.5 27.5q30 0 141 -34q9 -3 16 -3q23 0 31 33h71q-2 -44 -29.5 -72.5 t-66.5 -28.5q-23 0 -108 25q-32 9 -48 9t-23 -6.5t-11 -23.5z" glyph-name="ntilde"/>
<glyph unicode="ò" horiz-adv-x="652" d="M328 508q127 0 204.5 -73.5t77.5 -195.5q0 -113 -79 -184.5t-204 -71.5q-127 0 -205.5 73.5t-78.5 191.5q0 115 79.5 187.5t205.5 72.5zM330 435q-86 0 -139 -52.5t-53 -137.5q0 -90 52 -138q54 -51 140 -51q84 0 134.5 51.5t50.5 136.5q0 86 -51 138.5t-134 52.5z M407 567h-73l-129 113h140z" glyph-name="ograve"/>
<glyph unicode="ó" horiz-adv-x="652" d="M328 508q127 0 204.5 -73.5t77.5 -195.5q0 -113 -79 -184.5t-204 -71.5q-127 0 -205.5 73.5t-78.5 191.5q0 115 79.5 187.5t205.5 72.5zM330 435q-86 0 -139 -52.5t-53 -137.5q0 -90 52 -138q54 -51 140 -51q84 0 134.5 51.5t50.5 136.5q0 86 -51 138.5t-134 52.5z M252 567l62 113h140l-129 -113h-73z" glyph-name="oacute"/>
<glyph unicode="ô" horiz-adv-x="652" d="M328 508q127 0 204.5 -73.5t77.5 -195.5q0 -113 -79 -184.5t-204 -71.5q-127 0 -205.5 73.5t-78.5 191.5q0 115 79.5 187.5t205.5 72.5zM330 435q-86 0 -139 -52.5t-53 -137.5q0 -90 52 -138q54 -51 140 -51q84 0 134.5 51.5t50.5 136.5q0 86 -51 138.5t-134 52.5z M158 570l112 107h114l110 -107h-107l-63 64l-65 -64h-101z" glyph-name="ocircumflex"/>
<glyph unicode="õ" horiz-adv-x="652" d="M328 508q127 0 204.5 -73.5t77.5 -195.5q0 -113 -79 -184.5t-204 -71.5q-127 0 -205.5 73.5t-78.5 191.5q0 115 79.5 187.5t205.5 72.5zM330 435q-86 0 -139 -52.5t-53 -137.5q0 -90 52 -138q54 -51 140 -51q84 0 134.5 51.5t50.5 136.5q0 86 -51 138.5t-134 52.5z M217 570h-68q4 46 30.5 73.5t64.5 27.5q30 0 141 -34q9 -3 16 -3q23 0 31 33h71q-2 -44 -29.5 -72.5t-66.5 -28.5q-23 0 -108 25q-32 9 -48 9t-23 -6.5t-11 -23.5z" glyph-name="otilde"/>
<glyph unicode="ö" horiz-adv-x="652" d="M328 508q127 0 204.5 -73.5t77.5 -195.5q0 -113 -79 -184.5t-204 -71.5q-127 0 -205.5 73.5t-78.5 191.5q0 115 79.5 187.5t205.5 72.5zM330 435q-86 0 -139 -52.5t-53 -137.5q0 -90 52 -138q54 -51 140 -51q84 0 134.5 51.5t50.5 136.5q0 86 -51 138.5t-134 52.5z M166 577v90h90v-90h-90zM396 577v90h90v-90h-90z" glyph-name="odieresis"/>
<glyph unicode="÷" d="M549 371v-70h-440v70h440zM329 214q20 0 35.5 -15.5t15.5 -36.5t-15 -36.5t-37 -15.5t-37 15.5t-15 36.5q0 22 15.5 37t37.5 15zM329 562q20 0 35.5 -15.5t15.5 -36.5t-15.5 -36.5t-36.5 -15.5q-22 0 -37 15.5t-15 36.5q0 22 15.5 37t37.5 15z" glyph-name="divide"/>
<glyph unicode="ø" horiz-adv-x="652" d="M15 36l70 64q-42 72 -42 143q0 119 78.5 192t206.5 73q89 0 165 -43l75 67l54 -58l-70 -61q57 -78 57 -175q0 -113 -78.5 -184t-202.5 -71q-111 0 -188 59l-72 -66zM152 160l277 248q-40 27 -100 27q-86 0 -138.5 -53.5t-52.5 -140.5q0 -39 14 -81zM486 352l-284 -254 q54 -42 127 -42q83 0 133.5 51.5t50.5 136.5q0 62 -27 108z" glyph-name="oslash"/>
<glyph unicode="ù" horiz-adv-x="617" d="M550 491v-491h-87v89q-43 -57 -87.5 -80t-113.5 -23q-140 0 -180 89q-10 22 -12.5 46t-2.5 87v283h86v-273q0 -70 12 -98q25 -61 126 -61q116 0 154 74q18 32 18 114v244h87zM390 567h-73l-129 113h140z" glyph-name="ugrave"/>
<glyph unicode="ú" horiz-adv-x="617" d="M550 491v-491h-87v89q-43 -57 -87.5 -80t-113.5 -23q-140 0 -180 89q-10 22 -12.5 46t-2.5 87v283h86v-273q0 -70 12 -98q25 -61 126 -61q116 0 154 74q18 32 18 114v244h87zM234 567l62 113h140l-129 -113h-73z" glyph-name="uacute"/>
<glyph unicode="û" horiz-adv-x="617" d="M550 491v-491h-87v89q-43 -57 -87.5 -80t-113.5 -23q-140 0 -180 89q-10 22 -12.5 46t-2.5 87v283h86v-273q0 -70 12 -98q25 -61 126 -61q116 0 154 74q18 32 18 114v244h87zM141 570l112 107h114l110 -107h-107l-63 64l-65 -64h-101z" glyph-name="ucircumflex"/>
<glyph unicode="ü" horiz-adv-x="617" d="M550 491v-491h-87v89q-43 -57 -87.5 -80t-113.5 -23q-140 0 -180 89q-10 22 -12.5 46t-2.5 87v283h86v-273q0 -70 12 -98q25 -61 126 -61q116 0 154 74q18 32 18 114v244h87zM148 577v90h90v-90h-90zM378 577v90h90v-90h-90z" glyph-name="udieresis"/>
<glyph unicode="ý" horiz-adv-x="558" d="M3 491h103l175 -400l176 400h97l-260 -566q-24 -53 -60.5 -75t-101.5 -22q-27 0 -67 4v80q28 -11 57 -11q48 0 70 18.5t46 77.5zM204 567l62 113h140l-129 -113h-73z" glyph-name="yacute"/>
<glyph unicode="þ" horiz-adv-x="666" d="M153 -162h-86v829h86v-263q30 48 84 74.5t122 26.5q116 0 190.5 -73t74.5 -187q0 -115 -74 -187t-190 -72q-141 0 -207 107v-255zM342 432q-85 0 -139 -52t-54 -132q0 -82 55 -135.5t139 -53.5q82 0 134 50.5t52 129.5q0 88 -51 140.5t-136 52.5z" glyph-name="thorn"/>
</font>
</defs>
</svg>
