<?xml version="1.0" encoding="UTF-8" standalone="no"?>
<!DOCTYPE svg  PUBLIC '-//W3C//DTD SVG 1.1//EN'  'http://www.w3.org/Graphics/SVG/1.1/DTD/svg11.dtd'>
<svg xmlns="http://www.w3.org/2000/svg" version="1.1">
<defs>
<font id="NimbusSansDOT-Bold" horiz-adv-x="620">
<font-face x-height="487" underline-thickness="79" cap-height="667" underline-position="-178" font-family="Nimbus Sans D OT" font-weight="700" descent="-200" unicode-range="U+0020-00FE" units-per-em="1000" bbox="-18 -208 897 895" panose-1="2 0 0 0 0 0 0 0 0 0" ascent="800"/>
<missing-glyph/>
<glyph horiz-adv-x="250" glyph-name="space" unicode=" "/>
<glyph horiz-adv-x="250" glyph-name="space" unicode=" "/>
<glyph d="M67 128h133v-128h-133v128zM67 667h131v-156l-36 -317h-61l-34 328v145z" horiz-adv-x="266" glyph-name="exclam" unicode="!"/>
<glyph d="M154 399h-89l-22 268h133zM333 399h-89l-21 268h132z" horiz-adv-x="398" glyph-name="quotedbl" unicode='&quot;'/>
<glyph d="M593 294l-16 -108h-103l-30 -186h-126l32 186h-94l-30 -186h-120l30 186h-103l16 108h103l15 92h-102l16 108h102l27 173h122l-29 -173h95l28 173h123l-28 -173h101l-16 -108h-101l-15 -92h103zM381 386h-93l-14 -92h93z" horiz-adv-x="656" glyph-name="numbersign" unicode="#"/>
<glyph d="M283 750h60v-64q97 -6 155.5 -60t68.5 -146h-124q-5 42 -31 68.5t-69 31.5v-181q108 -22 156 -47q88 -48 88 -154q0 -89 -64.5 -146t-179.5 -69v-81h-60v81q-115 7 -180 65t-70 157h128q4 -55 33.5 -82.5t88.5 -32.5v194q-112 28 -153 52q-83 46 -83 146q0 87 64 142 t172 62v64zM283 413v167q-35 -4 -59 -15q-46 -25 -46 -69q0 -19 12 -37t32 -27q12 -5 61 -19zM343 271v-181q51 6 80.5 30t29.5 59q0 47 -43 70q-22 11 -67 22z" glyph-name="dollar" unicode="$"/>
<glyph d="M187 677q69 0 108 -47.5t39 -130.5q0 -85 -39 -132.5t-110 -47.5q-67 0 -106 48t-39 131q0 84 39 131.5t108 47.5zM187 608q-61 0 -61 -110t60 -110q62 0 62 111q0 109 -61 109zM497 667h63l-272 -667h-65zM601 357q69 0 108 -47.5t39 -130.5q0 -85 -39 -132.5 t-110 -47.5q-67 0 -106 48t-39 131q0 84 39 131.5t108 47.5zM601 288q-61 0 -61 -110t60 -110q62 0 62 111q0 109 -61 109z" horiz-adv-x="788" glyph-name="percent" unicode="%"/>
<glyph d="M470 338h107q-21 -115 -80 -194l110 -144h-137l-46 61q-86 -80 -202 -80q-84 0 -141.5 53t-57.5 132q0 131 167 208q-43 52 -58.5 84.5t-15.5 67.5q0 63 49.5 108.5t119.5 45.5q73 0 123.5 -47.5t50.5 -115.5q0 -101 -119 -169l91 -119q31 47 39 109zM253 467l29 -42 q70 53 70 95q0 25 -18.5 42t-44.5 17q-25 0 -42 -15.5t-17 -37.5q0 -27 23 -59zM361 144l-111 145q-58 -35 -81.5 -62t-23.5 -60q0 -34 24 -57.5t59 -23.5q54 0 133 58z" horiz-adv-x="589" glyph-name="ampersand" unicode="&amp;"/>
<glyph d="M154 399h-89l-22 268h133z" horiz-adv-x="219" glyph-name="quotesingle" unicode="&apos;"/>
<glyph d="M191 667h97q-53 -73 -83 -173.5t-30 -205.5q0 -206 120 -395h-104q-69 99 -107.5 205t-38.5 196q0 176 146 373z" horiz-adv-x="345" glyph-name="parenleft" unicode="("/>
<glyph d="M155 -107h-98q53 73 83 173.5t30 205.5q0 206 -120 395h105q68 -99 106.5 -205t38.5 -196q0 -177 -145 -373z" horiz-adv-x="345" glyph-name="parenright" unicode=")"/>
<glyph d="M162 560v107h78v-107l101 33l24 -74l-101 -33l63 -86l-63 -46l-63 86l-63 -86l-63 46l63 86l-101 33l24 74z" horiz-adv-x="402" glyph-name="asterisk" unicode="*"/>
<glyph d="M60 388h203v212h94v-212h203v-90h-203v-211h-94v211h-203v90z" glyph-name="plus" unicode="+"/>
<glyph d="M60 128h133v-105q0 -51 -7 -77t-27 -52q-38 -50 -99 -57v40q78 32 78 115v8h-78v128z" horiz-adv-x="253" glyph-name="comma" unicode=","/>
<glyph d="M0 304h253v-109h-253v109z" horiz-adv-x="253" glyph-name="hyphen" unicode="-"/>
<glyph d="M0 304h253v-109h-253v109z" horiz-adv-x="253" glyph-name="hyphen" unicode="­"/>
<glyph d="M60 128h133v-128h-133v128z" horiz-adv-x="253" glyph-name="period" unicode="."/>
<glyph d="M307 667h87l-292 -774h-87z" horiz-adv-x="439" glyph-name="slash" unicode="/"/>
<glyph d="M311 667q107 0 178 -71q93 -88 93 -269t-93 -269q-73 -71 -178 -71q-106 0 -179 71q-93 90 -93 274q0 174 93 264q71 71 179 71zM311 566q-72 0 -107 -53q-37 -55 -37 -182q0 -135 37 -190q35 -53 107 -53q71 0 106 53q37 54 37 186q0 133 -37 186q-35 53 -106 53z" glyph-name="zero" unicode="0"/>
<glyph d="M427 660v-660h-129v457h-168v81q168 3 185 122h112z" glyph-name="one" unicode="1"/>
<glyph d="M547 101v-101h-475q8 83 48.5 143.5t133.5 127.5q89 66 113 92q39 39 39 93q0 49 -28 79t-74 30q-32 0 -57.5 -16t-38.5 -44q-13 -29 -13 -72h-118q5 98 39 145q29 42 79.5 65.5t110.5 23.5q101 0 164.5 -60t63.5 -155t-69 -158q-32 -29 -158 -116q-42 -28 -56.5 -42.5 t-22.5 -34.5h319z" glyph-name="two" unicode="2"/>
<glyph d="M192 451h-114q7 87 46 137q64 79 182 79q97 0 161 -51.5t64 -128.5q0 -47 -31 -83.5t-86 -54.5q69 -11 108 -53.5t39 -107.5q0 -88 -71.5 -144.5t-184.5 -56.5q-112 0 -177.5 61t-67.5 168h120q16 -128 131 -128q53 0 87.5 30t34.5 76q0 50 -35.5 78.5t-96.5 28.5 q-4 0 -8.5 -0.5t-12.5 -1t-15 -0.5v88q59 0 91 14q55 24 55 78q0 38 -29 62t-76 24q-50 0 -78 -27.5t-36 -86.5z" glyph-name="three" unicode="3"/>
<glyph d="M484 660v-425h94v-93h-94v-142h-122v142h-306v129l300 389h128zM362 235v284l-208 -284h208z" glyph-name="four" unicode="4"/>
<glyph d="M160 653h376v-101h-290l-27 -153q60 44 134 44q95 0 160 -64.5t65 -159.5q0 -101 -74 -166.5t-187 -65.5q-142 0 -211 94q-28 38 -36 99h121q21 -92 122 -92q61 0 98.5 35.5t37.5 91.5q0 55 -38 91t-97 36q-57 0 -101 -41h-117z" glyph-name="five" unicode="5"/>
<glyph d="M561 496h-118q-11 73 -103 73q-84 0 -124 -71q-24 -45 -27 -133q59 79 157 79q95 0 160.5 -64.5t65.5 -158.5q0 -100 -70.5 -167t-175.5 -67q-103 0 -174 68q-91 87 -91 257q0 167 71.5 261t198.5 94q94 0 155 -45.5t75 -125.5zM320 346q-56 0 -90.5 -34.5t-34.5 -91.5 q0 -58 36.5 -96.5t92.5 -38.5q54 0 90.5 37t36.5 92q0 60 -36 96t-95 36z" glyph-name="six" unicode="6"/>
<glyph d="M80 653h467v-105q-101 -98 -168.5 -255t-67.5 -293h-142q5 145 72.5 293t180.5 259h-342v101z" glyph-name="seven" unicode="7"/>
<glyph d="M190 357q-48 19 -68 36q-47 36 -47 102q0 77 65.5 124.5t170.5 47.5q104 0 169.5 -48t65.5 -124q0 -66 -47 -102q-20 -17 -68 -36q63 -17 91 -42q49 -44 49 -118q0 -90 -74.5 -150t-186.5 -60q-111 0 -185.5 60t-74.5 150q0 81 57 125q26 21 83 35zM312 576 q-55 0 -86 -25t-31 -69q0 -43 31 -68t84 -25t84.5 25t31.5 68t-30.5 68.5t-83.5 25.5zM311 310q-63 0 -100 -30t-37 -81q0 -49 38 -81.5t97 -32.5q61 0 99.5 32t38.5 82t-37 80.5t-99 30.5z" glyph-name="eight" unicode="8"/>
<glyph d="M73 148h122q10 -33 32 -48t62 -15q83 0 117 64q23 43 27 148q-48 -91 -158 -91q-98 0 -165 65.5t-67 162.5q0 100 72.5 166.5t180.5 66.5q116 0 186 -72q81 -83 81 -257q0 -169 -68 -260t-194 -91q-102 0 -171 54q-50 38 -57 107zM298 569q-56 0 -94 -38.5t-38 -93.5 q0 -56 37.5 -94.5t92.5 -38.5q58 0 96.5 37t38.5 92q0 61 -37 98.5t-96 37.5z" glyph-name="nine" unicode="9"/>
<glyph d="M60 487h133v-128h-133v128zM60 128h133v-128h-133v128z" horiz-adv-x="253" glyph-name="colon" unicode=":"/>
<glyph d="M60 487h133v-128h-133v128zM60 128h133v-105q0 -51 -7 -77t-27 -52q-38 -50 -99 -57v40q78 32 78 115v8h-78v128z" horiz-adv-x="253" glyph-name="semicolon" unicode=";"/>
<glyph d="M466 610v-130l-295 -147l295 -146v-130l-433 222v110z" horiz-adv-x="500" glyph-name="less" unicode="&lt;"/>
<glyph d="M60 461h500v-87h-500v87zM60 292h500v-87h-500v87z" glyph-name="equal" unicode="="/>
<glyph d="M34 610l433 -221v-110l-433 -222v130l294 146l-294 147v130z" horiz-adv-x="500" glyph-name="greater" unicode="&gt;"/>
<glyph d="M213 128h133v-128h-133v128zM140 460h-113q4 86 50 139q69 81 191 81q104 0 171 -57.5t67 -145.5q0 -49 -23 -86t-76 -76q-48 -35 -60.5 -55t-12.5 -63h-111q-1 73 14.5 103.5t72.5 71.5q42 31 57.5 53.5t15.5 52.5q0 45 -32 72.5t-84 27.5q-55 0 -88 -31t-39 -87z" horiz-adv-x="532" glyph-name="question" unicode="?"/>
<glyph d="M477 493h84l-38 -195q-7 -35 -7 -44q0 -35 25 -35q32 0 60 52t28 113q0 98 -67 160t-173 62q-117 0 -197 -80.5t-80 -198.5q0 -115 76 -193q70 -73 199 -73q102 0 190 32l19 -75q-91 -33 -208 -33q-155 0 -252 91q-49 47 -77 114t-28 138q0 148 102.5 250.5t251.5 102.5 q137 0 227.5 -84.5t90.5 -212.5q0 -92 -50 -162.5t-115 -70.5q-29 0 -50.5 15.5t-27.5 41.5q-20 -30 -54 -47.5t-71 -17.5q-61 0 -101.5 45.5t-40.5 113.5q0 81 52.5 141.5t123.5 60.5q69 0 100 -53zM380 415q-37 0 -64.5 -33t-27.5 -77q0 -35 19 -56.5t50 -21.5 q36 0 63 33.5t27 78.5q0 34 -18.5 55t-48.5 21z" horiz-adv-x="733" glyph-name="at" unicode="@"/>
<glyph d="M182 142l-45 -142h-137l235 667h147l226 -667h-137l-45 142h-244zM212 239h185l-93 299z" horiz-adv-x="608" glyph-name="A" unicode="A"/>
<glyph d="M71 0v667h304q91 0 143 -35q69 -47 69 -133q0 -108 -117 -143q67 -14 104 -57.5t37 -107.5q0 -54 -26.5 -100.5t-69.5 -68.5t-130 -22h-314zM203 396h123q55 0 83 12q51 23 51 75q0 54 -55 72q-22 7 -75 7h-127v-166zM203 105h129q64 0 93 12q54 21 54 83q0 67 -63 89 q-26 9 -82 9h-131v-193z" horiz-adv-x="647" glyph-name="B" unicode="B"/>
<glyph d="M529 219h128q-8 -68 -47 -121q-83 -111 -244 -111q-136 0 -221 84q-102 100 -102 260q0 155 90 252t234 97q118 0 192.5 -59t97.5 -169h-132q-14 57 -53 87.5t-100 30.5q-86 0 -141.5 -66.5t-55.5 -169.5q0 -106 63 -178q52 -59 133 -59q125 0 158 122z" horiz-adv-x="684" glyph-name="C" unicode="C"/>
<glyph d="M71 0v667h228q69 0 103 -5t67 -21q78 -37 122.5 -121t44.5 -195q0 -120 -49.5 -202t-137.5 -108q-49 -15 -139 -15h-239zM203 105h105q50 0 76 6.5t52 25.5q68 49 68 182q0 177 -105 225q-38 18 -119 18h-77v-457z" horiz-adv-x="678" glyph-name="D" unicode="D"/>
<glyph d="M71 0v667h491v-105h-359v-158h314v-105h-314v-194h366v-105h-498z" horiz-adv-x="609" glyph-name="E" unicode="E"/>
<glyph d="M71 0v667h477v-105h-345v-172h296v-105h-296v-285h-132z" horiz-adv-x="573" glyph-name="F" unicode="F"/>
<glyph d="M382 361h276v-361h-88l-13 91q-82 -104 -211 -104q-130 0 -216.5 98t-86.5 245q0 155 89.5 252.5t231.5 97.5q112 0 189 -60.5t96 -163.5h-124q-31 114 -154 114q-85 0 -140.5 -67t-55.5 -170q0 -104 53.5 -170t137.5 -66q71 0 122 44.5t60 114.5h-166v105z" horiz-adv-x="716" glyph-name="G" unicode="G"/>
<glyph d="M71 667h132v-267h279v267h132v-667h-132v295h-279v-295h-132v667z" horiz-adv-x="684" glyph-name="H" unicode="H"/>
<glyph d="M71 667h132v-667h-132v667z" horiz-adv-x="273" glyph-name="I" unicode="I"/>
<glyph d="M307 667h132v-458q0 -96 -29 -139q-55 -83 -186 -83q-141 0 -190 93q-15 28 -19.5 58t-4.5 105h121q0 -78 5 -96q6 -23 29 -36.5t57 -13.5q67 0 81 53q4 17 4 65v452z" horiz-adv-x="503" glyph-name="J" unicode="J"/>
<glyph d="M203 236v-236h-132v667h132v-280l258 280h166l-260 -269l280 -398h-156l-213 315z" horiz-adv-x="639" glyph-name="K" unicode="K"/>
<glyph d="M203 105h334v-105h-466v667h132v-562z" horiz-adv-x="550" glyph-name="L" unicode="L"/>
<glyph d="M472 0h-132l-149 507v-507h-120v667h191l143 -495l144 495h191v-667h-120v507z" horiz-adv-x="810" glyph-name="M" unicode="M"/>
<glyph d="M71 667h141l281 -465v465h132v-667h-137l-285 474v-474h-132v667z" horiz-adv-x="695" glyph-name="N" unicode="N"/>
<glyph d="M362 680q139 0 228.5 -97t89.5 -249t-89 -249.5t-229 -97.5q-142 0 -230.5 97.5t-88.5 254.5q0 148 90 244.5t229 96.5zM362 570q-83 0 -135 -64.5t-52 -168.5q0 -109 51 -174.5t136 -65.5q83 0 134.5 65.5t51.5 171.5t-51.5 171t-134.5 65z" horiz-adv-x="724" glyph-name="O" unicode="O"/>
<glyph d="M203 236v-236h-132v667h265q84 0 132 -24q51 -26 81 -78.5t30 -116.5q0 -71 -37 -124.5t-100 -73.5q-44 -14 -116 -14h-123zM203 341h108q65 0 100.5 27.5t35.5 78.5q0 36 -16.5 64t-45.5 40q-24 11 -89 11h-93v-221z" horiz-adv-x="602" glyph-name="P" unicode="P"/>
<glyph d="M677 32l-66 -71l-78 74q-80 -48 -172 -48q-140 0 -229 97.5t-89 249.5t89.5 249t229.5 97q139 0 228.5 -97.5t89.5 -248.5q0 -133 -76 -235zM454 239l59 -54q35 66 35 149q0 106 -51.5 171t-134.5 65q-84 0 -135.5 -65t-51.5 -171t51.5 -171.5t135.5 -65.5q43 0 83 20 l-56 52z" horiz-adv-x="724" glyph-name="Q" unicode="Q"/>
<glyph d="M203 270v-270h-132v667h274q99 0 142 -16q50 -19 80 -64t30 -102q0 -42 -18 -78t-49 -55q-33 -21 -92 -37q90 -9 120 -69q9 -23 12.5 -45.5t7.5 -94.5q4 -49 7.5 -67t13.5 -39h-125q-15 24 -17 83q-4 109 -35 148t-115 39h-104zM203 368h138q62 0 95 25.5t33 72.5 q0 67 -58 88q-24 8 -71 8h-137v-194z" horiz-adv-x="635" glyph-name="R" unicode="R"/>
<glyph d="M566 476h-123q-9 52 -42.5 75.5t-96.5 23.5q-57 0 -90.5 -22t-33.5 -59q0 -47 43 -66q24 -11 138 -38q68 -16 104.5 -30.5t61.5 -36.5q56 -50 56 -129q0 -92 -75.5 -149.5t-196.5 -57.5q-124 0 -198 58t-80 161h127q3 -48 26 -73q38 -41 122 -41q67 0 105.5 24t38.5 65 q0 35 -26 53q-26 19 -145 49q-125 32 -165 59q-67 47 -67 138q0 90 70 145t185 55q138 0 206 -74q39 -42 56 -130z" glyph-name="S" unicode="S"/>
<glyph d="M356 562v-562h-132v562h-211v105h552v-105h-209z" horiz-adv-x="579" glyph-name="T" unicode="T"/>
<glyph d="M465 667h132v-379q0 -85 -5.5 -121.5t-22.5 -66.5q-61 -113 -239 -113q-192 0 -247 129q-19 47 -19 172v379h132v-368q0 -108 16 -141q13 -28 45.5 -44.5t73.5 -16.5q45 0 78 19t44 52q12 32 12 131v368z" horiz-adv-x="661" glyph-name="U" unicode="U"/>
<glyph d="M0 667h142l150 -518l149 518h143l-229 -667h-126z" horiz-adv-x="584" glyph-name="V" unicode="V"/>
<glyph d="M0 667h135l132 -513l105 513h135l103 -513l125 513h130l-193 -667h-125l-109 512l-111 -512h-128z" horiz-adv-x="865" glyph-name="W" unicode="W"/>
<glyph d="M293 251l-145 -251h-148l218 353l-196 314h148l123 -213l119 213h149l-194 -314l222 -353h-149z" horiz-adv-x="589" glyph-name="X" unicode="X"/>
<glyph d="M-7 667h141l143 -285l143 285h141l-218 -412v-255h-132v255z" horiz-adv-x="555" glyph-name="Y" unicode="Y"/>
<glyph d="M202 105h381v-105h-559v98l372 464h-351v105h528v-100z" horiz-adv-x="607" glyph-name="Z" unicode="Z"/>
<glyph d="M294 567h-111v-574h111v-100h-233v774h233v-100z" horiz-adv-x="348" glyph-name="bracketleft" unicode="["/>
<glyph d="M132 667l292 -774h-87l-292 774h87z" horiz-adv-x="439" glyph-name="backslash" unicode="\"/>
<glyph d="M53 -7h111v574h-111v100h233v-774h-233v100z" horiz-adv-x="348" glyph-name="bracketright" unicode="]"/>
<glyph d="M136 357h-117l158 313h145l158 -313h-117l-114 225z" horiz-adv-x="500" glyph-name="asciicircum" unicode="^"/>
<glyph d="M0 -61h500v-79h-500v79z" horiz-adv-x="500" glyph-name="underscore" unicode="_"/>
<glyph d="M244 682l46 -122h-80l-99 122h133z" horiz-adv-x="500" glyph-name="grave" unicode="`"/>
<glyph d="M182 342h-114q8 62 35 95q54 63 176 63q153 0 194 -87q18 -35 18 -106v-204q0 -44 3 -62.5t13 -40.5h-118l-14 45q-75 -58 -156 -58q-74 0 -127 44t-53 105q0 85 91 128q52 26 161 39q42 4 59 15t17 34q0 28 -24.5 45.5t-64.5 17.5q-43 0 -68 -19t-28 -54zM372 189v67 q-26 -17 -77 -29q-75 -18 -103 -36t-28 -48q0 -26 23.5 -42.5t61.5 -16.5q56 0 93 29q30 23 30 76z" horiz-adv-x="549" glyph-name="a" unicode="a"/>
<glyph d="M63 667h122v-236q57 69 143 69q91 0 152 -74t61 -184q0 -111 -60.5 -183t-153.5 -72q-43 0 -75 14.5t-67 51.5v-53h-122v667zM300 398q-54 0 -87.5 -43t-33.5 -113t33.5 -114t87.5 -44q53 0 84.5 43t31.5 114q0 70 -32 113.5t-84 43.5z" horiz-adv-x="579" glyph-name="b" unicode="b"/>
<glyph d="M384 172h117q-13 -86 -72 -135.5t-150 -49.5q-105 0 -172.5 71.5t-67.5 183.5t67.5 185t170.5 73q85 0 142 -46t77 -132h-119q-24 81 -97 81q-52 0 -84 -44.5t-32 -117.5t31.5 -115t85.5 -42q84 0 103 88z" horiz-adv-x="532" glyph-name="c" unicode="c"/>
<glyph d="M394 667h122v-667h-122v56q-39 -39 -69.5 -54t-71.5 -15q-94 0 -154.5 72t-60.5 182q0 109 59.5 184t146.5 75q82 0 150 -68v235zM282 403q-55 0 -87 -43.5t-32 -117.5q0 -70 32.5 -114t84.5 -44q53 0 86.5 44.5t33.5 116.5q0 70 -33 114t-85 44z" horiz-adv-x="579" glyph-name="d" unicode="d"/>
<glyph d="M520 215h-356q7 -64 37.5 -97.5t82.5 -33.5q72 0 105 62h126q-22 -73 -84 -116t-145 -43q-109 0 -178 71.5t-69 184.5q0 115 65.5 186t171.5 71q112 0 177 -76t67 -209zM167 295h227q-7 53 -36 82t-78 29q-47 0 -76.5 -29t-36.5 -82z" horiz-adv-x="558" glyph-name="e" unicode="e"/>
<glyph d="M196 487h89v-77h-89v-410h-122v410h-62v77h62v29q0 46 19 81.5t52 50.5q37 18 126 19h14v-95q-52 0 -70.5 -13t-18.5 -49v-23z" horiz-adv-x="298" glyph-name="f" unicode="f"/>
<glyph d="M403 487h113v-431q0 -57 -5.5 -82.5t-23.5 -49.5q-61 -84 -199 -84q-112 0 -174 56q-34 30 -45 86h124q14 -55 88 -55t100 47q14 25 14 82v45q-53 -62 -138 -62q-98 0 -158 63t-60 165q0 103 59 168t153 65q102 0 152 -72v59zM282 403q-54 0 -86 -37.5t-32 -99.5 q0 -61 31.5 -98t83.5 -37q56 0 88 36t32 99q0 61 -32.5 99t-84.5 38z" horiz-adv-x="579" glyph-name="g" unicode="g"/>
<glyph d="M63 667h122v-248q33 43 66 62t77 19q46 0 84.5 -21t60.5 -57q26 -43 26 -124v-298h-122v273q0 58 -22.5 89t-65.5 31q-54 0 -83 -42q-21 -29 -21 -93v-258h-122v667z" horiz-adv-x="562" glyph-name="h" unicode="h"/>
<glyph d="M63 670h122v-111h-122v111zM63 487h122v-487h-122v487z" horiz-adv-x="247" glyph-name="i" unicode="i"/>
<glyph d="M67 487h122v-499q0 -61 -2 -76.5t-10 -29.5q-14 -25 -39 -35t-72 -10h-80v97q56 2 69 16t12 73v464zM67 670h122v-111h-122v111z" horiz-adv-x="251" glyph-name="j" unicode="j"/>
<glyph d="M185 158v-158h-122v667h122v-375l177 195h146l-176 -184l203 -303h-155l-133 222z" horiz-adv-x="535" glyph-name="k" unicode="k"/>
<glyph d="M63 667h122v-667h-122v667z" horiz-adv-x="247" glyph-name="l" unicode="l"/>
<glyph d="M63 487h122v-61q46 74 135 74q100 0 145 -90q54 90 154 90q54 0 94 -29t54 -78q10 -30 10 -102v-291h-122v278q0 50 -10 73q-20 43 -71 43q-28 0 -50.5 -14.5t-32.5 -38.5q-10 -23 -10 -69v-272h-122v278q0 49 -8 68q-22 47 -73 47q-56 0 -82 -49q-11 -21 -11 -66v-278 h-122v487z" horiz-adv-x="840" glyph-name="m" unicode="m"/>
<glyph d="M63 487h122v-68q34 44 66.5 62.5t76.5 18.5q47 0 88 -23.5t61 -62.5q20 -36 20 -101v-313h-122v281q0 51 -13 72q-25 40 -75 40q-49 0 -75.5 -31.5t-26.5 -89.5v-272h-122v487z" horiz-adv-x="560" glyph-name="n" unicode="n"/>
<glyph d="M292 500q109 0 180.5 -72.5t71.5 -183.5q0 -113 -71.5 -185t-184.5 -72q-107 0 -178 73t-71 184t71.5 183.5t181.5 72.5zM292 403q-57 0 -92.5 -43.5t-35.5 -113.5q0 -74 35 -118t93 -44q57 0 92 44t35 116q0 71 -35 115t-92 44z" horiz-adv-x="582" glyph-name="o" unicode="o"/>
<glyph d="M63 487h122v-64q28 41 60 59t79 18q92 0 152 -73t60 -186q0 -112 -58.5 -183t-150.5 -71q-45 0 -76.5 18t-65.5 62v-230h-122v650zM300 403q-56 0 -88.5 -43.5t-32.5 -117.5q0 -70 32.5 -114t85.5 -44q51 0 82.5 43.5t31.5 113.5q0 72 -31 117t-80 45z" horiz-adv-x="574" glyph-name="p" unicode="p"/>
<glyph d="M396 487h122v-650h-122v231q-46 -82 -147 -82q-93 0 -151.5 72t-58.5 186q0 107 54 176q63 80 159 80q82 0 144 -67v54zM284 403q-55 0 -87.5 -43t-32.5 -115q0 -73 33 -117.5t87 -44.5q52 0 84.5 44.5t32.5 116.5q0 71 -32.5 115t-84.5 44z" horiz-adv-x="580" glyph-name="q" unicode="q"/>
<glyph d="M63 487h122v-67q49 77 121 77q16 0 32 -2v-105q-8 1 -21 1q-61 0 -96.5 -38.5t-35.5 -105.5v-247h-122v487z" horiz-adv-x="353" glyph-name="r" unicode="r"/>
<glyph d="M442 342h-107q-18 68 -97 68q-39 0 -63.5 -15.5t-24.5 -40.5q0 -24 26 -35q22 -10 108 -25q92 -16 127 -43q46 -38 46 -105q0 -71 -57 -115t-150 -44q-98 0 -156 44t-66 125h112q15 -79 109 -79q42 0 67.5 16.5t25.5 44.5q0 22 -17 33t-66 19q-116 21 -161 50 q-59 38 -59 103q0 69 54.5 113t140.5 44q89 0 145 -42.5t63 -115.5z" horiz-adv-x="485" glyph-name="s" unicode="s"/>
<glyph d="M195 487h92v-77h-92v-247q0 -45 10 -58q12 -17 45 -17l34 1l10 1v-90h-87q-52 0 -71 8q-48 19 -58 72q-5 24 -5 83v247h-68v77h68v162h122v-162z" horiz-adv-x="314" glyph-name="t" unicode="t"/>
<glyph d="M493 487v-487h-122v50q-69 -63 -144 -63q-56 0 -97.5 31.5t-57.5 84.5q-9 32 -9 112v272h122v-265q0 -55 7 -76q17 -52 79 -52q50 0 78 36q22 28 22 85v272h122z" horiz-adv-x="556" glyph-name="u" unicode="u"/>
<glyph d="M3 487h129l103 -344l99 344h123l-161 -487h-123z" horiz-adv-x="459" glyph-name="v" unicode="v"/>
<glyph d="M3 487h124l90 -340l85 340h112l92 -340l82 340h124l-142 -487h-116l-94 338l-93 -338h-116z" horiz-adv-x="714" glyph-name="w" unicode="w"/>
<glyph d="M333 487h134l-156 -226l171 -261h-140l-103 163l-108 -163h-133l176 256l-152 231h140l84 -144z" horiz-adv-x="480" glyph-name="x" unicode="x"/>
<glyph d="M351 487h125l-177 -524q-29 -84 -75 -109q-21 -11 -39 -14t-66 -3h-62v95h36q40 0 56 12q28 18 28 58q0 32 -23 95l-151 390h133l112 -359z" horiz-adv-x="478" glyph-name="y" unicode="y"/>
<glyph d="M47 487h374v-102l-261 -292h276v-93h-415v96l262 298h-236v93z" horiz-adv-x="465" glyph-name="z" unicode="z"/>
<glyph d="M205 487v-83q0 -50 -12.5 -75.5t-48.5 -48.5q35 -22 48 -49t13 -76v-83q1 -35 4 -45.5t14 -17.5q13 -9 57 -9h21v-107h-60q-87 0 -123 32.5t-36 111.5v109q0 42 -12.5 61.5t-42.5 26.5v101q55 11 55 78v111q0 78 36 110.5t123 32.5h60v-107h-21q-46 0 -59 -10 q-10 -8 -12.5 -18.5t-3.5 -44.5z" horiz-adv-x="347" glyph-name="braceleft" unicode="{"/>
<glyph d="M184 667h131v-834h-131v834z" horiz-adv-x="500" glyph-name="bar" unicode="|"/>
<glyph d="M156 73v83q0 50 12.5 75.5t48.5 48.5q-35 22 -48 49t-13 76v83q-1 35 -4 45.5t-14 17.5q-14 9 -57 9h-21v107h60q87 0 123 -32.5t36 -111.5v-109q0 -42 12.5 -61.5t42.5 -26.5v-101q-55 -11 -55 -78v-111q0 -78 -36 -110.5t-123 -32.5h-60v107h21q46 0 59 10 q10 8 12.5 18.5t3.5 44.5z" horiz-adv-x="360" glyph-name="braceright" unicode="}"/>
<glyph d="M158 560l-65 53q56 130 144 130q38 0 111 -34q64 -29 86 -29t39.5 15t36.5 51l65 -54q-25 -55 -44 -78q-42 -53 -101 -53q-19 0 -37 6.5t-102 42.5q-35 15 -58 15q-22 0 -38.5 -14.5t-36.5 -50.5z" horiz-adv-x="667" glyph-name="asciitilde" unicode="~"/>
<glyph d="M200 432h-133v128h133v-128zM200 -107h-131v156l36 317h61l34 -328v-145z" horiz-adv-x="266" glyph-name="exclamdown" unicode="¡"/>
<glyph d="M350 658v-76q153 -21 184 -176h-117q-12 54 -67 74v-310q28 5 49 28.5t25 52.5h116q-8 -74 -61 -125t-129 -57v-76h-60v76q-209 44 -209 254q0 107 57 177.5t152 80.5v77h60zM290 170v310q-86 -33 -86 -156q0 -62 22.5 -102.5t63.5 -51.5z" glyph-name="cent" unicode="¢"/>
<glyph d="M282 356h203v-64h-178q7 -25 7 -44q0 -36 -16 -63.5t-61 -69.5q39 12 60 12q20 0 95 -19q22 -6 44 -6q67 0 104 51l57 -99q-55 -67 -155 -67q-38 0 -92 17q-64 19 -90 19q-45 0 -92 -40l-70 100q56 39 78 70.5t22 73.5q0 31 -15 65h-106v64h79q-39 71 -39 128 q0 85 67.5 140.5t170.5 55.5q129 0 193 -86q37 -49 40 -128h-119q-8 107 -113 107q-49 0 -80 -26t-31 -66q0 -33 37 -125z" glyph-name="sterling" unicode="£"/>
<glyph d="M26 102l101 101q-45 66 -45 139q0 70 46 138l-103 102l65 66l103 -103q67 45 141 45q71 0 138 -44l101 101l65 -65l-100 -101q46 -71 46 -140q0 -70 -44 -137l101 -102l-64 -65l-102 101q-68 -46 -142 -46q-69 0 -141 46l-101 -101zM335 482q-60 0 -101.5 -41t-41.5 -100 q0 -58 41.5 -99.5t99.5 -41.5q59 0 100 41t41 100q0 58 -41 99.5t-98 41.5z" horiz-adv-x="667" glyph-name="currency" unicode="¤"/>
<glyph d="M26 667h141l145 -286l143 286h139l-147 -283h117v-64h-150l-35 -66h182v-64h-182v-190h-134v190h-182v64h182l-35 66h-147v64h113z" glyph-name="yen" unicode="¥"/>
<glyph d="M184 667h131v-347h-131v347zM184 153h131v-320h-131v320z" horiz-adv-x="500" glyph-name="brokenbar" unicode="¦"/>
<glyph d="M483 515h-111q-5 70 -72 70q-30 0 -48 -14.5t-18 -37.5q0 -34 46 -59q99 -51 127 -66q68 -36 94 -67.5t26 -76.5q0 -91 -89 -128q47 -43 47 -99q0 -70 -52.5 -113t-136.5 -43q-91 0 -142.5 46.5t-51.5 127.5h111q5 -42 24.5 -61t57.5 -19q31 0 50.5 16.5t19.5 42.5 q0 28 -28 50t-121 67q-89 44 -114 69q-41 39 -41 100q0 44 24.5 77.5t67.5 47.5q-38 41 -38 87q0 65 51.5 106.5t133.5 41.5t131.5 -45t51.5 -120zM214 390q-47 -14 -47 -59q0 -24 18 -38.5t96 -53.5q73 -37 92 -49q46 20 46 59q0 32 -52 59q-39 21 -142 76q-3 2 -11 6z" horiz-adv-x="589" glyph-name="section" unicode="§"/>
<glyph d="M94 673h116v-106h-116v106zM290 673h116v-106h-116v106z" horiz-adv-x="500" glyph-name="dieresis" unicode="¨"/>
<glyph d="M482 276h82q-7 -63 -54.5 -100t-121.5 -37q-81 0 -132 48q-62 57 -62 149q0 88 54.5 143.5t140.5 55.5q147 0 175 -135h-84q-16 67 -88 67q-50 0 -82 -36.5t-32 -93.5t31.5 -93.5t81.5 -36.5q73 0 91 69zM385 682q140 0 240.5 -103t100.5 -246q0 -144 -101.5 -246 t-244.5 -102t-245 102.5t-102 245.5q0 146 102 247.5t250 101.5zM384 623q-120 0 -203 -84t-83 -206q0 -119 83 -204t199 -85t198.5 85t82.5 205q0 118 -82 203.5t-195 85.5z" horiz-adv-x="759" glyph-name="copyright" unicode="©"/>
<glyph d="M133 469h-78q7 52 39 76t96 24q69 0 103 -28q31 -25 31 -89v-121q0 -40 12 -64h-81l-7 25q-46 -33 -95 -33q-47 0 -81 27t-34 65q0 51 58 79q34 15 101 22q44 5 44 26q0 15 -14.5 24.5t-37.5 9.5q-53 0 -56 -43zM244 382v33q-19 -9 -43 -14q-44 -10 -61.5 -20t-17.5 -26 q0 -14 13.5 -23t35.5 -9q34 0 56 16q17 13 17 43z" horiz-adv-x="374" glyph-name="ordfeminine" unicode="ª"/>
<glyph d="M188 432v-108l-89 -75l89 -78v-103l-148 127v105zM378 432v-108l-89 -75l89 -78v-103l-148 127v105z" horiz-adv-x="432" glyph-name="guillemotleft" unicode="«"/>
<glyph d="M339 0v172h-306v115h433v-287h-127z" horiz-adv-x="500" glyph-name="logicalnot" unicode="¬"/>
<glyph d="M303 298v-151h-84v380h164q58 0 85 -9q31 -11 49 -37t18 -59q0 -67 -80 -94q43 -13 54.5 -33t14.5 -85q3 -42 15 -63h-82q-9 14 -11 50q-2 60 -19.5 80.5t-65.5 20.5h-58zM303 360h78q72 0 72 52q0 50 -72 50h-78v-102zM385 682q140 0 240.5 -103t100.5 -246 q0 -144 -101.5 -246t-244.5 -102t-245 102.5t-102 245.5q0 146 102 247.5t250 101.5zM384 623q-120 0 -203 -84t-83 -206q0 -119 83 -204t199 -85t198.5 85t82.5 205q0 118 -82 203.5t-195 85.5z" horiz-adv-x="759" glyph-name="registered" unicode="®"/>
<glyph d="M207 674q58 0 99 -41.5t41 -100.5q0 -56 -41.5 -97t-98.5 -41q-58 0 -99 41t-41 99t41 99t99 41zM207 617q-35 0 -59 -24.5t-24 -58.5t24.5 -58.5t58.5 -24.5t58.5 24.5t24.5 57.5q0 35 -24 59.5t-59 24.5z" horiz-adv-x="413" glyph-name="degree" unicode="°"/>
<glyph d="M60 442h203v211h94v-211h203v-90h-203v-212h-94v212h-203v90zM60 91h500v-90h-500v90z" glyph-name="plusminus" unicode="±"/>
<glyph d="M350 333v-66h-302q6 52 31 88t84 77q56 40 70 54q23 23 23 53q0 27 -16.5 44t-43.5 17q-64 0 -64 -78h-80q4 62 25 91q38 54 120 54q64 0 104.5 -36.5t40.5 -93.5t-44 -96q-20 -18 -98 -69q-38 -25 -46 -39h196z" horiz-adv-x="398" glyph-name="twosuperior" unicode="²"/>
<glyph d="M128 533h-77q5 65 42 99.5t103 34.5q61 0 102 -31t41 -78q0 -25 -17 -47t-45 -33q80 -25 80 -97q0 -53 -45.5 -87.5t-116.5 -34.5q-72 0 -113.5 38t-41.5 104h81q4 -40 23 -58t55 -18q31 0 51.5 17t20.5 43q0 28 -21 44t-58 16q-1 0 -25 -2v59h2h3q86 2 86 51 q0 22 -17 35t-45 13q-31 0 -47 -16t-21 -52z" horiz-adv-x="398" glyph-name="threesuperior" unicode="³"/>
<glyph d="M257 682h133l-99 -122h-80z" horiz-adv-x="500" glyph-name="acute" unicode="´"/>
<glyph d="M228 -93v414q-6 -1 -13 -1q-79 0 -128.5 47.5t-49.5 123.5q0 50 21.5 89t60.5 60q51 27 147 27h233v-760h-102v668h-67v-668h-102z" horiz-adv-x="567" glyph-name="paragraph" unicode="¶"/>
<glyph d="M281 0l-38 -60q23 5 36 5q35 0 58.5 -19t23.5 -47q0 -40 -31.5 -63.5t-84.5 -23.5q-46 0 -105 22l18 39q43 -16 74 -16q20 0 33.5 10t13.5 26q0 15 -13 24.5t-33 9.5q-13 0 -33 -8l-19 19l54 82h46z" horiz-adv-x="500" glyph-name="cedilla" unicode="¸"/>
<glyph d="M275 663v-396h-87v270h-104v54q106 1 115 72h76z" horiz-adv-x="398" glyph-name="onesuperior" unicode="¹"/>
<glyph d="M197 569q69 0 114.5 -44t45.5 -111q0 -68 -45.5 -111.5t-116.5 -43.5q-68 0 -113 44t-45 111t45.5 111t114.5 44zM197 505q-34 0 -55 -25t-21 -65q0 -41 21 -66.5t55 -25.5t55 25.5t21 65.5q0 41 -21 66t-55 25z" horiz-adv-x="394" glyph-name="ordmasculine" unicode="º"/>
<glyph d="M244 68v109l89 75l-89 77v103l148 -127v-105zM54 68v109l89 75l-89 77v103l148 -127v-105z" horiz-adv-x="432" glyph-name="guillemotright" unicode="»"/>
<glyph d="M275 663v-396h-87v270h-104v54q106 1 115 72h76zM568 662h70l-278 -662h-70zM839 396v-250h58v-62h-58v-84h-83v84h-189v81l187 231h85zM756 146v154l-118 -154h118z" horiz-adv-x="926" glyph-name="onequarter" unicode="¼"/>
<glyph d="M275 663v-396h-87v270h-104v54q106 1 115 72h76zM568 662h70l-278 -662h-70zM878 66v-66h-302q6 53 31 89t84 77q56 40 70 54q23 23 23 53q0 27 -16.5 44t-43.5 17q-64 0 -64 -78h-80q4 61 25 91q39 53 120 53q64 0 104.5 -36.5t40.5 -92.5q0 -58 -44 -97 q-20 -17 -98 -68q-39 -27 -46 -40h196z" horiz-adv-x="926" glyph-name="onehalf" unicode="½"/>
<glyph d="M128 533h-77q5 65 42 99.5t103 34.5q61 0 102 -31t41 -78q0 -25 -17 -47t-45 -33q80 -25 80 -97q0 -53 -45.5 -87.5t-116.5 -34.5q-72 0 -113.5 38t-41.5 104h81q4 -40 23 -58t55 -18q31 0 51.5 17t20.5 43q0 28 -21 44t-58 16q-1 0 -25 -2v59h2h3q86 2 86 51 q0 22 -17 35t-45 13q-31 0 -47 -16t-21 -52zM567 662h71l-278 -662h-70zM838 396v-250h59v-62h-59v-84h-83v84h-189v81l187 231h85zM755 146v154l-118 -154h118z" horiz-adv-x="926" glyph-name="threequarters" unicode="¾"/>
<glyph d="M320 432h-133v128h133v-128zM392 100h114q-4 -85 -50 -139q-69 -81 -191 -81q-104 0 -171 57.5t-67 145.5q0 49 23 86t76 76q48 34 60.5 54.5t12.5 63.5h111q0 -74 -15 -104.5t-72 -70.5q-42 -31 -57.5 -53.5t-15.5 -53.5q0 -44 32 -71.5t84 -27.5q55 0 88 31t38 87z" horiz-adv-x="532" glyph-name="questiondown" unicode="¿"/>
<glyph d="M182 142l-45 -142h-137l235 667h147l226 -667h-137l-45 142h-244zM212 239h185l-93 299zM311 854l46 -122h-80l-99 122h133z" horiz-adv-x="608" glyph-name="Agrave" unicode="À"/>
<glyph d="M182 142l-45 -142h-137l235 667h147l226 -667h-137l-45 142h-244zM212 239h185l-93 299zM304 854h133l-99 -122h-80z" horiz-adv-x="608" glyph-name="Aacute" unicode="Á"/>
<glyph d="M182 142l-45 -142h-137l235 667h147l226 -667h-137l-45 142h-244zM212 239h185l-93 299zM228 855h156l75 -122h-103l-52 82l-51 -82h-103z" horiz-adv-x="608" glyph-name="Acircumflex" unicode="Â"/>
<glyph d="M182 142l-45 -142h-137l235 667h147l226 -667h-137l-45 142h-244zM212 239h185l-93 299zM390 854h69q-2 -47 -16 -70q-25 -43 -66 -43q-29 0 -89 28q-23 11 -31 11q-19 0 -24 -26l-1 -9h-70q12 109 80 109q22 0 88 -26q26 -11 36 -11q21 0 24 37z" horiz-adv-x="608" glyph-name="Atilde" unicode="Ã"/>
<glyph d="M182 142l-45 -142h-137l235 667h147l226 -667h-137l-45 142h-244zM212 239h185l-93 299zM140 849h116v-106h-116v106zM353 849h116v-106h-116v106z" horiz-adv-x="608" glyph-name="Adieresis" unicode="Ä"/>
<glyph d="M182 142l-45 -142h-137l235 667h147l226 -667h-137l-45 142h-244zM212 239h185l-93 299zM305 895q39 0 67.5 -28.5t28.5 -68.5q0 -41 -28.5 -69.5t-68.5 -28.5t-68.5 28.5t-28.5 68.5q0 41 28.5 69.5t69.5 28.5zM305 842q-19 0 -31.5 -13t-12.5 -32q0 -18 13 -31t30 -13 q18 0 30.5 13t12.5 32q0 18 -12.5 31t-29.5 13z" horiz-adv-x="608" glyph-name="Aring" unicode="Å"/>
<glyph d="M514 562v-158h315v-105h-315v-194h366v-105h-498v141h-198l-45 -141h-139l227 667h645v-105h-358zM382 239v323h-70l-97 -323h167z" horiz-adv-x="920" glyph-name="AE" unicode="Æ"/>
<glyph d="M372 -13l-30 -47q20 6 36 6q35 0 58.5 -19t23.5 -48q0 -39 -31.5 -63t-83.5 -24q-48 0 -106 22l18 39q43 -16 74 -16q20 0 33.5 10t13.5 26q0 15 -13 24.5t-33 9.5q-13 0 -33 -8l-20 20l47 69q-88 10 -147 54q-65 48 -100.5 123t-35.5 166q0 155 90 252t234 97 q118 0 192.5 -59t97.5 -169h-132q-14 57 -53 87.5t-100 30.5q-86 0 -141.5 -66.5t-55.5 -169.5q0 -107 63 -178q52 -59 133 -59q125 0 158 122h128q-10 -101 -91.5 -168t-193.5 -64z" horiz-adv-x="684" glyph-name="Ccedilla" unicode="Ç"/>
<glyph d="M71 0v667h491v-105h-359v-158h314v-105h-314v-194h366v-105h-498zM327 854l46 -122h-80l-99 122h133z" horiz-adv-x="609" glyph-name="Egrave" unicode="È"/>
<glyph d="M71 0v667h491v-105h-359v-158h314v-105h-314v-194h366v-105h-498zM307 854h133l-99 -122h-80z" horiz-adv-x="609" glyph-name="Eacute" unicode="É"/>
<glyph d="M71 0v667h491v-105h-359v-158h314v-105h-314v-194h366v-105h-498zM240 855h156l75 -122h-103l-52 82l-51 -82h-103z" horiz-adv-x="609" glyph-name="Ecircumflex" unicode="Ê"/>
<glyph d="M71 0v667h491v-105h-359v-158h314v-105h-314v-194h366v-105h-498zM152 849h116v-106h-116v106zM365 849h116v-106h-116v106z" horiz-adv-x="609" glyph-name="Edieresis" unicode="Ë"/>
<glyph d="M70 667h132v-667h-132v667zM140 854l46 -122h-80l-99 122h133z" horiz-adv-x="273" glyph-name="Igrave" unicode="Ì"/>
<glyph d="M71 667h132v-667h-132v667zM133 854h133l-99 -122h-80z" horiz-adv-x="273" glyph-name="Iacute" unicode="Í"/>
<glyph d="M71 667h132v-667h-132v667zM60 855h156l70 -122h-103l-47 82l-46 -82h-103z" horiz-adv-x="273" glyph-name="Icircumflex" unicode="Î"/>
<glyph d="M71 667h132v-667h-132v667zM16 743v106h97v-106h-97zM160 743v106h98v-106h-98z" horiz-adv-x="273" glyph-name="Idieresis" unicode="Ï"/>
<glyph d="M71 297h-67v100h67v270h241q74 0 118 -11.5t83 -41.5q59 -45 90.5 -120t31.5 -169q0 -89 -30 -162t-83 -112q-70 -51 -199 -51h-252v297zM203 297v-192h125q175 0 175 213q0 131 -61 195q-46 49 -143 49h-96v-165h136v-100h-136z" horiz-adv-x="678" glyph-name="Eth" unicode="Ð"/>
<glyph d="M71 667h141l281 -465v465h132v-667h-137l-285 474v-474h-132v667zM434 854h69q-2 -47 -16 -70q-25 -43 -66 -43q-29 0 -89 28q-23 11 -31 11q-19 0 -24 -26l-1 -9h-70q12 109 80 109q22 0 88 -26q26 -11 36 -11q21 0 24 37z" horiz-adv-x="695" glyph-name="Ntilde" unicode="Ñ"/>
<glyph d="M362 680q139 0 228.5 -97t89.5 -249t-89 -249.5t-229 -97.5q-142 0 -230.5 97.5t-88.5 254.5q0 148 90 244.5t229 96.5zM362 570q-83 0 -135 -64.5t-52 -168.5q0 -109 51 -174.5t136 -65.5q83 0 134.5 65.5t51.5 171.5t-51.5 171t-134.5 65zM369 854l46 -122h-80l-99 122 h133z" horiz-adv-x="724" glyph-name="Ograve" unicode="Ò"/>
<glyph d="M362 680q139 0 228.5 -97t89.5 -249t-89 -249.5t-229 -97.5q-142 0 -230.5 97.5t-88.5 254.5q0 148 90 244.5t229 96.5zM362 570q-83 0 -135 -64.5t-52 -168.5q0 -109 51 -174.5t136 -65.5q83 0 134.5 65.5t51.5 171.5t-51.5 171t-134.5 65zM355 854h133l-99 -122h-80z " horiz-adv-x="724" glyph-name="Oacute" unicode="Ó"/>
<glyph d="M362 680q139 0 228.5 -97t89.5 -249t-89 -249.5t-229 -97.5q-142 0 -230.5 97.5t-88.5 254.5q0 148 90 244.5t229 96.5zM362 570q-83 0 -135 -64.5t-52 -168.5q0 -109 51 -174.5t136 -65.5q83 0 134.5 65.5t51.5 171.5t-51.5 171t-134.5 65zM285 855h156l75 -122h-103 l-52 82l-51 -82h-103z" horiz-adv-x="724" glyph-name="Ocircumflex" unicode="Ô"/>
<glyph d="M362 680q139 0 228.5 -97t89.5 -249t-89 -249.5t-229 -97.5q-142 0 -230.5 97.5t-88.5 254.5q0 148 90 244.5t229 96.5zM362 570q-83 0 -135 -64.5t-52 -168.5q0 -109 51 -174.5t136 -65.5q83 0 134.5 65.5t51.5 171.5t-51.5 171t-134.5 65zM444 854h69q-2 -47 -16 -70 q-25 -43 -66 -43q-29 0 -89 28q-23 11 -31 11q-19 0 -24 -26l-1 -9h-70q12 109 80 109q22 0 88 -26q26 -11 36 -11q21 0 24 37z" horiz-adv-x="724" glyph-name="Otilde" unicode="Õ"/>
<glyph d="M362 680q139 0 228.5 -97t89.5 -249t-89 -249.5t-229 -97.5q-142 0 -230.5 97.5t-88.5 254.5q0 148 90 244.5t229 96.5zM362 570q-83 0 -135 -64.5t-52 -168.5q0 -109 51 -174.5t136 -65.5q83 0 134.5 65.5t51.5 171.5t-51.5 171t-134.5 65zM197 849h116v-106h-116v106z M410 849h116v-106h-116v106z" horiz-adv-x="724" glyph-name="Odieresis" unicode="Ö"/>
<glyph d="M87 184l158 158l-164 164l66 66l164 -164l158 158l64 -64l-158 -157l164 -164l-67 -67l-164 164l-157 -157z" glyph-name="multiply" unicode="×"/>
<glyph d="M89 -16l-51 47l73 79q-68 98 -68 225q0 151 90 248t229 97q118 0 204 -73l69 75l53 -47l-74 -79q67 -95 67 -224q0 -151 -90 -248t-229 -97q-116 0 -203 72zM523 460l-282 -316q39 -30 60 -38.5t56 -8.5q87 0 139.5 64t52.5 170q0 87 -26 129zM200 204l282 317 q-41 49 -121 49q-83 0 -134.5 -65.5t-51.5 -171.5q0 -63 25 -129z" horiz-adv-x="724" glyph-name="Oslash" unicode="Ø"/>
<glyph d="M465 667h132v-379q0 -85 -5.5 -121.5t-22.5 -66.5q-61 -113 -239 -113q-192 0 -247 129q-19 47 -19 172v379h132v-368q0 -108 16 -141q13 -28 45.5 -44.5t73.5 -16.5q45 0 78 19t44 52q12 32 12 131v368zM334 854l46 -122h-80l-99 122h133z" horiz-adv-x="661" glyph-name="Ugrave" unicode="Ù"/>
<glyph d="M465 667h132v-379q0 -85 -5.5 -121.5t-22.5 -66.5q-61 -113 -239 -113q-192 0 -247 129q-19 47 -19 172v379h132v-368q0 -108 16 -141q13 -28 45.5 -44.5t73.5 -16.5q45 0 78 19t44 52q12 32 12 131v368zM321 854h133l-99 -122h-80z" horiz-adv-x="661" glyph-name="Uacute" unicode="Ú"/>
<glyph d="M465 667h132v-379q0 -85 -5.5 -121.5t-22.5 -66.5q-61 -113 -239 -113q-192 0 -247 129q-19 47 -19 172v379h132v-368q0 -108 16 -141q13 -28 45.5 -44.5t73.5 -16.5q45 0 78 19t44 52q12 32 12 131v368zM254 855h156l75 -122h-103l-52 82l-51 -82h-103z" horiz-adv-x="661" glyph-name="Ucircumflex" unicode="Û"/>
<glyph d="M465 667h132v-379q0 -85 -5.5 -121.5t-22.5 -66.5q-61 -113 -239 -113q-192 0 -247 129q-19 47 -19 172v379h132v-368q0 -108 16 -141q13 -28 45.5 -44.5t73.5 -16.5q45 0 78 19t44 52q12 32 12 131v368zM166 849h116v-106h-116v106zM379 849h116v-106h-116v106z" horiz-adv-x="661" glyph-name="Udieresis" unicode="Ü"/>
<glyph d="M-7 667h141l143 -285l143 285h141l-218 -412v-255h-132v255zM270 854h133l-99 -122h-80z" horiz-adv-x="555" glyph-name="Yacute" unicode="Ý"/>
<glyph d="M203 142v-142h-132v667h132v-94h133q84 0 132 -24q51 -26 81 -78.5t30 -116.5q0 -71 -37 -124.5t-100 -73.5q-44 -14 -116 -14h-123zM203 247h108q65 0 100.5 27.5t35.5 78.5q0 36 -16.5 64t-45.5 40q-24 11 -89 11h-93v-221z" horiz-adv-x="602" glyph-name="Thorn" unicode="Þ"/>
<glyph d="M63 0v436q0 72 8 107.5t30 63.5q58 73 175 73q109 0 166 -57q48 -46 48 -111q0 -85 -98 -131q61 -14 97.5 -60.5t36.5 -110.5q0 -94 -62.5 -157t-156.5 -63q-22 0 -61 5v83q11 -1 23 -1q64 0 98 35t34 101q0 64 -34 97.5t-99 33.5q-12 0 -22 -1v73q50 0 72 9 q24 10 38 30.5t14 46.5q0 36 -26 60.5t-65 24.5q-78 0 -91 -77q-3 -14 -3 -64v-446h-122z" horiz-adv-x="564" glyph-name="germandbls" unicode="ß"/>
<glyph d="M182 342h-114q8 62 35 95q54 63 176 63q153 0 194 -87q18 -35 18 -106v-204q0 -44 3 -62.5t13 -40.5h-118l-14 45q-75 -58 -156 -58q-74 0 -127 44t-53 105q0 85 91 128q52 26 161 39q42 4 59 15t17 34q0 28 -24.5 45.5t-64.5 17.5q-43 0 -68 -19t-28 -54zM372 189v67 q-26 -17 -77 -29q-75 -18 -103 -36t-28 -48q0 -26 23.5 -42.5t61.5 -16.5q56 0 93 29q30 23 30 76zM283 682l46 -122h-80l-99 122h133z" horiz-adv-x="549" glyph-name="agrave" unicode="à"/>
<glyph d="M182 342h-114q8 62 35 95q54 63 176 63q153 0 194 -87q18 -35 18 -106v-204q0 -44 3 -62.5t13 -40.5h-118l-14 45q-75 -58 -156 -58q-74 0 -127 44t-53 105q0 85 91 128q52 26 161 39q42 4 59 15t17 34q0 28 -24.5 45.5t-64.5 17.5q-43 0 -68 -19t-28 -54zM372 189v67 q-26 -17 -77 -29q-75 -18 -103 -36t-28 -48q0 -26 23.5 -42.5t61.5 -16.5q56 0 93 29q30 23 30 76zM273 682h133l-99 -122h-80z" horiz-adv-x="549" glyph-name="aacute" unicode="á"/>
<glyph d="M182 342h-114q8 62 35 95q54 63 176 63q153 0 194 -87q18 -35 18 -106v-204q0 -44 3 -62.5t13 -40.5h-118l-14 45q-75 -58 -156 -58q-74 0 -127 44t-53 105q0 85 91 128q52 26 161 39q42 4 59 15t17 34q0 28 -24.5 45.5t-64.5 17.5q-43 0 -68 -19t-28 -54zM372 189v67 q-26 -17 -77 -29q-75 -18 -103 -36t-28 -48q0 -26 23.5 -42.5t61.5 -16.5q56 0 93 29q30 23 30 76zM203 682h156l75 -122h-103l-52 82l-51 -82h-103z" horiz-adv-x="549" glyph-name="acircumflex" unicode="â"/>
<glyph d="M182 342h-114q8 62 35 95q54 63 176 63q153 0 194 -87q18 -35 18 -106v-204q0 -44 3 -62.5t13 -40.5h-118l-14 45q-75 -58 -156 -58q-74 0 -127 44t-53 105q0 85 91 128q52 26 161 39q42 4 59 15t17 34q0 28 -24.5 45.5t-64.5 17.5q-43 0 -68 -19t-28 -54zM372 189v67 q-26 -17 -77 -29q-75 -18 -103 -36t-28 -48q0 -26 23.5 -42.5t61.5 -16.5q56 0 93 29q30 23 30 76zM362 674h69q-4 -49 -16 -70q-25 -43 -66 -43q-29 0 -89 28q-22 11 -31 11q-19 0 -24 -26l-1 -9h-70q6 56 25 82.5t54 26.5q17 0 30.5 -4t56.5 -22q27 -10 39 -10q20 0 23 36 z" horiz-adv-x="549" glyph-name="atilde" unicode="ã"/>
<glyph d="M182 342h-114q8 62 35 95q54 63 176 63q153 0 194 -87q18 -35 18 -106v-204q0 -44 3 -62.5t13 -40.5h-118l-14 45q-75 -58 -156 -58q-74 0 -127 44t-53 105q0 85 91 128q52 26 161 39q42 4 59 15t17 34q0 28 -24.5 45.5t-64.5 17.5q-43 0 -68 -19t-28 -54zM372 189v67 q-26 -17 -77 -29q-75 -18 -103 -36t-28 -48q0 -26 23.5 -42.5t61.5 -16.5q56 0 93 29q30 23 30 76zM124 673h116v-106h-116v106zM320 673h116v-106h-116v106z" horiz-adv-x="549" glyph-name="adieresis" unicode="ä"/>
<glyph d="M182 342h-114q8 62 35 95q54 63 176 63q153 0 194 -87q18 -35 18 -106v-204q0 -44 3 -62.5t13 -40.5h-118l-14 45q-75 -58 -156 -58q-74 0 -127 44t-53 105q0 85 91 128q52 26 161 39q42 4 59 15t17 34q0 28 -24.5 45.5t-64.5 17.5q-43 0 -68 -19t-28 -54zM372 189v67 q-26 -17 -77 -29q-75 -18 -103 -36t-28 -48q0 -26 23.5 -42.5t61.5 -16.5q56 0 93 29q30 23 30 76zM281 729q39 0 67.5 -28.5t28.5 -68.5q0 -41 -28.5 -69.5t-68.5 -28.5t-68.5 28.5t-28.5 68.5q0 41 28.5 69.5t69.5 28.5zM281 676q-19 0 -31.5 -13t-12.5 -32q0 -18 13 -31 t30 -13q18 0 30.5 13t12.5 32q0 18 -12.5 31t-29.5 13z" horiz-adv-x="549" glyph-name="aring" unicode="å"/>
<glyph d="M839 215h-356q14 -131 121 -131q71 0 104 62h127q-23 -74 -84.5 -116.5t-145.5 -42.5q-119 0 -185 85q-58 -47 -102.5 -66t-97.5 -19q-75 0 -128 43.5t-53 105.5q0 83 91 128q49 25 161 38q42 4 59 15t17 34q0 28 -24.5 45.5t-63.5 17.5q-43 0 -68.5 -18.5t-28.5 -53.5 h-114q11 84 62.5 121t155.5 37q58 0 93 -14.5t57 -48.5q69 63 161 63q110 0 175 -76t67 -209zM372 189v66q-28 -16 -77 -28q-73 -18 -94 -30q-37 -21 -37 -54q0 -26 23.5 -42.5t61.5 -16.5q56 0 93 29q30 23 30 76zM485 295h228q-6 53 -35.5 82t-78.5 29t-78.5 -29 t-35.5 -82z" horiz-adv-x="878" glyph-name="ae" unicode="æ"/>
<glyph d="M283 -13l-30 -47q22 6 37 6q35 0 58 -19t23 -48q0 -39 -31.5 -63t-83.5 -24q-47 0 -106 22l19 39q42 -16 73 -16q20 0 33.5 10t13.5 26t-13 25.5t-33 9.5q-13 0 -33 -8l-19 19l47 71q-72 17 -111 49q-41 34 -64.5 87.5t-23.5 114.5q0 113 67.5 186t170.5 73q85 0 142 -46 t77 -132h-119q-24 81 -97 81q-52 0 -84 -44.5t-32 -117.5t31.5 -115t85.5 -42q84 0 103 88h117q-11 -85 -69.5 -134t-148.5 -51z" horiz-adv-x="532" glyph-name="ccedilla" unicode="ç"/>
<glyph d="M520 215h-356q7 -64 37.5 -97.5t82.5 -33.5q72 0 105 62h126q-22 -73 -84 -116t-145 -43q-109 0 -178 71.5t-69 184.5q0 115 65.5 186t171.5 71q112 0 177 -76t67 -209zM167 295h227q-7 53 -36 82t-78 29q-47 0 -76.5 -29t-36.5 -82zM290 682l46 -122h-80l-99 122h133z " horiz-adv-x="558" glyph-name="egrave" unicode="è"/>
<glyph d="M520 215h-356q7 -64 37.5 -97.5t82.5 -33.5q72 0 105 62h126q-22 -73 -84 -116t-145 -43q-109 0 -178 71.5t-69 184.5q0 115 65.5 186t171.5 71q112 0 177 -76t67 -209zM167 295h227q-7 53 -36 82t-78 29q-47 0 -76.5 -29t-36.5 -82zM280 682h133l-99 -122h-80z" horiz-adv-x="558" glyph-name="eacute" unicode="é"/>
<glyph d="M520 215h-356q7 -64 37.5 -97.5t82.5 -33.5q72 0 105 62h126q-22 -73 -84 -116t-145 -43q-109 0 -178 71.5t-69 184.5q0 115 65.5 186t171.5 71q112 0 177 -76t67 -209zM167 295h227q-7 53 -36 82t-78 29q-47 0 -76.5 -29t-36.5 -82zM210 682h156l75 -122h-103l-52 82 l-51 -82h-103z" horiz-adv-x="558" glyph-name="ecircumflex" unicode="ê"/>
<glyph d="M520 215h-356q7 -64 37.5 -97.5t82.5 -33.5q72 0 105 62h126q-22 -73 -84 -116t-145 -43q-109 0 -178 71.5t-69 184.5q0 115 65.5 186t171.5 71q112 0 177 -76t67 -209zM167 295h227q-7 53 -36 82t-78 29q-47 0 -76.5 -29t-36.5 -82zM130 673h116v-106h-116v106zM326 673 h116v-106h-116v106z" horiz-adv-x="558" glyph-name="edieresis" unicode="ë"/>
<glyph d="M63 487h122v-487h-122v487zM127 682l46 -122h-80l-99 122h133z" horiz-adv-x="247" glyph-name="igrave" unicode="ì"/>
<glyph d="M63 487h122v-487h-122v487zM120 682h133l-99 -122h-80z" horiz-adv-x="247" glyph-name="iacute" unicode="í"/>
<glyph d="M62 487h122v-487h-122v487zM47 682h155l62 -122h-99l-42 82l-42 -82h-99z" horiz-adv-x="247" glyph-name="icircumflex" unicode="î"/>
<glyph d="M63 487h122v-487h-122v487zM8 567v106h92v-106h-92zM147 567v106h93v-106h-93z" horiz-adv-x="247" glyph-name="idieresis" unicode="ï"/>
<glyph d="M289 669l80 63l36 -47l-74 -58q94 -97 137 -165q74 -116 74 -221q0 -109 -72 -181.5t-181 -72.5q-110 0 -181 72.5t-71 184.5q0 111 71.5 183.5t180.5 72.5q21 0 49 -4q-58 80 -63 87l-70 -55l-37 47l70 55q-7 9 -52 61l42 35q42 -39 61 -57zM290 403q-57 0 -92.5 -43.5 t-35.5 -113.5q0 -74 35 -118t93 -44q57 0 92 44t35 116q0 71 -35 115t-92 44z" horiz-adv-x="582" glyph-name="eth" unicode="ð"/>
<glyph d="M63 487h122v-68q34 44 66.5 62.5t76.5 18.5q47 0 88 -23.5t61 -62.5q20 -36 20 -101v-313h-122v281q0 51 -13 72q-25 40 -75 40q-49 0 -75.5 -31.5t-26.5 -89.5v-272h-122v487zM353 674h69q-4 -49 -16 -70q-25 -43 -66 -43q-29 0 -89 28q-22 11 -31 11q-19 0 -24 -26 l-1 -9h-70q6 56 25 82.5t54 26.5q17 0 30.5 -4t56.5 -22q27 -10 39 -10q20 0 23 36z" horiz-adv-x="560" glyph-name="ntilde" unicode="ñ"/>
<glyph d="M292 500q109 0 180.5 -72.5t71.5 -183.5q0 -113 -71.5 -185t-184.5 -72q-107 0 -178 73t-71 184t71.5 183.5t181.5 72.5zM292 403q-57 0 -92.5 -43.5t-35.5 -113.5q0 -74 35 -118t93 -44q57 0 92 44t35 116q0 71 -35 115t-92 44zM295 682l46 -122h-80l-99 122h133z" horiz-adv-x="582" glyph-name="ograve" unicode="ò"/>
<glyph d="M292 500q109 0 180.5 -72.5t71.5 -183.5q0 -113 -71.5 -185t-184.5 -72q-107 0 -178 73t-71 184t71.5 183.5t181.5 72.5zM292 403q-57 0 -92.5 -43.5t-35.5 -113.5q0 -74 35 -118t93 -44q57 0 92 44t35 116q0 71 -35 115t-92 44zM285 682h133l-99 -122h-80z" horiz-adv-x="582" glyph-name="oacute" unicode="ó"/>
<glyph d="M292 500q109 0 180.5 -72.5t71.5 -183.5q0 -113 -71.5 -185t-184.5 -72q-107 0 -178 73t-71 184t71.5 183.5t181.5 72.5zM292 403q-57 0 -92.5 -43.5t-35.5 -113.5q0 -74 35 -118t93 -44q57 0 92 44t35 116q0 71 -35 115t-92 44zM215 682h156l75 -122h-103l-52 82 l-51 -82h-103z" horiz-adv-x="582" glyph-name="ocircumflex" unicode="ô"/>
<glyph d="M292 500q109 0 180.5 -72.5t71.5 -183.5q0 -113 -71.5 -185t-184.5 -72q-107 0 -178 73t-71 184t71.5 183.5t181.5 72.5zM292 403q-57 0 -92.5 -43.5t-35.5 -113.5q0 -74 35 -118t93 -44q57 0 92 44t35 116q0 71 -35 115t-92 44zM374 674h69q-4 -49 -16 -70 q-25 -43 -66 -43q-29 0 -89 28q-22 11 -31 11q-19 0 -24 -26l-1 -9h-70q6 56 25 82.5t54 26.5q17 0 30.5 -4t56.5 -22q27 -10 39 -10q20 0 23 36z" horiz-adv-x="582" glyph-name="otilde" unicode="õ"/>
<glyph d="M292 500q109 0 180.5 -72.5t71.5 -183.5q0 -113 -71.5 -185t-184.5 -72q-107 0 -178 73t-71 184t71.5 183.5t181.5 72.5zM292 403q-57 0 -92.5 -43.5t-35.5 -113.5q0 -74 35 -118t93 -44q57 0 92 44t35 116q0 71 -35 115t-92 44zM135 673h116v-106h-116v106zM331 673h116 v-106h-116v106z" horiz-adv-x="582" glyph-name="odieresis" unicode="ö"/>
<glyph d="M60 378h500v-90h-500v90zM311 225q22 0 37.5 -15.5t15.5 -37.5t-15.5 -38t-37.5 -16q-23 0 -38.5 16t-15.5 38t16 37.5t38 15.5zM311 548q22 0 37.5 -15.5t15.5 -37.5q0 -23 -16 -38.5t-38 -15.5t-37.5 16t-15.5 37q0 22 15.5 38t38.5 16z" glyph-name="divide" unicode="÷"/>
<glyph d="M86 -42l-45 39l62 71q-64 73 -64 176q0 111 71.5 183.5t180.5 72.5q83 0 149 -45l56 66l45 -39l-57 -67q60 -72 60 -172q0 -111 -71.5 -183.5t-180.5 -72.5q-80 0 -145 41zM402 326l-183 -222q44 -20 73 -20q58 0 92.5 44.5t34.5 118.5q0 31 -17 79zM182 155l185 221 q-39 27 -76 27q-57 0 -92 -44t-35 -115q0 -45 18 -89z" horiz-adv-x="582" glyph-name="oslash" unicode="ø"/>
<glyph d="M493 487v-487h-122v50q-69 -63 -144 -63q-56 0 -97.5 31.5t-57.5 84.5q-9 32 -9 112v272h122v-265q0 -55 7 -76q17 -52 79 -52q50 0 78 36q22 28 22 85v272h122zM282 682l46 -122h-80l-99 122h133z" horiz-adv-x="556" glyph-name="ugrave" unicode="ù"/>
<glyph d="M493 487v-487h-122v50q-69 -63 -144 -63q-56 0 -97.5 31.5t-57.5 84.5q-9 32 -9 112v272h122v-265q0 -55 7 -76q17 -52 79 -52q50 0 78 36q22 28 22 85v272h122zM272 682h133l-99 -122h-80z" horiz-adv-x="556" glyph-name="uacute" unicode="ú"/>
<glyph d="M493 487v-487h-122v50q-69 -63 -144 -63q-56 0 -97.5 31.5t-57.5 84.5q-9 32 -9 112v272h122v-265q0 -55 7 -76q17 -52 79 -52q50 0 78 36q22 28 22 85v272h122zM202 682h156l75 -122h-103l-52 82l-51 -82h-103z" horiz-adv-x="556" glyph-name="ucircumflex" unicode="û"/>
<glyph d="M493 487v-487h-122v50q-69 -63 -144 -63q-56 0 -97.5 31.5t-57.5 84.5q-9 32 -9 112v272h122v-265q0 -55 7 -76q17 -52 79 -52q50 0 78 36q22 28 22 85v272h122zM122 673h116v-106h-116v106zM318 673h116v-106h-116v106z" horiz-adv-x="556" glyph-name="udieresis" unicode="ü"/>
<glyph d="M351 487h125l-177 -524q-29 -84 -75 -109q-21 -11 -39 -14t-66 -3h-62v95h36q40 0 56 12q28 18 28 58q0 32 -23 95l-151 390h133l112 -359zM236 682h133l-99 -122h-80z" horiz-adv-x="478" glyph-name="yacute" unicode="ý"/>
<glyph d="M63 667h122v-244q28 41 60 59t79 18q92 0 152 -73t60 -186q0 -112 -58.5 -183t-150.5 -71q-45 0 -76.5 18t-65.5 62v-230h-122v830zM300 403q-56 0 -88.5 -43.5t-32.5 -117.5q0 -70 32.5 -114t85.5 -44q51 0 82.5 43.5t31.5 113.5q0 72 -31 117t-80 45z" horiz-adv-x="574" glyph-name="thorn" unicode="þ"/>
</font>
</defs>
</svg>
