<?xml version="1.0" encoding="UTF-8" standalone="no"?>
<!DOCTYPE svg  PUBLIC '-//W3C//DTD SVG 1.1//EN'  'http://www.w3.org/Graphics/SVG/1.1/DTD/svg11.dtd'>
<svg version="1.1" xmlns="http://www.w3.org/2000/svg">
<defs>
<font id="NimbusSansDOT-LighItal" horiz-adv-x="567">
<font-face underline-thickness="46" bbox="-73 -205 868 884" ascent="800" font-style="italic" x-height="490" unicode-range="U+0020-00FE" descent="-200" units-per-em="1000" font-family="Nimbus Sans D OT Light" cap-height="667" underline-position="-143" panose-1="2 0 0 0 0 0 0 0 0 0" font-weight="300" slope="-12"/>
<missing-glyph/>
<glyph glyph-name="space" horiz-adv-x="250" unicode=" "/>
<glyph glyph-name="space" horiz-adv-x="250" unicode=" "/>
<glyph glyph-name="exclam" d="M168 667h68l-45 -212l-68 -287h-44l47 302zM50 89h76l-19 -89h-76z" horiz-adv-x="241" unicode="!"/>
<glyph glyph-name="quotedbl" d="M154 400h-48l49 267h64zM282 400h-48l49 267h64z" horiz-adv-x="326" unicode='&quot;'/>
<glyph glyph-name="numbersign" d="M466 253l-14 -48h-78l-61 -205h-52l61 205h-147l-61 -205h-52l61 205h-78l14 48h79l48 161h-79l15 48h78l61 205h52l-61 -205h146l61 205h53l-62 -205h77l-14 -48h-77l-48 -161h78zM384 414h-147l-48 -161h147z" horiz-adv-x="540" unicode="#"/>
<glyph glyph-name="dollar" d="M358 732h41l-11 -52q136 -31 142 -172h-58q-1 103 -94 124l-56 -264q85 -30 124.5 -73.5t39.5 -105.5q0 -85 -63.5 -143t-156.5 -58l-25 1l-16 -79h-42l17 82q-65 8 -106.5 59.5t-41.5 124.5v15h61q-1 -7 -1 -18q0 -52 28 -88.5t71 -41.5l60 282q-140 48 -140 168 q0 80 58 135t143 55h14zM336 632h-1q-55 4 -100 -39t-45 -99q0 -38 22 -64.5t71 -46.5zM309 310l-57 -269q9 -1 23 -1q62 0 105.5 42.5t43.5 103.5q0 45 -25.5 73t-89.5 51z" unicode="$"/>
<glyph glyph-name="percent" d="M234 674q47 0 73.5 -30.5t26.5 -84.5q0 -116 -61 -190q-33 -42 -90 -42q-48 0 -74 31.5t-26 90.5q0 96 44 165q40 60 107 60zM234 640q-49 0 -76 -52q-33 -63 -33 -138q0 -90 58 -90q48 0 72 47q38 70 38 154q0 37 -15.5 58t-43.5 21zM558 667h51l-389 -667h-52zM596 340 q47 0 74 -30.5t27 -85.5q0 -114 -61 -189q-33 -42 -91 -42q-48 0 -74 31.5t-26 90.5q0 98 42.5 161.5t108.5 63.5zM597 306q-50 0 -77 -52q-33 -63 -33 -138q0 -90 59 -90q46 0 72 47q38 70 38 154q0 37 -15.5 58t-43.5 21z" horiz-adv-x="743" unicode="%"/>
<glyph glyph-name="ampersand" d="M525 307h54q-18 -108 -82 -192l70 -112h-65l-45 74q-49 -48 -96 -69t-106 -21q-93 0 -151.5 55t-58.5 141q0 67 44 122q22 28 47 45t83 45l25 12q-57 74 -57 138q0 58 43 96.5t108 38.5q58 0 97 -35.5t39 -88.5q0 -35 -17 -67.5t-45 -52.5q-27 -20 -92 -51l147 -227 q20 24 38.5 72.5t19.5 76.5zM270 469l24 -42q68 28 95 56t27 72q0 34 -23 56t-58 22q-36 0 -62 -25t-26 -60q0 -40 23 -79zM431 117l-161 248q-56 -25 -89 -49q-74 -54 -74 -136q0 -64 42.5 -104t110.5 -40q90 0 171 81z" horiz-adv-x="619" unicode="&amp;"/>
<glyph glyph-name="quotesingle" d="M155 400h-55l49 267h70z" horiz-adv-x="191" unicode="&apos;"/>
<glyph glyph-name="parenleft" d="M266 667h62q-215 -222 -215 -497q0 -146 44 -283h-51q-17 52 -26 80q-28 102 -28 213q0 149 69 284q26 52 46 80.5t75 92.5z" horiz-adv-x="283" unicode="("/>
<glyph glyph-name="parenright" d="M28 -113h-62q215 216 215 491q0 149 -44 289h51l6 -18q27 -84 37.5 -143.5t10.5 -131.5q0 -150 -69 -284q-26 -52 -46.5 -81t-74.5 -92z" horiz-adv-x="282" unicode=")"/>
<glyph glyph-name="asterisk" d="M303 659l-24 -113l116 17l5 -44l-114 -16l45 -103l-43 -18l-46 109l-83 -82l-31 33l83 76l-98 61l24 39l98 -62l24 113z" horiz-adv-x="386" unicode="*"/>
<glyph glyph-name="plus" d="M325 308l-47 -221h-61l48 221h-199l11 53h199l46 215h60l-46 -215h200l-12 -53h-199z" unicode="+"/>
<glyph glyph-name="comma" d="M45 89h74l-23 -110q-10 -50 -37.5 -81t-67.5 -36l8 38q52 22 62 100h-35z" horiz-adv-x="227" unicode=","/>
<glyph glyph-name="hyphen" d="M2 259h215l-12 -57h-215z" horiz-adv-x="215" unicode="-"/>
<glyph glyph-name="hyphen" d="M2 259h215l-12 -57h-215z" horiz-adv-x="215" unicode="­"/>
<glyph glyph-name="period" d="M39 89h79l-19 -89h-79z" horiz-adv-x="226" unicode="."/>
<glyph glyph-name="slash" d="M299 667h63l-343 -780h-65z" horiz-adv-x="316" unicode="/"/>
<glyph glyph-name="zero" d="M355 680q87 0 135.5 -61.5t48.5 -173.5q0 -96 -26 -190t-73 -165q-68 -103 -184 -103q-91 0 -139.5 62t-48.5 177q0 196 85 334q73 120 202 120zM354 626q-102 0 -157 -114q-64 -133 -64 -297q0 -85 31.5 -130t90.5 -45q94 0 145 99q74 145 74 317q0 80 -32 125t-88 45z " unicode="0"/>
<glyph glyph-name="one" d="M392 667h53l-142 -667h-63l120 563q-61 -58 -182 -78l11 50q151 38 203 132z" unicode="1"/>
<glyph glyph-name="two" d="M121 57h346l-12 -57h-408q12 60 25 95.5t44 71t74 65t125 76.5q77 45 106 82q42 51 42 112q0 56 -37 91t-95 35q-65 0 -106.5 -42t-54.5 -120h-65q15 80 50 127q66 87 178 87q87 0 140.5 -50t53.5 -131q0 -102 -89 -177q-23 -20 -48.5 -36t-126.5 -74q-130 -78 -142 -155 z" unicode="2"/>
<glyph glyph-name="three" d="M178 490h-64q24 98 78 144t144 46q89 0 139 -50q48 -50 48 -119q0 -72 -54 -121q-26 -23 -70 -40q42 -21 61 -45q34 -42 34 -102q0 -46 -23 -90.5t-63 -76.5q-62 -49 -150 -49q-102 0 -155 53q-54 56 -54 130v16h61q-1 -3 -1 -6q0 -63 39 -100.5t105 -37.5q76 0 125 45.5 t49 115.5q0 56 -38.5 89.5t-103.5 33.5q-10 0 -46 -3l11 55q36 -3 49 -3q71 0 114.5 37.5t43.5 98.5q0 52 -35 84t-91 32q-58 0 -98.5 -36.5t-54.5 -100.5z" unicode="3"/>
<glyph glyph-name="four" d="M402 167l-36 -167h-66l36 167h-298l10 45l401 455h59l-95 -448h105l-11 -52h-105zM347 219l75 352l-304 -352h229z" unicode="4"/>
<glyph glyph-name="five" d="M236 608l-71 -222q63 48 139 48q93 0 148.5 -53.5t55.5 -142.5q0 -108 -73.5 -179.5t-183.5 -71.5q-91 0 -142.5 46.5t-56.5 132.5h66q3 -61 38.5 -93.5t98.5 -32.5q73 0 120 42q30 28 48 71.5t18 88.5q0 62 -39 100t-104 38q-43 0 -84.5 -19t-64.5 -50h-60l107 356h331 l-18 -59h-273z" unicode="5"/>
<glyph glyph-name="six" d="M539 516h-63q-4 44 -18 68q-29 43 -95 43q-104 0 -169 -116q-45 -79 -57 -175q71 95 177 95q85 0 137.5 -54t52.5 -141q0 -106 -68 -177.5t-169 -71.5q-85 0 -138 53q-60 62 -60 194q0 185 83 315q83 131 217 131q76 0 120.5 -42.5t49.5 -121.5zM306 378 q-74 0 -123.5 -54t-49.5 -133q0 -66 38.5 -107.5t99.5 -41.5q71 0 119 55t48 135q0 67 -36 106.5t-96 39.5z" unicode="6"/>
<glyph glyph-name="seven" d="M515 607h-382l13 60h451l-11 -53q-27 -25 -84.5 -108t-119.5 -187q-82 -140 -144 -319h-78q136 361 355 607z" unicode="7"/>
<glyph glyph-name="eight" d="M389 348q103 -33 103 -145q0 -91 -67 -153.5t-164 -62.5q-96 0 -154 51t-58 135q0 92 63 147q33 29 98 44q-23 8 -35 16.5t-24 24.5q-27 36 -27 86q0 68 48 122q60 67 159 67q86 0 138 -46t52 -123q0 -76 -53 -123q-28 -26 -79 -40zM331 625q-61 0 -101.5 -36.5 t-40.5 -92.5q0 -53 34.5 -85t92.5 -32q59 0 99 39t40 96q0 50 -34.5 80.5t-89.5 30.5zM279 333q-70 0 -116.5 -45t-46.5 -112q0 -61 39.5 -98t103.5 -37q68 0 116 46.5t48 111.5q0 68 -46 103q-42 31 -98 31z" unicode="8"/>
<glyph glyph-name="nine" d="M64 155h63q3 -45 18 -70q28 -44 94 -44q120 0 190 155q27 57 35 131q-74 -90 -173 -90q-85 0 -139 55.5t-54 142.5q0 102 69 173.5t167 71.5q95 0 148.5 -66.5t53.5 -185.5q0 -91 -27 -180t-76 -156q-75 -105 -196 -105q-164 0 -173 168zM334 625q-74 0 -121 -53.5 t-47 -137.5q0 -66 36 -105t97 -39q71 0 120.5 55t49.5 134q0 64 -38 105t-97 41z" unicode="9"/>
<glyph glyph-name="colon" d="M39 89h79l-19 -89h-79zM117 453h79l-19 -89h-79z" horiz-adv-x="226" unicode=":"/>
<glyph glyph-name="semicolon" d="M45 89h74l-23 -110q-10 -50 -37.5 -81t-67.5 -36l8 38q52 22 62 100h-35zM123 453h79l-19 -89h-79z" horiz-adv-x="232" unicode=";"/>
<glyph glyph-name="less" d="M466 565v-69l-360 -163l360 -163v-68l-433 202v59z" horiz-adv-x="500" unicode="&lt;"/>
<glyph glyph-name="equal" d="M79 368l12 53h458l-11 -53h-459zM54 248l11 53h459l-12 -53h-458z" unicode="="/>
<glyph glyph-name="greater" d="M67 565l433 -202v-59l-433 -202v68l360 163l-360 163v69z" horiz-adv-x="500" unicode="&gt;"/>
<glyph glyph-name="question" d="M246 169h-65q18 85 44.5 123t92.5 74q60 35 86.5 69t26.5 76q0 51 -35.5 83.5t-91.5 32.5q-62 0 -102.5 -39.5t-46.5 -106.5h-68q16 98 59 141q60 62 163 62q82 0 135.5 -49t53.5 -124q0 -80 -67 -140q-21 -19 -82 -54q-52 -29 -70.5 -56t-32.5 -92zM156 89h79l-19 -89 h-79z" horiz-adv-x="472" unicode="?"/>
<glyph glyph-name="at" d="M521 494h49l-60 -213q-11 -37 -11 -54q0 -19 10 -30t26 -11q50 0 92 69t42 150q0 102 -69 165.5t-181 63.5q-135 0 -231.5 -97t-96.5 -233q0 -108 65 -184q75 -88 219 -88q112 0 217 49l11 -44q-110 -50 -232 -50q-160 0 -249 98q-80 88 -80 216q0 155 112 266.5 t268 111.5q128 0 210 -75.5t82 -194.5q0 -101 -57.5 -183t-128.5 -82q-31 0 -49 18.5t-18 49.5q-52 -72 -131 -72q-57 0 -92 39.5t-35 104.5q0 88 58.5 155t135.5 67q83 0 105 -79zM397 454q-55 0 -97 -50t-42 -115q0 -46 23.5 -73t63.5 -27q31 0 60.5 21t46.5 56 q25 53 25 101q0 40 -21.5 63.5t-58.5 23.5z" horiz-adv-x="705" unicode="@"/>
<glyph glyph-name="A" d="M428 211h-278l-113 -211h-74l375 667h72l121 -667h-69zM420 261l-56 347l-187 -347h243z" horiz-adv-x="595" unicode="A"/>
<glyph glyph-name="B" d="M27 0l142 667h210q74 0 110 -18q40 -20 62 -57t22 -84q0 -76 -50 -120q-19 -17 -65 -39q53 -31 75 -63.5t22 -79.5q0 -56 -29 -103.5t-80 -73.5q-54 -29 -145 -29h-274zM173 377h156q54 0 69 2t34 11q36 17 57.5 50t21.5 70q0 31 -14.5 56t-37.5 36q-24 10 -89 10h-147z M105 58h172q83 0 117 13q44 15 69 50.5t25 83.5q0 79 -72 109q-28 11 -85 11h-169z" horiz-adv-x="613" unicode="B"/>
<glyph glyph-name="C" d="M663 472h-66q-6 71 -55.5 115t-124.5 44q-59 0 -115 -29.5t-92 -80.5q-77 -107 -77 -247q0 -111 54 -176.5t146 -65.5q107 0 186 98q27 31 48 87h66q-35 -112 -114.5 -174.5t-185.5 -62.5q-125 0 -197 80t-72 220q0 88 31.5 170t88.5 141q90 96 230 96q129 0 202 -90 q36 -42 47 -125z" horiz-adv-x="679" unicode="C"/>
<glyph glyph-name="D" d="M27 0l142 667h187q75 0 122.5 -15.5t82.5 -50.5q72 -75 72 -204q0 -88 -34.5 -173t-92.5 -138q-94 -86 -240 -86h-239zM106 57h160q136 0 211 86q88 105 88 256q0 120 -64 175q-47 40 -154 40h-123z" horiz-adv-x="661" unicode="D"/>
<glyph glyph-name="E" d="M223 610l-50 -237h330l-11 -55h-331l-56 -261h366l-13 -57h-431l142 667h384l-12 -57h-318z" horiz-adv-x="553" unicode="E"/>
<glyph glyph-name="F" d="M223 610l-50 -236h293l-11 -54h-293l-68 -320h-67l142 667h349l-12 -57h-283z" horiz-adv-x="476" unicode="F"/>
<glyph glyph-name="G" d="M596 288h-229l12 53h286l-73 -341h-57l22 104q-99 -124 -235 -124q-121 0 -189.5 76.5t-68.5 210.5q0 86 28 166.5t79 140.5q45 53 111.5 83t139.5 30q129 0 198 -83q39 -45 45 -128h-64q-6 71 -45 106q-52 49 -140 49q-114 0 -187 -88q-95 -112 -95 -270 q0 -110 51.5 -172.5t141.5 -62.5q96 0 172.5 71t96.5 179z" horiz-adv-x="712" unicode="G"/>
<glyph glyph-name="H" d="M508 327h-345l-69 -327h-67l142 667h67l-61 -284h345l60 284h67l-142 -667h-67z" horiz-adv-x="638" unicode="H"/>
<glyph glyph-name="I" d="M169 667h67l-142 -667h-67z" horiz-adv-x="227" unicode="I"/>
<glyph glyph-name="J" d="M388 667h67l-104 -489q-19 -86 -47 -125q-53 -73 -152 -73q-71 0 -116.5 43t-45.5 110q0 32 11 76h68q-13 -42 -13 -73q0 -43 28 -70t73 -27q70 0 103 64q12 22 25 81z" horiz-adv-x="440" unicode="J"/>
<glyph glyph-name="K" d="M93 0h-66l142 667h66l-72 -340l372 340h90l-310 -277l236 -390h-77l-202 351l-128 -114z" horiz-adv-x="611" unicode="K"/>
<glyph glyph-name="L" d="M105 54h366l-12 -54h-432l142 667h66z" horiz-adv-x="529" unicode="L"/>
<glyph glyph-name="M" d="M265 667l98 -573l330 573h101l-142 -667h-66l124 581l-333 -581h-60l-100 581l-123 -581h-67l142 667h96z" horiz-adv-x="786" unicode="M"/>
<glyph glyph-name="N" d="M525 0h-77l-232 578l-123 -578h-66l142 667h74l236 -576l123 576h65z" horiz-adv-x="659" unicode="N"/>
<glyph glyph-name="O" d="M420 687q105 0 174 -56q45 -37 70 -99.5t25 -138.5q0 -170 -104 -291.5t-250 -121.5q-108 0 -184 70q-85 78 -85 222q0 180 100 297.5t254 117.5zM422 634q-123 0 -202 -99q-89 -111 -89 -262q0 -109 56.5 -173.5t152.5 -64.5q115 0 199 107t84 253q0 111 -54 175 t-147 64z" horiz-adv-x="719" unicode="O"/>
<glyph glyph-name="P" d="M155 289l-62 -289h-66l142 667h173q69 0 106 -10t67 -37q52 -45 52 -126q0 -97 -63.5 -151t-178.5 -54h-170zM166 341h132q96 0 138 25q31 18 48.5 52.5t17.5 75.5q0 65 -44 96q-34 23 -105 23h-129z" horiz-adv-x="553" unicode="P"/>
<glyph glyph-name="Q" d="M523 41l81 -78l-35 -37l-90 88q-62 -34 -137 -34q-127 0 -201 79t-74 213q0 180 101 297.5t255 117.5q125 0 196 -78.5t71 -216.5q0 -109 -40.5 -193.5t-126.5 -157.5zM401 159l80 -77q67 52 104.5 136t37.5 183q0 108 -53.5 170t-147.5 62q-65 0 -122 -31.5t-95 -87.5 q-72 -108 -72 -246q0 -109 56.5 -171t155.5 -62q47 0 90 20l-69 67z" horiz-adv-x="724" unicode="Q"/>
<glyph glyph-name="R" d="M160 309l-66 -309h-67l142 667h222q81 0 121 -20q88 -43 88 -147q0 -87 -57 -131q-31 -24 -87 -41q75 -31 75 -112q0 -19 -14 -130q-4 -24 -4 -45q0 -20 15 -30l-3 -11h-75q-3 28 -3 40q0 26 9 88q7 46 7 69q0 62 -27.5 87t-96.5 25h-179zM170 359h174q91 0 140.5 37 t49.5 105q0 79 -63 104q-23 9 -73 9h-174z" horiz-adv-x="624" unicode="R"/>
<glyph glyph-name="S" d="M557 476h-65q0 46 -13 73q-16 37 -55 59t-89 22q-70 0 -117.5 -37t-47.5 -91q0 -43 32 -69.5t137 -70.5q103 -43 137 -83q36 -44 36 -102q0 -86 -70 -142t-176 -56q-134 0 -198 87q-36 47 -36 145h66v-16q0 -73 37 -107q51 -49 136 -49q72 0 121 38.5t49 95.5 q0 39 -26 67q-18 19 -49 35.5t-102 45.5q-92 38 -124 73q-39 41 -39 100q0 85 65.5 139t168.5 54q126 0 186 -83q35 -46 36 -128z" horiz-adv-x="574" unicode="S"/>
<glyph glyph-name="T" d="M374 610l-130 -610h-67l130 610h-221l12 57h483l-12 -57h-195z" horiz-adv-x="516" unicode="T"/>
<glyph glyph-name="U" d="M581 667h67l-93 -436q-14 -63 -28 -97t-40 -64q-73 -90 -202 -90q-96 0 -159.5 54t-63.5 136q0 27 14 92l86 405h66l-88 -417q-12 -55 -12 -80q0 -56 45 -94.5t111 -38.5q49 0 94.5 25t72.5 67q25 42 40 114z" horiz-adv-x="632" unicode="U"/>
<glyph glyph-name="V" d="M542 667h70l-324 -667h-73l-113 667h68l95 -580z" horiz-adv-x="543" unicode="V"/>
<glyph glyph-name="W" d="M521 667l58 -573l214 573h71l-259 -667h-73l-59 596l-240 -596h-71l-60 667h67l46 -573l227 573h79z" horiz-adv-x="811" unicode="W"/>
<glyph glyph-name="X" d="M318 345l171 -345h-76l-136 289l-207 -289h-79l257 345l-157 322h76l123 -271l199 271h79z" horiz-adv-x="540" unicode="X"/>
<glyph glyph-name="Y" d="M522 667h78l-276 -416l-53 -251h-68l56 263l-171 404h74l138 -343z" horiz-adv-x="525" unicode="Y"/>
<glyph glyph-name="Z" d="M101 56h393l-12 -56h-478l12 56l459 557h-370l12 54h456l-9 -45z" horiz-adv-x="555" unicode="Z"/>
<glyph glyph-name="bracketleft" d="M175 667h117l-10 -47h-55l-145 -686h54l-10 -47h-117z" horiz-adv-x="277" unicode="["/>
<glyph glyph-name="backslash" d="M196 667l14 -780h-66l-11 780h63z" horiz-adv-x="316" unicode="\"/>
<glyph glyph-name="bracketright" d="M279 667l-166 -780h-117l10 47h55l145 686h-54l10 47h117z" horiz-adv-x="277" unicode="]"/>
<glyph glyph-name="asciicircum" d="M125 377h-65l177 291h79l177 -291h-66l-151 244z" horiz-adv-x="500" unicode="^"/>
<glyph glyph-name="underscore" d="M-73 -74h500v-46h-500v46z" horiz-adv-x="500" unicode="_"/>
<glyph glyph-name="grave" d="M239 694l103 -127h-55l-142 127h94z" horiz-adv-x="500" unicode="`"/>
<glyph glyph-name="a" d="M135 351h-65q19 75 74.5 115.5t138.5 40.5q73 0 119 -34.5t46 -90.5q0 -22 -9 -66l-47 -222q-4 -15 -4 -28q0 -27 30 -27q16 0 33 13l-11 -52q-21 -7 -39 -7q-35 0 -52 13t-24 46q-63 -69 -155 -69q-67 0 -110 38t-43 98q0 46 26.5 83.5t70.5 55.5q53 20 195 27 q44 3 57 17q18 20 18 69q0 80 -106 80q-60 0 -93 -23t-50 -77zM362 246q-54 -10 -90 -13q-101 -9 -128 -20q-61 -27 -61 -89q0 -39 26 -62.5t70 -23.5q43 0 83 23.5t62 61.5q19 32 38 123z" horiz-adv-x="502" unicode="a"/>
<glyph glyph-name="b" d="M162 667h60l-49 -234q74 74 155 74q80 0 129.5 -56t49.5 -147q0 -135 -77 -228t-189 -93q-109 0 -144 96l-17 -79h-60zM323 454q-116 0 -168 -127q-34 -83 -34 -154q0 -61 34 -98t90 -37q79 0 129 66q32 42 51.5 98t19.5 106q0 56 -30 99q-33 47 -92 47z" horiz-adv-x="545" unicode="b"/>
<glyph glyph-name="c" d="M490 333h-62q-4 58 -37.5 89t-90.5 31q-91 0 -147 -89q-45 -72 -45 -163q0 -78 35 -121t98 -43q51 0 94 34t66 92h66q-26 -84 -87 -132t-141 -48q-95 0 -147 56.5t-52 160.5q0 132 74.5 219.5t187.5 87.5q105 0 155 -69q29 -38 33 -105z" horiz-adv-x="520" unicode="c"/>
<glyph glyph-name="d" d="M505 667h60l-142 -667h-60l15 69q-61 -81 -157 -81q-83 0 -131 57.5t-48 156.5q0 130 72 217.5t179 87.5q56 0 92.5 -24t64.5 -78zM299 453q-84 0 -138 -74q-55 -75 -55 -175q0 -75 34.5 -119.5t91.5 -44.5q71 0 119 56q32 39 51.5 94.5t19.5 111.5q0 70 -33 110.5 t-90 40.5z" horiz-adv-x="550" unicode="d"/>
<glyph glyph-name="e" d="M474 238h-369q-5 -30 -5 -50q0 -71 37 -112t101 -41q50 0 91 30.5t65 85.5h62q-72 -168 -227 -168q-86 0 -137 49q-52 49 -52 159q0 134 75 225t185 91q77 0 129 -47q53 -50 53 -148q0 -38 -8 -74zM112 284h304q5 20 5 38q0 60 -34.5 95.5t-93.5 35.5q-64 0 -111 -44 t-70 -125z" horiz-adv-x="523" unicode="e"/>
<glyph glyph-name="f" d="M203 490h91l-10 -47h-90l-95 -443h-60l94 443h-91l10 47h91l12 53q17 85 43 111q32 30 81 30q16 0 38 -5l-11 -50q-21 3 -27 3q-45 0 -58 -61z" horiz-adv-x="271" unicode="f"/>
<glyph glyph-name="g" d="M6 -57h66q4 -46 37.5 -70t90.5 -24q94 0 135 71q16 27 37 126q-60 -63 -142 -63q-87 0 -137 58t-50 160q0 131 72.5 218.5t180.5 87.5q117 0 153 -100l18 83h60l-103 -483q-24 -115 -76 -163t-153 -48q-86 0 -136.5 39.5t-52.5 107.5zM297 453q-81 0 -135.5 -73.5 t-54.5 -182.5q0 -75 34.5 -117t95.5 -42q73 0 113 49q33 39 53 100.5t20 125.5q0 61 -35.5 100.5t-90.5 39.5z" horiz-adv-x="549" unicode="g"/>
<glyph glyph-name="h" d="M162 667h60l-53 -248q31 42 75 65t92 23q63 0 103.5 -32.5t40.5 -83.5q0 -25 -8 -62l-71 -329h-60l69 323q8 38 8 54q0 34 -27 53q-27 18 -60 18q-44 0 -84.5 -22t-68.5 -61q-30 -41 -42 -105l-56 -260h-60z" horiz-adv-x="528" unicode="h"/>
<glyph glyph-name="i" d="M124 490h62l-104 -490h-62zM162 667h62l-19 -88h-62z" horiz-adv-x="209" unicode="i"/>
<glyph glyph-name="j" d="M118 490h60l-119 -561q-11 -55 -30 -75t-59 -20q-14 0 -28 5l11 51q6 -1 11 -1q16 0 23.5 11t14.5 43zM155 667h62l-18 -88h-62z" horiz-adv-x="195" unicode="j"/>
<glyph glyph-name="k" d="M137 260l268 230h88l-209 -172l136 -318h-69l-115 282l-115 -96l-40 -186h-61l142 667h61z" horiz-adv-x="480" unicode="k"/>
<glyph glyph-name="l" d="M162 667h62l-142 -667h-62z" horiz-adv-x="209" unicode="l"/>
<glyph glyph-name="m" d="M124 490h64l-15 -69q28 40 71 63t90 23q51 0 80.5 -24.5t31.5 -68.5q65 93 173 93q59 0 91.5 -29.5t32.5 -81.5q0 -28 -8 -61l-71 -335h-61l71 335q8 33 8 52q0 31 -20.5 47.5t-58.5 16.5q-61 0 -107 -44t-62 -117l-62 -290h-61l72 335q8 40 8 55q0 28 -20.5 46t-51.5 18 q-65 0 -123 -61q-39 -42 -53 -103l-62 -290h-61z" horiz-adv-x="791" unicode="m"/>
<glyph glyph-name="n" d="M186 490l-16 -74q72 91 168 91q62 0 102.5 -32.5t40.5 -83.5q0 -28 -8 -62l-70 -329h-60l69 323q8 39 8 54q0 33 -23.5 52t-63.5 19q-34 0 -70.5 -16t-62.5 -42q-47 -49 -63 -126l-56 -264h-61l104 490h62z" horiz-adv-x="530" unicode="n"/>
<glyph glyph-name="o" d="M301 507q92 0 145.5 -58t53.5 -158q0 -134 -74 -221t-187 -87q-91 0 -144.5 59t-53.5 159q0 143 87 235q65 71 173 71zM301 458q-87 0 -141 -74q-56 -78 -56 -180q0 -78 37.5 -123t102.5 -45q75 0 123 58q33 39 52.5 93t19.5 106q0 69 -34 117q-36 48 -104 48z" horiz-adv-x="542" unicode="o"/>
<glyph glyph-name="p" d="M124 490h60l-13 -61q50 78 145 78q86 0 136 -55.5t50 -149.5q0 -77 -30 -148.5t-82 -118.5q-57 -52 -139 -52q-109 0 -155 93l-54 -253h-60zM315 455q-38 0 -73 -18.5t-57 -49.5q-28 -41 -45.5 -99.5t-17.5 -112.5q0 -62 34.5 -98.5t94.5 -36.5q63 0 107 48q79 85 79 210 q0 72 -33 114.5t-89 42.5z" horiz-adv-x="540" unicode="p"/>
<glyph glyph-name="q" d="M463 490h60l-142 -667h-60l50 233q-41 -41 -75 -57t-80 -16q-81 0 -129.5 56.5t-48.5 150.5q0 67 23.5 133.5t63.5 110.5q29 34 74 53.5t91 19.5q76 0 122 -46q18 -18 33 -56zM294 453q-82 0 -137.5 -76.5t-55.5 -188.5q0 -72 34.5 -113t95.5 -41q75 0 117 59 q32 44 51.5 105.5t19.5 119.5q0 61 -34.5 98t-90.5 37z" horiz-adv-x="545" unicode="q"/>
<glyph glyph-name="r" d="M124 490h62l-13 -64q47 81 122 81q12 0 35 -4l-12 -57q-20 4 -31 4q-52 0 -90.5 -43.5t-55.5 -120.5l-61 -286h-60z" horiz-adv-x="307" unicode="r"/>
<glyph glyph-name="s" d="M438 349h-61q-1 53 -28 78q-32 29 -91 29q-49 0 -82.5 -25t-33.5 -62q0 -27 17 -44q14 -15 30.5 -23t77.5 -30q71 -26 102 -58t31 -79q0 -66 -54 -109t-138 -43q-107 0 -163 69q-29 38 -29 110h63q0 -42 10 -63q31 -61 119 -61q56 0 93 26t37 66q0 31 -26 51.5t-94 44.5 q-74 26 -99 49q-38 33 -38 87q0 64 50 104.5t127 40.5q83 0 132 -43t48 -115z" horiz-adv-x="458" unicode="s"/>
<glyph glyph-name="t" d="M199 490h83l-10 -47h-83l-69 -325q-7 -32 -7 -46q0 -38 42 -38q29 0 70 24l-11 -55q-46 -20 -77 -20q-40 0 -62.5 22t-22.5 61q0 14 7 52l70 325h-84l10 47h83l30 140h61z" horiz-adv-x="279" unicode="t"/>
<glyph glyph-name="u" d="M341 0l16 74q-72 -91 -167 -91q-63 0 -103.5 32.5t-40.5 83.5q0 24 8 62l70 329h61l-69 -323q-7 -34 -7 -54q0 -33 23 -52t63 -19q33 0 69.5 16t62.5 42q46 46 64 126l56 264h60l-104 -490h-62z" horiz-adv-x="530" unicode="u"/>
<glyph glyph-name="v" d="M54 490h67l64 -418l206 418h71l-256 -490h-67z" horiz-adv-x="438" unicode="v"/>
<glyph glyph-name="w" d="M54 490h69l48 -404l167 404h73l49 -405l169 405h72l-216 -490h-72l-51 399l-170 -399h-69z" horiz-adv-x="687" unicode="w"/>
<glyph glyph-name="x" d="M128 490l101 -197l150 197h79l-197 -248l131 -242h-74l-100 194l-146 -194h-81l196 242l-133 248h74z" horiz-adv-x="449" unicode="x"/>
<glyph glyph-name="y" d="M400 490h72l-302 -590q-28 -54 -57 -77t-69 -23q-12 0 -29 4l12 54q13 -3 20 -3q20 0 34 13t33 51l41 82l-101 489h65l82 -412z" horiz-adv-x="448" unicode="y"/>
<glyph glyph-name="z" d="M77 490h374l-11 -49l-348 -391h301l-11 -50h-380l11 50l347 391h-293z" horiz-adv-x="449" unicode="z"/>
<glyph glyph-name="braceleft" d="M218 525l-28 -135q-12 -50 -28 -74.5t-47 -39.5q32 -22 32 -62q0 -20 -6 -54l-27 -127q-7 -35 -7 -50q0 -24 13.5 -34.5t44.5 -10.5h13l-11 -51h-14q-55 1 -78.5 20.5t-23.5 64.5q0 28 8 63l26 124q6 27 6 42q0 42 -37 53l10 48q31 9 46.5 29t24.5 62l29 138 q16 79 53 108.5t116 27.5l-11 -51q-51 -1 -72.5 -19.5t-31.5 -71.5z" horiz-adv-x="500" unicode="{"/>
<glyph glyph-name="bar" d="M216 667h68v-834h-68v834z" horiz-adv-x="500" unicode="|"/>
<glyph glyph-name="braceright" d="M86 29l28 135q12 50 28 74.5t46 39.5q-31 23 -31 62q0 22 6 54l27 127q7 28 7 50q0 24 -13.5 34.5t-44.5 10.5h-13l11 51h14q55 -1 78.5 -20.5t23.5 -64.5q0 -25 -8 -63l-27 -124q-5 -28 -5 -42q0 -40 37 -53l-10 -47q-31 -10 -46.5 -30.5t-24.5 -61.5l-30 -138 q-16 -78 -52.5 -107.5t-115.5 -28.5l11 51q51 2 72 20t32 71z" horiz-adv-x="298" unicode="}"/>
<glyph glyph-name="asciitilde" d="M186 584l-38 30q53 108 133 108q40 0 115 -39q69 -35 99 -35q27 0 48.5 17.5t45.5 59.5l37 -30q-54 -109 -133 -109q-34 0 -116 41q-67 33 -98 33q-27 0 -48.5 -17.5t-44.5 -58.5z" horiz-adv-x="667" unicode="~"/>
<glyph glyph-name="exclamdown" d="M83 -113h-68l45 212l68 287h44l-47 -302zM201 464h-76l19 89h76z" horiz-adv-x="241" unicode="¡"/>
<glyph glyph-name="cent" d="M346 681h38l-19 -90q78 -14 114 -53.5t46 -119.5h-63q-1 51 -30 83.5t-78 37.5l-88 -413q56 -1 101.5 32t68.5 92h67q-27 -71 -68 -111q-70 -68 -149 -68q-3 0 -31 2l-18 -85h-39l20 91q-48 10 -86 47q-55 53 -55 162q0 79 32 150t87 112q53 39 131 44zM229 134l87 405 q-67 -14 -106 -60q-30 -35 -48.5 -87t-18.5 -104q0 -72 32 -117q16 -21 54 -37z" unicode="¢"/>
<glyph glyph-name="sterling" d="M215 352h184l-9 -43h-168q4 -37 4 -56q0 -43 -19.5 -87.5t-67.5 -109.5q42 18 85 18q30 0 82 -11q58 -12 78 -12q50 0 97 28l-13 -65q-51 -22 -94 -22q-36 0 -98 17q-55 14 -89 14q-27 0 -47 -7t-69 -33l-26 51q44 29 65 57q49 64 49 159q0 21 -3 59h-94l9 43h78 q-14 67 -14 110q0 98 59.5 160t153.5 62q80 0 128.5 -48.5t48.5 -128.5q0 -3 -2 -27h-61q1 10 1 22q0 49 -19 80q-13 22 -39.5 35t-58.5 13q-59 0 -100 -44q-42 -46 -42 -137q0 -44 11 -97z" unicode="£"/>
<glyph glyph-name="currency" d="M31 121l91 93q-51 68 -51 143t52 142l-95 93l36 37l94 -94q69 53 145 53q75 0 144 -52l93 92l36 -36l-93 -93q52 -67 52 -143q0 -74 -51 -142l94 -93l-36 -37l-94 94q-67 -52 -144 -52q-74 0 -144 52l-94 -94zM305 531q-73 0 -124 -50.5t-51 -124.5q0 -71 51 -122 t122 -51t122 51t51 122q0 72 -50.5 123.5t-120.5 51.5z" unicode="¤"/>
<glyph glyph-name="yen" d="M450 437h112l-10 -46h-132l-67 -107h190l-10 -46h-190l-50 -238h-68l50 238h-190l10 46h190l3 12l-39 95h-145l10 46h116l-94 230h74l119 -309l188 309h77z" unicode="¥"/>
<glyph glyph-name="brokenbar" d="M216 667h68v-332h-68v332zM216 153h68v-320h-68v320z" horiz-adv-x="500" unicode="¦"/>
<glyph glyph-name="section" d="M28 8h64q5 -35 38.5 -58t81.5 -23q57 0 95.5 31t38.5 77q0 41 -34 70q-21 17 -81 48q-81 41 -109 71q-36 39 -36 88q0 41 24 73t83 69q-23 29 -30.5 46t-7.5 40q0 59 48 97.5t121 38.5q76 0 121 -34t49 -95h-58q-4 25 -12 37.5t-25 24.5q-33 22 -73 22q-46 0 -78 -25.5 t-32 -60.5q0 -42 43 -71q15 -10 79 -44q54 -29 72 -41.5t33 -29.5q34 -40 34 -91q0 -40 -22 -71t-78 -68q21 -27 28 -44.5t7 -42.5q0 -72 -56 -118t-144 -46q-73 0 -126 37.5t-58 92.5zM228 425q-81 -45 -81 -102q0 -44 47 -75q20 -13 99 -53q28 -16 53 -34q33 24 45 36 q29 27 29 63q0 39 -32 69q-20 18 -78 48t-82 48z" horiz-adv-x="546" unicode="§"/>
<glyph glyph-name="dieresis" d="M193 672h66l-18 -83h-66zM368 672h66l-18 -83h-66z" horiz-adv-x="500" unicode="¨"/>
<glyph glyph-name="copyright" d="M571 408h-48l-1 7q-2 36 -29 58.5t-66 22.5q-64 0 -109 -56t-45 -136q0 -59 29 -93.5t78 -34.5q42 0 75.5 26.5t52.5 75.5h48l-3 -7q-20 -64 -66 -99.5t-107 -35.5q-73 0 -114.5 45.5t-41.5 125.5q0 98 58 164.5t144 66.5q60 0 98 -32t46 -88zM421 679q134 0 228 -95.5 t94 -232.5q0 -148 -107.5 -255.5t-255.5 -107.5q-137 0 -232 95t-95 233q0 149 108.5 256t259.5 107zM418 638q-132 0 -226 -94.5t-94 -226.5q0 -121 83 -204.5t202 -83.5q128 0 221.5 95t93.5 226q0 120 -82 204t-198 84z" horiz-adv-x="762" unicode="©"/>
<glyph glyph-name="ordfeminine" d="M141 472h-51q28 102 139 102q48 0 78 -22t30 -57q0 -13 -6 -39l-29 -130q-2 -8 -2 -13q0 -12 14 -12q7 0 17 6q2 2 4.5 3.5t4.5 3.5l2 1l-11 -47q-19 -5 -28 -5q-39 0 -51 30q-40 -36 -93 -36q-44 0 -72 24t-28 61q0 29 17.5 52.5t46.5 33.5q33 12 123 17q25 1 33 9.5 t8 34.5q0 42 -61 42q-37 0 -55.5 -13t-29.5 -46zM271 409q-28 -4 -48 -6q-60 -5 -78 -11q-35 -14 -35 -47q0 -21 14.5 -33t39.5 -12q26 0 49.5 13t36.5 34q10 16 21 62z" horiz-adv-x="345" unicode="ª"/>
<glyph glyph-name="guillemotleft" d="M89 257l94 -103l-15 -72l-127 141l15 70l186 134l-15 -66zM267 257l95 -103l-16 -72l-127 141l14 67l187 137l-14 -66z" horiz-adv-x="439" unicode="«"/>
<glyph glyph-name="logicalnot" d="M373 0v215h-366v60h433v-275h-67z" horiz-adv-x="500" unicode="¬"/>
<glyph glyph-name="registered" d="M316 318l-37 -171h-48l82 380h129q45 0 70 -12q52 -24 52 -86q0 -37 -16.5 -59.5t-54.5 -36.5q33 -22 33 -62q0 -10 -9 -72q-2 -18 -2 -23q0 -8 9 -16l-3 -13h-51q-2 19 -2 27q0 16 5 50q4 24 4 38q0 32 -14 44t-50 12h-97zM325 356h90q101 0 101 73q0 31 -16.5 44.5 t-53.5 13.5h-93zM421 679q134 0 228 -95.5t94 -232.5q0 -148 -107.5 -255.5t-255.5 -107.5q-137 0 -232 95t-95 233q0 149 108.5 256t259.5 107zM418 638q-132 0 -226 -94.5t-94 -226.5q0 -121 83 -204.5t202 -83.5q128 0 221.5 95t93.5 226q0 120 -82 204t-198 84z" horiz-adv-x="762" unicode="®"/>
<glyph glyph-name="degree" d="M246 680q59 0 101 -41t42 -98q0 -58 -41.5 -99t-100.5 -41q-60 0 -101.5 41t-41.5 100q0 56 42 97t100 41zM247 631q-38 0 -65.5 -26.5t-27.5 -62.5q0 -39 27 -65.5t66 -26.5q38 0 65 26.5t27 63.5t-27 64t-65 27z" horiz-adv-x="373" unicode="°"/>
<glyph glyph-name="plusminus" d="M333 341l-48 -221h-60l47 221h-198l11 53h199l45 215h61l-46 -215h199l-11 -53h-199zM3 8l11 53h459l-12 -53h-458z" unicode="±"/>
<glyph glyph-name="twosuperior" d="M133 311h215l-10 -44h-264l2 10l2 8q14 59 44 90.5t123 81.5q49 27 69 52t20 58q0 29 -21.5 48t-55.5 19q-81 0 -96 -95h-51q26 136 148 136q56 0 91 -30.5t35 -80.5q0 -62 -57 -108q-24 -18 -110 -65q-74 -41 -84 -80z" horiz-adv-x="385" unicode="²"/>
<glyph glyph-name="threesuperior" d="M167 553h-52q12 41 24 60q36 62 122 62q53 0 87 -29t34 -75q0 -65 -69 -95q51 -28 51 -85q0 -55 -44.5 -93.5t-107.5 -38.5q-61 0 -98 31t-37 81v7v8h48v-8q0 -35 22.5 -55.5t61.5 -20.5q45 0 74 25t29 64q0 31 -22.5 49t-60.5 18q-10 0 -36 -3l10 44q20 -2 34 -2 q42 0 67.5 20.5t25.5 53.5q0 28 -20.5 45t-52.5 17q-72 0 -90 -80z" horiz-adv-x="385" unicode="³"/>
<glyph glyph-name="acute" d="M335 694h94l-142 -127h-55z" horiz-adv-x="500" unicode="´"/>
<glyph glyph-name="paragraph" d="M572 667l-166 -780h-62l152 715h-80l-152 -715h-62l93 439q-72 6 -102 14t-56 27q-59 43 -59 122q0 96 90 150q42 24 98 27q5 1 102 1h204z" horiz-adv-x="580" unicode="¶"/>
<glyph glyph-name="cedilla" d="M200 0h42l-60 -64q33 -1 51.5 -15t18.5 -39q0 -30 -27 -50t-67 -20q-36 0 -69 18l15 29q27 -13 51 -13q20 0 33.5 10t13.5 25q0 12 -8.5 19.5t-22.5 7.5q-9 0 -24 -5l-19 17z" horiz-adv-x="500" unicode="¸"/>
<glyph glyph-name="onesuperior" d="M292 667h42l-90 -400h-50l72 321q-32 -29 -111 -39l9 40q4 0 13 3q85 23 115 75z" horiz-adv-x="385" unicode="¹"/>
<glyph glyph-name="ordmasculine" d="M240 573q59 0 94 -35.5t35 -95.5q0 -80 -47.5 -132.5t-119.5 -52.5q-59 0 -94 36t-35 96q0 81 46.5 132.5t120.5 51.5zM239 534q-49 0 -83 -41t-34 -101q0 -43 22 -68t60 -25q47 0 81.5 43t34.5 102q0 41 -22 65.5t-59 24.5z" horiz-adv-x="369" unicode="º"/>
<glyph glyph-name="guillemotright" d="M353 257l-95 103l16 72l127 -141l-14 -67l-187 -141l14 70zM175 257l-95 103l15 72l128 -141l-15 -67l-186 -137l14 66z" horiz-adv-x="439" unicode="»"/>
<glyph glyph-name="onequarter" d="M292 667h42l-90 -400h-50l72 321q-32 -29 -111 -39l9 40q4 0 13 3q85 23 115 75zM647 667h52l-390 -667h-52zM784 98l-22 -98h-51l22 98h-185l8 34l251 268h46l-59 -261h65l-9 -41h-66zM742 139l41 181l-166 -181h125z" horiz-adv-x="921" unicode="¼"/>
<glyph glyph-name="onehalf" d="M292 667h42l-90 -400h-50l72 321q-32 -29 -111 -39l9 40q4 0 13 3q85 23 115 75zM647 667h52l-390 -667h-52zM613 44h215l-11 -44h-263l2 10l1 8q14 59 44 90.5t123 81.5q49 27 69 51.5t20 57.5q0 29 -21.5 48t-55.5 19q-80 0 -95 -94h-51q24 135 147 135q56 0 91 -30.5 t35 -80.5q0 -61 -57 -107q-22 -17 -109 -65q-74 -41 -84 -80z" horiz-adv-x="921" unicode="½"/>
<glyph glyph-name="threequarters" d="M167 553h-52q12 41 24 60q36 62 122 62q53 0 87 -29t34 -75q0 -65 -69 -95q51 -28 51 -85q0 -55 -44.5 -93.5t-107.5 -38.5q-61 0 -98 31t-37 81v7v8h48v-8q0 -35 22.5 -55.5t61.5 -20.5q45 0 74 25t29 64q0 31 -22.5 49t-60.5 18q-10 0 -36 -3l10 44q20 -2 34 -2 q42 0 67.5 20.5t25.5 53.5q0 28 -20.5 45t-52.5 17q-72 0 -90 -80zM648 667h51l-389 -667h-52zM785 98l-22 -98h-52l22 98h-184l7 34l252 268h45l-59 -261h66l-10 -41h-65zM743 139l41 181l-167 -181h126z" horiz-adv-x="921" unicode="¾"/>
<glyph glyph-name="questiondown" d="M237 382h65q-18 -85 -44 -122.5t-93 -74.5q-61 -35 -87 -68.5t-26 -76.5q0 -50 36 -82.5t91 -32.5q62 0 102.5 39.5t47.5 105.5h67q-14 -95 -59 -140q-60 -62 -163 -62q-82 0 -135.5 49t-53.5 124q0 79 67 139q23 21 82 54q52 29 71 56t32 92zM265 553h79l-19 -89h-79z " horiz-adv-x="472" unicode="¿"/>
<glyph glyph-name="Agrave" d="M428 211h-278l-113 -211h-74l375 667h72l121 -667h-69zM420 261l-56 347l-187 -347h243zM312 860l103 -126h-55l-142 126h94z" horiz-adv-x="595" unicode="À"/>
<glyph glyph-name="Aacute" d="M428 211h-278l-113 -211h-74l375 667h72l121 -667h-69zM420 261l-56 347l-187 -347h243zM441 860h94l-142 -126h-55z" horiz-adv-x="595" unicode="Á"/>
<glyph glyph-name="Acircumflex" d="M428 211h-278l-113 -211h-74l375 667h72l121 -667h-69zM420 261l-56 347l-187 -347h243zM360 861h76l76 -128h-62l-55 93l-94 -93h-72z" horiz-adv-x="595" unicode="Â"/>
<glyph glyph-name="Atilde" d="M428 211h-278l-113 -211h-74l375 667h72l121 -667h-69zM420 261l-56 347l-187 -347h243zM495 841l39 -18q-28 -71 -88 -71q-27 0 -67 20q-45 23 -63 23q-28 0 -45 -40l-39 19q22 37 42 52.5t46 15.5q27 0 100 -33q14 -7 32 -7q29 0 43 39z" horiz-adv-x="595" unicode="Ã"/>
<glyph glyph-name="Adieresis" d="M428 211h-278l-113 -211h-74l375 667h72l121 -667h-69zM420 261l-56 347l-187 -347h243zM286 838h66l-18 -83h-66zM461 838h66l-18 -83h-66z" horiz-adv-x="595" unicode="Ä"/>
<glyph glyph-name="Aring" d="M428 211h-278l-113 -211h-74l375 667h72l121 -667h-69zM420 261l-56 347l-187 -347h243zM386 884q35 0 58 -23.5t23 -59.5t-23 -59t-59 -23t-59.5 23.5t-23.5 58.5q0 37 23.5 60t60.5 23zM385 848q-19 0 -33 -14t-14 -33t13.5 -32.5t32.5 -13.5t33 13.5t14 32.5t-13.5 33 t-32.5 14z" horiz-adv-x="595" unicode="Å"/>
<glyph glyph-name="AE" d="M545 611l-49 -231h320l-12 -55h-320l-57 -267h359l-13 -58h-424l44 207h-236l-119 -207h-75l392 667h513l-12 -56h-311zM405 264l74 347h-88l-203 -347h217z" horiz-adv-x="869" unicode="Æ"/>
<glyph glyph-name="Ccedilla" d="M351 -19l-44 -52h11q28 0 49 -17.5t21 -41.5q0 -31 -28.5 -53t-68.5 -22q-34 0 -74 17l15 29q32 -11 50 -11q23 0 39 12t16 29q0 13 -10.5 23t-24.5 10q-10 0 -25 -8l-20 14l56 71q-119 8 -184 86.5t-65 212.5q0 88 31.5 169.5t88.5 141.5q91 96 230 96q129 0 202 -90 q36 -42 47 -125h-66q-6 71 -55.5 115t-124.5 44q-59 0 -115 -29.5t-92 -80.5q-77 -107 -77 -247q0 -111 54 -176.5t146 -65.5q107 0 186 98q27 31 48 87h66q-33 -105 -110 -169.5t-172 -66.5z" horiz-adv-x="679" unicode="Ç"/>
<glyph glyph-name="Egrave" d="M223 610l-50 -237h330l-11 -55h-331l-56 -261h366l-13 -57h-431l142 667h384l-12 -57h-318zM312 860l103 -126h-55l-142 126h94z" horiz-adv-x="553" unicode="È"/>
<glyph glyph-name="Eacute" d="M223 610l-50 -237h330l-11 -55h-331l-56 -261h366l-13 -57h-431l142 667h384l-12 -57h-318zM394 860h94l-142 -126h-55z" horiz-adv-x="553" unicode="É"/>
<glyph glyph-name="Ecircumflex" d="M223 610l-50 -237h330l-11 -55h-331l-56 -261h366l-13 -57h-431l142 667h384l-12 -57h-318zM360 861h76l76 -128h-62l-55 93l-94 -93h-72z" horiz-adv-x="553" unicode="Ê"/>
<glyph glyph-name="Edieresis" d="M223 610l-50 -237h330l-11 -55h-331l-56 -261h366l-13 -57h-431l142 667h384l-12 -57h-318zM265 838h66l-18 -83h-66zM440 838h66l-18 -83h-66z" horiz-adv-x="553" unicode="Ë"/>
<glyph glyph-name="Igrave" d="M169 667h67l-142 -667h-67zM149 860l103 -126h-55l-142 126h94z" horiz-adv-x="227" unicode="Ì"/>
<glyph glyph-name="Iacute" d="M169 667h67l-142 -667h-67zM271 860h94l-142 -126h-55z" horiz-adv-x="227" unicode="Í"/>
<glyph glyph-name="Icircumflex" d="M169 667h67l-142 -667h-67zM193 861h76l76 -128h-62l-55 93l-94 -93h-72z" horiz-adv-x="227" unicode="Î"/>
<glyph glyph-name="Idieresis" d="M169 667h67l-142 -667h-67zM136 838h66l-18 -83h-66zM257 838h66l-17 -83h-66z" horiz-adv-x="227" unicode="Ï"/>
<glyph glyph-name="Eth" d="M30 0l72 340h-66l10 47h66l60 280h187q75 0 122.5 -15.5t82.5 -50.5q72 -75 72 -204q0 -88 -34.5 -173t-92.5 -138q-94 -86 -240 -86h-239zM109 57h160q136 0 211 86q88 103 88 256q0 120 -64 175q-47 40 -154 40h-123l-48 -227h200l-10 -47h-200z" horiz-adv-x="664" unicode="Ð"/>
<glyph glyph-name="Ntilde" d="M525 0h-77l-232 578l-123 -578h-66l142 667h74l236 -576l123 576h65zM542 841l39 -18q-28 -71 -88 -71q-27 0 -67 20q-45 23 -63 23q-28 0 -45 -40l-39 19q22 37 42 52.5t46 15.5q27 0 100 -33q14 -7 32 -7q29 0 43 39z" horiz-adv-x="659" unicode="Ñ"/>
<glyph glyph-name="Ograve" d="M420 687q105 0 174 -56q45 -37 70 -99.5t25 -138.5q0 -170 -104 -291.5t-250 -121.5q-108 0 -184 70q-85 78 -85 222q0 180 100 297.5t254 117.5zM422 634q-123 0 -202 -99q-89 -111 -89 -262q0 -109 56.5 -173.5t152.5 -64.5q115 0 199 107t84 253q0 111 -54 175 t-147 64zM375 860l103 -126h-55l-142 126h94z" horiz-adv-x="719" unicode="Ò"/>
<glyph glyph-name="Oacute" d="M420 687q105 0 174 -56q45 -37 70 -99.5t25 -138.5q0 -170 -104 -291.5t-250 -121.5q-108 0 -184 70q-85 78 -85 222q0 180 100 297.5t254 117.5zM422 634q-123 0 -202 -99q-89 -111 -89 -262q0 -109 56.5 -173.5t152.5 -64.5q115 0 199 107t84 253q0 111 -54 175 t-147 64zM451 860h94l-142 -126h-55z" horiz-adv-x="719" unicode="Ó"/>
<glyph glyph-name="Ocircumflex" d="M420 687q105 0 174 -56q45 -37 70 -99.5t25 -138.5q0 -170 -104 -291.5t-250 -121.5q-108 0 -184 70q-85 78 -85 222q0 180 100 297.5t254 117.5zM422 634q-123 0 -202 -99q-89 -111 -89 -262q0 -109 56.5 -173.5t152.5 -64.5q115 0 199 107t84 253q0 111 -54 175 t-147 64zM409 861h76l76 -128h-62l-55 93l-94 -93h-72z" horiz-adv-x="719" unicode="Ô"/>
<glyph glyph-name="Otilde" d="M420 687q105 0 174 -56q45 -37 70 -99.5t25 -138.5q0 -170 -104 -291.5t-250 -121.5q-108 0 -184 70q-85 78 -85 222q0 180 100 297.5t254 117.5zM422 634q-123 0 -202 -99q-89 -111 -89 -262q0 -109 56.5 -173.5t152.5 -64.5q115 0 199 107t84 253q0 111 -54 175 t-147 64zM551 841l39 -18q-28 -71 -88 -71q-27 0 -67 20q-45 23 -63 23q-28 0 -45 -40l-39 19q22 37 42 52.5t46 15.5q27 0 100 -33q14 -7 32 -7q29 0 43 39z" horiz-adv-x="719" unicode="Õ"/>
<glyph glyph-name="Odieresis" d="M420 687q105 0 174 -56q45 -37 70 -99.5t25 -138.5q0 -170 -104 -291.5t-250 -121.5q-108 0 -184 70q-85 78 -85 222q0 180 100 297.5t254 117.5zM422 634q-123 0 -202 -99q-89 -111 -89 -262q0 -109 56.5 -173.5t152.5 -64.5q115 0 199 107t84 253q0 111 -54 175 t-147 64zM348 838h66l-18 -83h-66zM523 838h66l-18 -83h-66z" horiz-adv-x="719" unicode="Ö"/>
<glyph glyph-name="multiply" d="M486 145l-47 -37l-145 184l-236 -185l-37 47l236 185l-144 183l48 37l143 -183l235 185l38 -47l-236 -185z" unicode="×"/>
<glyph glyph-name="Oslash" d="M45 0l70 82q-57 75 -57 194q0 98 36.5 185.5t102.5 147.5q86 78 213 78q105 0 178 -56l62 71l36 -31l-65 -75q61 -81 61 -205q0 -169 -104 -290t-248 -121q-96 0 -183 67l-68 -78zM156 131l393 453q-50 50 -138 50q-108 0 -180 -77q-51 -55 -80 -129t-29 -149 q0 -81 34 -148zM579 547l-393 -454q69 -58 147 -58q115 0 198.5 106t83.5 251q0 91 -36 155z" horiz-adv-x="718" unicode="Ø"/>
<glyph glyph-name="Ugrave" d="M581 667h67l-93 -436q-14 -63 -28 -97t-40 -64q-73 -90 -202 -90q-96 0 -159.5 54t-63.5 136q0 27 14 92l86 405h66l-88 -417q-12 -55 -12 -80q0 -56 45 -94.5t111 -38.5q49 0 94.5 25t72.5 67q25 42 40 114zM358 860l103 -126h-55l-142 126h94z" horiz-adv-x="632" unicode="Ù"/>
<glyph glyph-name="Uacute" d="M581 667h67l-93 -436q-14 -63 -28 -97t-40 -64q-73 -90 -202 -90q-96 0 -159.5 54t-63.5 136q0 27 14 92l86 405h66l-88 -417q-12 -55 -12 -80q0 -56 45 -94.5t111 -38.5q49 0 94.5 25t72.5 67q25 42 40 114zM434 860h94l-142 -126h-55z" horiz-adv-x="632" unicode="Ú"/>
<glyph glyph-name="Ucircumflex" d="M581 667h67l-93 -436q-14 -63 -28 -97t-40 -64q-73 -90 -202 -90q-96 0 -159.5 54t-63.5 136q0 27 14 92l86 405h66l-88 -417q-12 -55 -12 -80q0 -56 45 -94.5t111 -38.5q49 0 94.5 25t72.5 67q25 42 40 114zM392 861h76l76 -128h-62l-55 93l-94 -93h-72z" horiz-adv-x="632" unicode="Û"/>
<glyph glyph-name="Udieresis" d="M581 667h67l-93 -436q-14 -63 -28 -97t-40 -64q-73 -90 -202 -90q-96 0 -159.5 54t-63.5 136q0 27 14 92l86 405h66l-88 -417q-12 -55 -12 -80q0 -56 45 -94.5t111 -38.5q49 0 94.5 25t72.5 67q25 42 40 114zM318 838h66l-18 -83h-66zM493 838h66l-18 -83h-66z" horiz-adv-x="632" unicode="Ü"/>
<glyph glyph-name="Yacute" d="M522 667h78l-276 -416l-53 -251h-68l56 263l-171 404h74l138 -343zM380 860h94l-142 -126h-55z" horiz-adv-x="525" unicode="Ý"/>
<glyph glyph-name="Thorn" d="M135 196l-42 -196h-66l142 667h66l-20 -94h108q68 0 105 -10t67 -37q52 -45 52 -126q0 -97 -63.5 -150.5t-178.5 -53.5h-170zM146 248h133q96 0 137 25q30 18 48 53t18 75q0 64 -44 95q-34 23 -104 23h-130z" horiz-adv-x="553" unicode="Þ"/>
<glyph glyph-name="germandbls" d="M80 0h-60l104 489q16 79 45 121q26 38 69 59.5t91 21.5q73 0 119 -44t46 -113q0 -75 -53 -120q-26 -23 -77 -40q97 -32 97 -142q0 -101 -69.5 -171.5t-169.5 -70.5q-36 0 -73 9l11 50q42 -7 62 -7q75 0 125 52.5t50 131.5q0 70 -55 108q-31 23 -102 23h-6l10 49 q18 -2 38 -2q61 0 97 25q55 39 55 101q0 46 -30.5 75.5t-77.5 29.5q-57 0 -91 -35t-50 -110z" horiz-adv-x="511" unicode="ß"/>
<glyph glyph-name="agrave" d="M135 351h-65q19 75 74.5 115.5t138.5 40.5q73 0 119 -34.5t46 -90.5q0 -22 -9 -66l-47 -222q-4 -15 -4 -28q0 -27 30 -27q16 0 33 13l-11 -52q-21 -7 -39 -7q-35 0 -52 13t-24 46q-63 -69 -155 -69q-67 0 -110 38t-43 98q0 46 26.5 83.5t70.5 55.5q53 20 195 27 q44 3 57 17q18 20 18 69q0 80 -106 80q-60 0 -93 -23t-50 -77zM362 246q-54 -10 -90 -13q-101 -9 -128 -20q-61 -27 -61 -89q0 -39 26 -62.5t70 -23.5q43 0 83 23.5t62 61.5q19 32 38 123zM240 694l103 -127h-55l-142 127h94z" horiz-adv-x="502" unicode="à"/>
<glyph glyph-name="aacute" d="M135 351h-65q19 75 74.5 115.5t138.5 40.5q73 0 119 -34.5t46 -90.5q0 -22 -9 -66l-47 -222q-4 -15 -4 -28q0 -27 30 -27q16 0 33 13l-11 -52q-21 -7 -39 -7q-35 0 -52 13t-24 46q-63 -69 -155 -69q-67 0 -110 38t-43 98q0 46 26.5 83.5t70.5 55.5q53 20 195 27 q44 3 57 17q18 20 18 69q0 80 -106 80q-60 0 -93 -23t-50 -77zM362 246q-54 -10 -90 -13q-101 -9 -128 -20q-61 -27 -61 -89q0 -39 26 -62.5t70 -23.5q43 0 83 23.5t62 61.5q19 32 38 123zM336 694h94l-142 -127h-55z" horiz-adv-x="502" unicode="á"/>
<glyph glyph-name="acircumflex" d="M135 351h-65q19 75 74.5 115.5t138.5 40.5q73 0 119 -34.5t46 -90.5q0 -22 -9 -66l-47 -222q-4 -15 -4 -28q0 -27 30 -27q16 0 33 13l-11 -52q-21 -7 -39 -7q-35 0 -52 13t-24 46q-63 -69 -155 -69q-67 0 -110 38t-43 98q0 46 26.5 83.5t70.5 55.5q53 20 195 27 q44 3 57 17q18 20 18 69q0 80 -106 80q-60 0 -93 -23t-50 -77zM362 246q-54 -10 -90 -13q-101 -9 -128 -20q-61 -27 -61 -89q0 -39 26 -62.5t70 -23.5q43 0 83 23.5t62 61.5q19 32 38 123zM274 694h76l76 -127h-62l-55 92l-94 -92h-72z" horiz-adv-x="502" unicode="â"/>
<glyph glyph-name="atilde" d="M135 351h-65q19 75 74.5 115.5t138.5 40.5q73 0 119 -34.5t46 -90.5q0 -22 -9 -66l-47 -222q-4 -15 -4 -28q0 -27 30 -27q16 0 33 13l-11 -52q-21 -7 -39 -7q-35 0 -52 13t-24 46q-63 -69 -155 -69q-67 0 -110 38t-43 98q0 46 26.5 83.5t70.5 55.5q53 20 195 27 q44 3 57 17q18 20 18 69q0 80 -106 80q-60 0 -93 -23t-50 -77zM362 246q-54 -10 -90 -13q-101 -9 -128 -20q-61 -27 -61 -89q0 -39 26 -62.5t70 -23.5q43 0 83 23.5t62 61.5q19 32 38 123zM430 675l39 -18q-28 -71 -88 -71q-27 0 -67 20q-45 23 -63 23q-28 0 -45 -41l-39 20 q23 38 42.5 53t45.5 15q27 0 100 -33q14 -7 32 -7q28 0 43 39z" horiz-adv-x="502" unicode="ã"/>
<glyph glyph-name="adieresis" d="M135 351h-65q19 75 74.5 115.5t138.5 40.5q73 0 119 -34.5t46 -90.5q0 -22 -9 -66l-47 -222q-4 -15 -4 -28q0 -27 30 -27q16 0 33 13l-11 -52q-21 -7 -39 -7q-35 0 -52 13t-24 46q-63 -69 -155 -69q-67 0 -110 38t-43 98q0 46 26.5 83.5t70.5 55.5q53 20 195 27 q44 3 57 17q18 20 18 69q0 80 -106 80q-60 0 -93 -23t-50 -77zM362 246q-54 -10 -90 -13q-101 -9 -128 -20q-61 -27 -61 -89q0 -39 26 -62.5t70 -23.5q43 0 83 23.5t62 61.5q19 32 38 123zM194 672h66l-18 -83h-66zM369 672h66l-18 -83h-66z" horiz-adv-x="502" unicode="ä"/>
<glyph glyph-name="aring" d="M135 351h-65q19 75 74.5 115.5t138.5 40.5q73 0 119 -34.5t46 -90.5q0 -22 -9 -66l-47 -222q-4 -15 -4 -28q0 -27 30 -27q16 0 33 13l-11 -52q-21 -7 -39 -7q-35 0 -52 13t-24 46q-63 -69 -155 -69q-67 0 -110 38t-43 98q0 46 26.5 83.5t70.5 55.5q53 20 195 27 q44 3 57 17q18 20 18 69q0 80 -106 80q-60 0 -93 -23t-50 -77zM362 246q-54 -10 -90 -13q-101 -9 -128 -20q-61 -27 -61 -89q0 -39 26 -62.5t70 -23.5q43 0 83 23.5t62 61.5q19 32 38 123zM298 724q35 0 58 -23.5t23 -59.5t-23 -59t-59 -23t-59.5 23.5t-23.5 58.5 q0 37 23.5 60t60.5 23zM297 688q-19 0 -33 -14t-14 -33t13.5 -32.5t32.5 -13.5t33 13.5t14 32.5t-13.5 33t-32.5 14z" horiz-adv-x="502" unicode="å"/>
<glyph glyph-name="ae" d="M129 353h-64q21 64 51 95q57 59 158 59q99 0 146 -82q65 82 168 82q81 0 128.5 -52t47.5 -142q0 -32 -9 -74h-352q-4 -28 -4 -47q0 -74 33 -115t91 -41q51 0 92.5 32t61.5 87h62q-25 -79 -84 -125.5t-133 -46.5q-59 0 -103.5 29.5t-63.5 81.5q-67 -111 -180 -111 q-71 0 -116 38.5t-45 100.5q0 38 17.5 72.5t48.5 54.5q26 17 55.5 23.5t91.5 8.5q87 2 107 10q38 17 38 75q0 41 -30 66t-80 25q-62 0 -100 -40q-21 -21 -33 -64zM413 286h286q4 24 4 42q0 58 -32 92.5t-86 34.5q-68 0 -112 -43t-60 -126zM350 253q-2 -1 -5 -1 q-35 -12 -120 -17q-78 -5 -111 -28q-39 -29 -39 -80q0 -41 28.5 -66.5t74.5 -25.5q38 0 73 20.5t56 55.5q26 43 43 142z" horiz-adv-x="806" unicode="æ"/>
<glyph glyph-name="ccedilla" d="M236 -16l-44 -48q33 -1 51.5 -15t18.5 -39q0 -30 -27 -50t-67 -20q-36 0 -69 18l15 29q26 -13 51 -13q20 0 33.5 10t13.5 25q0 12 -8.5 19.5t-22.5 7.5q-9 0 -24 -5l-19 18l60 66q-158 28 -158 213q0 132 74.5 219.5t187.5 87.5q105 0 155 -69q29 -38 33 -105h-62 q-4 58 -37.5 89t-90.5 31q-91 0 -147 -89q-45 -72 -45 -163q0 -78 35 -121t98 -43q51 0 94 34t66 92h66q-25 -83 -88.5 -132t-142.5 -47z" horiz-adv-x="520" unicode="ç"/>
<glyph glyph-name="egrave" d="M474 238h-369q-5 -30 -5 -50q0 -71 37 -112t101 -41q50 0 91 30.5t65 85.5h62q-72 -168 -227 -168q-86 0 -137 49q-52 49 -52 159q0 134 75 225t185 91q77 0 129 -47q53 -50 53 -148q0 -38 -8 -74zM112 284h304q5 20 5 38q0 60 -34.5 95.5t-93.5 35.5q-64 0 -111 -44 t-70 -125zM264 694l103 -127h-55l-142 127h94z" horiz-adv-x="523" unicode="è"/>
<glyph glyph-name="eacute" d="M474 238h-369q-5 -30 -5 -50q0 -71 37 -112t101 -41q50 0 91 30.5t65 85.5h62q-72 -168 -227 -168q-86 0 -137 49q-52 49 -52 159q0 134 75 225t185 91q77 0 129 -47q53 -50 53 -148q0 -38 -8 -74zM112 284h304q5 20 5 38q0 60 -34.5 95.5t-93.5 35.5q-64 0 -111 -44 t-70 -125zM347 694h94l-142 -127h-55z" horiz-adv-x="523" unicode="é"/>
<glyph glyph-name="ecircumflex" d="M474 238h-369q-5 -30 -5 -50q0 -71 37 -112t101 -41q50 0 91 30.5t65 85.5h62q-72 -168 -227 -168q-86 0 -137 49q-52 49 -52 159q0 134 75 225t185 91q77 0 129 -47q53 -50 53 -148q0 -38 -8 -74zM112 284h304q5 20 5 38q0 60 -34.5 95.5t-93.5 35.5q-64 0 -111 -44 t-70 -125zM298 694h76l76 -127h-62l-55 92l-94 -92h-72z" horiz-adv-x="523" unicode="ê"/>
<glyph glyph-name="edieresis" d="M474 238h-369q-5 -30 -5 -50q0 -71 37 -112t101 -41q50 0 91 30.5t65 85.5h62q-72 -168 -227 -168q-86 0 -137 49q-52 49 -52 159q0 134 75 225t185 91q77 0 129 -47q53 -50 53 -148q0 -38 -8 -74zM112 284h304q5 20 5 38q0 60 -34.5 95.5t-93.5 35.5q-64 0 -111 -44 t-70 -125zM218 672h66l-18 -83h-66zM393 672h66l-18 -83h-66z" horiz-adv-x="523" unicode="ë"/>
<glyph glyph-name="igrave" d="M124 490h62l-104 -490h-62zM141 694l83 -127h-55l-123 127h95z" horiz-adv-x="209" unicode="ì"/>
<glyph glyph-name="iacute" d="M124 490h62l-104 -490h-62zM189 694h94l-142 -127h-55z" horiz-adv-x="209" unicode="í"/>
<glyph glyph-name="icircumflex" d="M125 490h62l-105 -490h-62zM148 694h76l76 -127h-62l-55 92l-94 -92h-72z" horiz-adv-x="209" unicode="î"/>
<glyph glyph-name="idieresis" d="M124 490h62l-104 -490h-62zM94 672h66l-18 -83h-66zM215 672h66l-17 -83h-66z" horiz-adv-x="209" unicode="ï"/>
<glyph glyph-name="eth" d="M245 545l-22 34l86 56q-15 26 -29 49l34 24l18 -27q10 -14 15 -22l90 58l22 -34l-89 -58q71 -102 101.5 -180t30.5 -158q0 -130 -74.5 -217t-186.5 -87q-91 0 -144.5 59t-53.5 160q0 141 87 234q65 71 170 71q51 0 93 -19q-16 33 -63 112zM303 458q-87 0 -141 -74 q-56 -78 -56 -180q0 -78 37.5 -123t102.5 -45q75 0 123 58q33 39 52.5 93t19.5 106q0 69 -34 117q-36 48 -104 48z" horiz-adv-x="546" unicode="ð"/>
<glyph glyph-name="ntilde" d="M186 490l-16 -74q72 91 168 91q62 0 102.5 -32.5t40.5 -83.5q0 -28 -8 -62l-70 -329h-60l69 323q8 39 8 54q0 33 -23.5 52t-63.5 19q-34 0 -70.5 -16t-62.5 -42q-47 -49 -63 -126l-56 -264h-61l104 490h62zM445 675l39 -18q-28 -71 -88 -71q-27 0 -67 20q-45 23 -63 23 q-28 0 -45 -41l-39 20q23 38 42.5 53t45.5 15q27 0 100 -33q14 -7 32 -7q28 0 43 39z" horiz-adv-x="530" unicode="ñ"/>
<glyph glyph-name="ograve" d="M301 507q92 0 145.5 -58t53.5 -158q0 -134 -74 -221t-187 -87q-91 0 -144.5 59t-53.5 159q0 143 87 235q65 71 173 71zM301 458q-87 0 -141 -74q-56 -78 -56 -180q0 -78 37.5 -123t102.5 -45q75 0 123 58q33 39 52.5 93t19.5 106q0 69 -34 117q-36 48 -104 48zM260 694 l103 -127h-55l-142 127h94z" horiz-adv-x="542" unicode="ò"/>
<glyph glyph-name="oacute" d="M301 507q92 0 145.5 -58t53.5 -158q0 -134 -74 -221t-187 -87q-91 0 -144.5 59t-53.5 159q0 143 87 235q65 71 173 71zM301 458q-87 0 -141 -74q-56 -78 -56 -180q0 -78 37.5 -123t102.5 -45q75 0 123 58q33 39 52.5 93t19.5 106q0 69 -34 117q-36 48 -104 48zM356 694 h94l-142 -127h-55z" horiz-adv-x="542" unicode="ó"/>
<glyph glyph-name="ocircumflex" d="M301 507q92 0 145.5 -58t53.5 -158q0 -134 -74 -221t-187 -87q-91 0 -144.5 59t-53.5 159q0 143 87 235q65 71 173 71zM301 458q-87 0 -141 -74q-56 -78 -56 -180q0 -78 37.5 -123t102.5 -45q75 0 123 58q33 39 52.5 93t19.5 106q0 69 -34 117q-36 48 -104 48zM301 694 h76l76 -127h-62l-55 92l-94 -92h-72z" horiz-adv-x="542" unicode="ô"/>
<glyph glyph-name="otilde" d="M301 507q92 0 145.5 -58t53.5 -158q0 -134 -74 -221t-187 -87q-91 0 -144.5 59t-53.5 159q0 143 87 235q65 71 173 71zM301 458q-87 0 -141 -74q-56 -78 -56 -180q0 -78 37.5 -123t102.5 -45q75 0 123 58q33 39 52.5 93t19.5 106q0 69 -34 117q-36 48 -104 48zM444 675 l39 -18q-28 -71 -88 -71q-27 0 -67 20q-45 23 -63 23q-28 0 -45 -41l-39 20q23 38 42.5 53t45.5 15q27 0 100 -33q14 -7 32 -7q28 0 43 39z" horiz-adv-x="542" unicode="õ"/>
<glyph glyph-name="odieresis" d="M301 507q92 0 145.5 -58t53.5 -158q0 -134 -74 -221t-187 -87q-91 0 -144.5 59t-53.5 159q0 143 87 235q65 71 173 71zM301 458q-87 0 -141 -74q-56 -78 -56 -180q0 -78 37.5 -123t102.5 -45q75 0 123 58q33 39 52.5 93t19.5 106q0 69 -34 117q-36 48 -104 48zM213 672 h66l-18 -83h-66zM388 672h66l-18 -83h-66z" horiz-adv-x="542" unicode="ö"/>
<glyph glyph-name="divide" d="M66 308l11 53h459l-12 -53h-458zM330 521q19 0 32.5 -14t13.5 -33q0 -20 -14 -33.5t-33 -13.5t-33 14t-14 33q0 20 14 33.5t34 13.5zM275 242q19 0 32.5 -14t13.5 -33t-13.5 -33t-33.5 -14q-19 0 -33 14t-14 33q0 20 14 33.5t34 13.5z" unicode="÷"/>
<glyph glyph-name="oslash" d="M476 516l34 -31l-52 -58q38 -61 38 -140q0 -65 -24.5 -129t-66.5 -109q-64 -66 -173 -66q-79 0 -132 50l-51 -55l-33 32l55 59q-35 53 -35 133q0 73 27 139.5t74 109.5q61 56 158 56q78 0 132 -44zM115 118l276 303q-42 36 -96 36q-82 0 -135 -67q-63 -79 -63 -179 q0 -47 18 -93zM417 381l-276 -302q36 -42 100 -42q77 0 129 67q64 85 64 189q0 44 -17 88z" horiz-adv-x="538" unicode="ø"/>
<glyph glyph-name="ugrave" d="M341 0l16 74q-72 -91 -167 -91q-63 0 -103.5 32.5t-40.5 83.5q0 24 8 62l70 329h61l-69 -323q-7 -34 -7 -54q0 -33 23 -52t63 -19q33 0 69.5 16t62.5 42q46 46 64 126l56 264h60l-104 -490h-62zM254 694l103 -127h-55l-142 127h94z" horiz-adv-x="530" unicode="ù"/>
<glyph glyph-name="uacute" d="M341 0l16 74q-72 -91 -167 -91q-63 0 -103.5 32.5t-40.5 83.5q0 24 8 62l70 329h61l-69 -323q-7 -34 -7 -54q0 -33 23 -52t63 -19q33 0 69.5 16t62.5 42q46 46 64 126l56 264h60l-104 -490h-62zM376 694h94l-142 -127h-55z" horiz-adv-x="530" unicode="ú"/>
<glyph glyph-name="ucircumflex" d="M341 0l16 74q-72 -91 -167 -91q-63 0 -103.5 32.5t-40.5 83.5q0 24 8 62l70 329h61l-69 -323q-7 -34 -7 -54q0 -33 23 -52t63 -19q33 0 69.5 16t62.5 42q46 46 64 126l56 264h60l-104 -490h-62zM308 694h76l76 -127h-62l-55 92l-94 -92h-72z" horiz-adv-x="530" unicode="û"/>
<glyph glyph-name="udieresis" d="M341 0l16 74q-72 -91 -167 -91q-63 0 -103.5 32.5t-40.5 83.5q0 24 8 62l70 329h61l-69 -323q-7 -34 -7 -54q0 -33 23 -52t63 -19q33 0 69.5 16t62.5 42q46 46 64 126l56 264h60l-104 -490h-62zM221 672h66l-18 -83h-66zM396 672h66l-18 -83h-66z" horiz-adv-x="530" unicode="ü"/>
<glyph glyph-name="yacute" d="M400 490h72l-302 -590q-28 -54 -57 -77t-69 -23q-12 0 -29 4l12 54q13 -3 20 -3q20 0 34 13t33 51l41 82l-101 489h65l82 -412zM309 694h94l-142 -127h-55z" horiz-adv-x="448" unicode="ý"/>
<glyph glyph-name="thorn" d="M161 667h60l-50 -238q49 78 145 78q86 0 136 -55.5t50 -149.5q0 -77 -30 -148.5t-82 -118.5q-57 -52 -139 -52q-109 0 -155 93l-54 -253h-60zM315 455q-38 0 -73 -18.5t-57 -49.5q-28 -41 -45.5 -99.5t-17.5 -112.5q0 -62 34.5 -98.5t94.5 -36.5q63 0 107 48 q79 85 79 210q0 72 -33 114.5t-89 42.5z" horiz-adv-x="540" unicode="þ"/>
</font>
</defs>
</svg>
