<?xml version="1.0" encoding="UTF-8" standalone="no"?>
<!DOCTYPE svg  PUBLIC '-//W3C//DTD SVG 1.1//EN'  'http://www.w3.org/Graphics/SVG/1.1/DTD/svg11.dtd'>
<svg xmlns="http://www.w3.org/2000/svg" version="1.1">
<defs>
<font id="NimbusSansDOT-Ligh" horiz-adv-x="539">
<font-face font-family="Nimbus Sans D OT Light" font-weight="300" underline-thickness="44" ascent="800" unicode-range="U+0020-00FE" units-per-em="1000" descent="-200" underline-position="-140" panose-1="2 0 0 0 0 0 0 0 0 0" cap-height="667" bbox="-12 -194 833 885" x-height="480"/>
<missing-glyph/>
<glyph glyph-name="space" horiz-adv-x="250" unicode=" "/>
<glyph glyph-name="space" horiz-adv-x="250" unicode=" "/>
<glyph d="M80 0v85h68v-85h-68zM136 163h-45q-11 229 -11 318v186h68v-186q0 -76 -12 -318z" glyph-name="exclam" horiz-adv-x="228" unicode="!"/>
<glyph d="M123 400h-48l-8 267h64zM251 400h-48l-8 267h65z" glyph-name="quotedbl" horiz-adv-x="326" unicode='&quot;'/>
<glyph d="M464 253l-8 -48h-78l-33 -205h-52l33 205h-147l-32 -205h-52l32 205h-78l8 48h78l25 161h-78l8 48h78l33 205h51l-32 -205h146l33 205h52l-33 -205h77l-7 -48h-77l-26 -161h79zM359 414h-147l-25 -161h146z" glyph-name="numbersign" horiz-adv-x="540" unicode="#"/>
<glyph d="M48 203h63q5 -138 134 -152v275q-89 21 -119 42q-59 42 -59 136q0 153 178 175v88h48v-88q77 -3 125 -48t53 -119h-60q-12 107 -118 116v-251q94 -23 127 -42q71 -42 71 -141q0 -86 -52 -137t-146 -58v-87h-48v87q-92 5 -144 59t-53 145zM293 317v-267q59 9 87 31 q49 38 49 109q0 75 -59 103q-25 11 -77 24zM245 387v241q-117 -15 -117 -120q0 -66 42 -93q26 -16 75 -28z" glyph-name="dollar" unicode="$"/>
<glyph d="M152 670q58 0 88.5 -44t30.5 -126t-30.5 -126t-88.5 -44q-119 0 -119 172q0 81 30.5 124.5t88.5 43.5zM152 629q-71 0 -71 -128q0 -130 71 -130t71 129t-71 129zM99 0l426 667h57l-425 -667h-58zM529 337q58 0 88.5 -44t30.5 -126q0 -83 -30.5 -126.5t-88.5 -43.5 q-119 0 -119 172q0 81 30.5 124.5t88.5 43.5zM529 296q-71 0 -71 -128q0 -130 71 -130t71 129t-71 129z" glyph-name="percent" horiz-adv-x="682" unicode="%"/>
<glyph d="M495 307h60q-13 -99 -48 -171l109 -136h-69l-73 87q-51 -52 -96.5 -73t-108.5 -21q-96 0 -154 55t-58 145q0 67 37 115t120 89q-37 49 -50.5 79t-13.5 64q0 56 42.5 95t104.5 39q60 0 97 -36t37 -95q0 -58 -35 -99q-19 -23 -74 -54q-6 -4 -18 -10l165 -198q24 47 26 125z M436 132l-189 225q-67 -36 -92 -65q-35 -43 -35 -98q0 -65 44.5 -107.5t113.5 -42.5q97 0 158 88zM269 421q2 1 5.5 2.5t7.5 3.5q92 41 92 111q0 36 -21.5 58.5t-56.5 22.5q-37 0 -61.5 -22.5t-24.5 -56.5q0 -47 59 -119z" glyph-name="ampersand" horiz-adv-x="609" unicode="&amp;"/>
<glyph d="M123 400h-55l-8 267h71z" glyph-name="quotesingle" horiz-adv-x="191" unicode="&apos;"/>
<glyph d="M229 -120h-46q-71 107 -101 199t-30 198q0 220 131 396h46q-38 -55 -64 -120q-28 -69 -39 -128.5t-11 -146.5q0 -117 27 -211t87 -187z" glyph-name="parenleft" horiz-adv-x="293" unicode="("/>
<glyph d="M63 673h46q69 -103 100 -196.5t31 -199.5q0 -214 -131 -397h-46q60 89 87 182.5t27 213.5q0 224 -114 397z" glyph-name="parenright" horiz-adv-x="293" unicode=")"/>
<glyph d="M345 543l-117 -38l73 -98l-34 -25l-73 99l-76 -99l-34 25l76 98l-117 38l14 41l115 -41v124h44l-1 -124l116 41z" glyph-name="asterisk" horiz-adv-x="389" unicode="*"/>
<glyph d="M93 360h148v150h57v-150h148v-53h-148v-150h-57v150h-148v53z" glyph-name="plus" unicode="+"/>
<glyph d="M143 84v-73q0 -64 -15.5 -95.5t-54.5 -44.5v40q19 8 26.5 24.5t7.5 50.5q0 8 -1 14h-33v84h70z" glyph-name="comma" horiz-adv-x="217" unicode=","/>
<glyph d="M0 212v57h213v-57h-213z" glyph-name="hyphen" horiz-adv-x="213" unicode="-"/>
<glyph d="M0 212v57h213v-57h-213z" glyph-name="hyphen" horiz-adv-x="213" unicode="­"/>
<glyph d="M73 0v83h70v-83h-70z" glyph-name="period" horiz-adv-x="217" unicode="."/>
<glyph d="M32 -120l303 793h57l-304 -793h-56z" glyph-name="slash" horiz-adv-x="433" unicode="/"/>
<glyph d="M270 674q106 0 161 -87t55 -253q0 -167 -55 -254t-161 -87q-58 0 -103.5 28t-70.5 80q-43 86 -43 237q0 164 55.5 250t161.5 86zM270 617q-40 0 -73 -24t-48 -65q-30 -76 -30 -192q0 -118 30 -197q15 -41 48 -65t73 -24t72.5 24t47.5 65q30 79 30 194q0 121 -30 195 q-16 41 -48.5 65t-71.5 24z" glyph-name="zero" unicode="0"/>
<glyph d="M277 0v501h-157v40h7q54 0 90 15q37 15 53.5 40.5t20.5 70.5h47v-667h-61z" glyph-name="one" unicode="1"/>
<glyph d="M481 57v-57h-424q1 101 44 162.5t161 128.5q93 54 124 92.5t31 100.5q0 65 -35 99t-103 34q-92 0 -126 -72q-14 -32 -17 -95h-66q4 107 59.5 165.5t152.5 58.5q91 0 146 -51t55 -136q0 -88 -59 -150q-35 -38 -130 -93q-91 -52 -129.5 -94.5t-39.5 -92.5h356z" glyph-name="two" unicode="2"/>
<glyph d="M52 198h64q4 -55 23 -85q18 -29 52 -46t75 -17q68 0 111 40t43 102q0 64 -40.5 100t-113.5 36q-5 0 -45 -2v51q21 -3 34 -3q69 0 107.5 33.5t38.5 92.5q0 53 -35.5 84.5t-94.5 31.5q-93 0 -125 -65q-16 -31 -17 -85h-63v11q0 88 57 142.5t149 54.5q86 0 139.5 -47 t53.5 -122q0 -100 -92 -148q113 -40 113 -158q0 -91 -61.5 -148.5t-158.5 -57.5q-78 0 -133 38t-74 104q-7 26 -7 63z" glyph-name="three" unicode="3"/>
<glyph d="M342 0v166h-293v53l299 448h54v-448h93v-53h-93v-166h-60zM114 219h228v349z" glyph-name="four" unicode="4"/>
<glyph d="M54 178h64q5 -60 42.5 -94t98.5 -34q74 0 116.5 45t42.5 124q0 74 -40 115.5t-112 41.5q-88 0 -136 -65h-54l54 356h322v-57h-277l-34 -215q70 39 139 39q94 0 149.5 -58t55.5 -156q0 -104 -60 -165.5t-160 -61.5q-89 0 -145.5 49.5t-65.5 135.5z" glyph-name="five" unicode="5"/>
<glyph d="M475 509h-66q-15 108 -121 108q-91 0 -131 -80q-40 -75 -40 -170l1 -29q59 87 164 87q89 0 146.5 -59.5t57.5 -152.5q0 -99 -58 -159.5t-152 -60.5q-111 0 -166 75q-57 80 -57 239q0 147 38 234q28 64 79.5 98.5t118.5 34.5q46 0 86 -18t65 -50q25 -33 35 -97zM275 369 q-67 0 -107.5 -43.5t-40.5 -116.5q0 -75 39 -117t107 -42t107 43t39 117q0 73 -39 116t-105 43z" glyph-name="six" unicode="6"/>
<glyph d="M222 0h-69q21 137 73 271q45 110 74.5 163.5t102.5 153.5q9 12 10 13l6 9h-356v57h422v-57q-97 -105 -171 -277t-92 -333z" glyph-name="seven" unicode="7"/>
<glyph d="M166 361q-51 30 -71 60t-20 76q0 78 55 127.5t141 49.5q84 0 136.5 -46t52.5 -119q0 -100 -92 -144q123 -41 123 -170q0 -90 -61 -146t-159 -56q-96 0 -159.5 57.5t-63.5 144.5q0 57 28 96.5t90 69.5zM271 335q-71 0 -114 -38.5t-43 -102.5q0 -66 41.5 -105t112.5 -39 q69 0 112.5 40.5t43.5 105.5q0 64 -41.5 101.5t-111.5 37.5zM271 617q-59 0 -95.5 -31.5t-36.5 -83.5q0 -53 35 -85.5t93 -32.5q56 0 93 34.5t37 88.5q0 50 -34 80t-92 30z" glyph-name="eight" unicode="8"/>
<glyph d="M63 157h66q16 -107 122 -107q91 0 131 79q40 77 40 171q0 4 -2 28q-58 -87 -163 -87q-89 0 -146.5 60t-57.5 152q0 100 57.5 160.5t152.5 60.5q111 0 166 -75q57 -80 57 -239q0 -148 -38 -235q-28 -63 -79.5 -97.5t-118.5 -34.5q-46 0 -86.5 18t-64.5 49q-27 35 -36 97z M266 617q-68 0 -107 -43t-39 -117t38.5 -117t105.5 -43t107 44t40 117q0 74 -38.5 116.5t-106.5 42.5z" glyph-name="nine" unicode="9"/>
<glyph d="M73 350v83h70v-83h-70zM73 0v83h70v-83h-70z" glyph-name="colon" horiz-adv-x="217" unicode=":"/>
<glyph d="M143 84v-73q0 -64 -15.5 -95.5t-54.5 -44.5v40q19 8 26.5 24.5t7.5 50.5q0 8 -1 14h-33v84h70zM73 350v83h70v-83h-70z" glyph-name="semicolon" horiz-adv-x="217" unicode=";"/>
<glyph d="M466 562v-65l-364 -164l364 -164v-64l-433 200v57z" glyph-name="less" horiz-adv-x="500" unicode="&lt;"/>
<glyph d="M97 431h346v-53h-346v53zM97 290h346v-53h-346v53z" glyph-name="equal" unicode="="/>
<glyph d="M34 562l433 -200v-57l-433 -200v64l364 164l-364 164v65z" glyph-name="greater" horiz-adv-x="500" unicode="&gt;"/>
<glyph d="M189 0v83h67v-83h-67zM251 165h-56q-1 70 18 111.5t70 82.5q48 41 65 70t17 69q0 58 -34.5 90t-96.5 32q-82 0 -118 -58q-23 -37 -23 -102h-63q6 109 57 161.5t149 52.5q88 0 140 -47t52 -127q0 -64 -45 -117q-22 -24 -80 -75q-33 -31 -42.5 -56.5t-9.5 -86.5z" glyph-name="question" horiz-adv-x="457" unicode="?"/>
<glyph d="M484 494h49l-41 -213q-5 -25 -7 -47q-1 -21 10.5 -34.5t28.5 -13.5q45 0 80.5 59.5t35.5 135.5q0 110 -76.5 181.5t-194.5 71.5q-127 0 -213.5 -87t-86.5 -215q0 -124 82 -211q84 -88 228 -88q113 0 212 48l15 -44q-104 -49 -227 -49q-161 0 -259 98q-47 47 -73.5 112 t-26.5 135q0 146 101 246t247 100q136 0 226.5 -84.5t90.5 -212.5q0 -94 -49 -166t-114 -72q-31 0 -50.5 18.5t-22.5 50.5q-46 -72 -125 -72q-61 0 -101 45.5t-40 116.5q0 84 51.5 143.5t124.5 59.5q83 0 112 -79zM363 455q-51 0 -88 -44.5t-37 -106.5q0 -51 26.5 -82.5 t69.5 -31.5q50 0 84 47t34 116q0 47 -24 74.5t-65 27.5z" glyph-name="at" horiz-adv-x="705" unicode="@"/>
<glyph d="M13 0l262 667h70l261 -667h-70l-80 211h-294l-79 -211h-70zM182 263h256l-129 341z" glyph-name="A" horiz-adv-x="619" unicode="A"/>
<glyph d="M80 0v667h255q93 0 134 -19q40 -19 62.5 -58t22.5 -89q0 -52 -22.5 -86.5t-72.5 -60.5q65 -21 95 -59.5t30 -102.5q0 -63 -29 -110t-81 -66q-43 -16 -130 -16h-264zM147 56h197q75 0 108 14q69 28 69 116q0 101 -83 125q-28 9 -95 9h-196v-264zM147 372h178q69 0 96 10 q32 12 51 42t19 70q0 41 -18.5 69.5t-50.5 39.5q-29 8 -99 8h-176v-239z" glyph-name="B" horiz-adv-x="631" unicode="B"/>
<glyph d="M565 237h64q-17 -119 -90.5 -184.5t-188.5 -65.5q-139 0 -218.5 94t-79.5 258q0 129 61 219q83 122 246 122q210 0 260 -203h-65q-46 146 -198 146q-111 0 -174 -78t-63 -215q0 -131 63.5 -208.5t169.5 -77.5q85 0 143.5 53t69.5 140z" glyph-name="C" horiz-adv-x="667" unicode="C"/>
<glyph d="M80 0v667h209q90 0 128 -7t72 -29q121 -81 121 -291q0 -229 -135 -307q-55 -33 -170 -33h-225zM148 57h152q63 0 95 8t60 31q42 34 65 99t23 148q0 90 -28 154t-79 91q-25 13 -53 17.5t-91 4.5h-144v-553z" glyph-name="D" horiz-adv-x="662" unicode="D"/>
<glyph d="M80 0v667h448v-57h-381v-241h350v-54h-350v-259h390v-56h-457z" glyph-name="E" horiz-adv-x="578" unicode="E"/>
<glyph d="M80 0v667h423v-57h-356v-242h309v-53h-309v-315h-67z" glyph-name="F" horiz-adv-x="533" unicode="F"/>
<glyph d="M355 343h281v-343h-51v111q-51 -67 -105 -95.5t-130 -28.5q-134 0 -216 94.5t-82 249.5q0 158 83 253.5t222 95.5q111 0 183.5 -56.5t89.5 -154.5h-64q-37 154 -208 154q-112 0 -175.5 -76.5t-63.5 -211.5q0 -134 64 -213t173 -79q82 0 141 48.5t76 129.5q5 23 5 68h-223 v54z" glyph-name="G" horiz-adv-x="703" unicode="G"/>
<glyph d="M80 0v667h66v-287h366v287h67v-667h-67v326h-366v-326h-66z" glyph-name="H" horiz-adv-x="659" unicode="H"/>
<glyph d="M80 0v667h68v-667h-68z" glyph-name="I" horiz-adv-x="228" unicode="I"/>
<glyph d="M11 215h64q0 -86 16 -116q29 -55 107 -55q84 0 106 64q9 25 9 100v459h66v-470q0 -89 -26 -133q-44 -77 -157 -77q-186 0 -186 192q0 23 1 36z" glyph-name="J" horiz-adv-x="452" unicode="J"/>
<glyph d="M80 0v667h66v-344l362 344h89l-295 -276l299 -391h-79l-265 348l-111 -104v-244h-66z" glyph-name="K" horiz-adv-x="615" unicode="K"/>
<glyph d="M80 0v667h67v-611h347v-56h-414z" glyph-name="L" horiz-adv-x="511" unicode="L"/>
<glyph d="M80 0v667h81l232 -589l229 589h80v-667h-60v561l-217 -561h-63l-224 561v-561h-58z" glyph-name="M" horiz-adv-x="782" unicode="M"/>
<glyph d="M80 0v667h66l379 -570v570h59v-667h-66l-379 571v-571h-59z" glyph-name="N" horiz-adv-x="664" unicode="N"/>
<glyph d="M360 680q159 0 239 -114q69 -96 69 -239q0 -155 -83.5 -247.5t-223.5 -92.5q-143 0 -226 92.5t-83 252.5q0 137 69 234q82 114 239 114zM360 623q-112 0 -176.5 -77t-64.5 -211q0 -136 64.5 -213.5t177.5 -77.5q111 0 175.5 77t64.5 210q0 136 -64 214t-177 78z" glyph-name="O" horiz-adv-x="720" unicode="O"/>
<glyph d="M80 0v667h239q62 0 91 -5t55 -19q82 -46 82 -163q0 -64 -27.5 -109t-79.5 -64q-43 -16 -143 -16h-151v-291h-66zM146 349h150q82 0 111 10q73 25 73 122q0 91 -66 117q-30 11 -93 11h-175v-260z" glyph-name="P" horiz-adv-x="580" unicode="P"/>
<glyph d="M569 62l86 -65l-34 -43l-95 77q-74 -44 -168 -44q-139 0 -222.5 92t-83.5 246q0 155 81 256q79 99 225 99q149 0 232 -103q80 -103 80 -242q0 -96 -32 -172q-20 -45 -69 -101zM440 165l81 -63q43 47 62 100.5t19 129.5q0 136 -64.5 213.5t-177.5 77.5q-121 0 -182 -84 q-58 -80 -58 -208q0 -133 64.5 -210.5t175.5 -77.5q66 0 113 28l-66 53z" glyph-name="Q" horiz-adv-x="721" unicode="Q"/>
<glyph d="M80 0v667h270q100 0 143 -25q80 -44 80 -155q0 -113 -103 -159q51 -28 64 -59t18 -133q5 -78 10 -96t28 -40h-80q-13 37 -17 107q-5 82 -16 120.5t-33 54.5q-16 12 -37 15.5t-74 3.5h-187v-301h-66zM146 355h179q70 0 103 10q37 11 57.5 43.5t20.5 79.5q0 96 -83 116 q-28 6 -96 6h-181v-255z" glyph-name="R" horiz-adv-x="635" unicode="R"/>
<glyph d="M40 221h65q6 -90 53 -133.5t138 -43.5q82 0 128.5 37t46.5 101q0 60 -46 87q-39 24 -164 49q-118 25 -156 59q-48 43 -48 119q0 85 62 134.5t168 49.5q218 0 237 -197h-67q-1 58 -29 88q-46 52 -141 52q-76 0 -120 -34t-44 -92q0 -51 35 -77.5t127 -43.5q132 -24 181 -54 q70 -43 70 -132q0 -91 -67 -147t-174 -56q-150 0 -215 93q-39 55 -40 141z" glyph-name="S" horiz-adv-x="582" unicode="S"/>
<glyph d="M234 0v610h-217v57h499v-57h-215v-610h-67z" glyph-name="T" horiz-adv-x="532" unicode="T"/>
<glyph d="M73 667h67v-427q0 -52 4.5 -76.5t17.5 -46.5q44 -73 157 -73q129 0 166 93q13 36 13 110v420h67v-425q0 -102 -35 -157q-64 -98 -213 -98q-80 0 -139 30.5t-84 85.5q-21 45 -21 134v430z" glyph-name="U" horiz-adv-x="639" unicode="U"/>
<glyph d="M245 0l-232 667h68l199 -587l207 587h65l-242 -667h-65z" glyph-name="V" horiz-adv-x="565" unicode="V"/>
<glyph d="M186 0l-173 667h69l141 -573l153 573h79l150 -583l145 583h65l-175 -667h-74l-152 571l-157 -571h-71z" glyph-name="W" horiz-adv-x="829" unicode="W"/>
<glyph d="M10 0l227 337l-223 330h79l182 -274l185 274h73l-222 -330l228 -337h-79l-185 280l-187 -280h-78z" glyph-name="X" horiz-adv-x="549" unicode="X"/>
<glyph d="M257 0v293l-250 374h82l202 -311l204 311h76l-247 -374v-293h-67z" glyph-name="Y" horiz-adv-x="578" unicode="Y"/>
<glyph d="M541 0h-513v40l430 570h-394v57h469v-56l-417 -554h425v-57z" glyph-name="Z" horiz-adv-x="568" unicode="Z"/>
<glyph d="M73 -113v780h155v-49h-99v-682h99v-49h-155z" glyph-name="bracketleft" horiz-adv-x="295" unicode="["/>
<glyph d="M412 -120h-56l-304 793h57z" glyph-name="backslash" horiz-adv-x="433" unicode="\"/>
<glyph d="M222 667v-780h-155v49h99v682h-99v49h155z" glyph-name="bracketright" horiz-adv-x="295" unicode="]"/>
<glyph d="M96 379h-62l178 289h75l178 -289h-63l-153 245z" glyph-name="asciicircum" horiz-adv-x="500" unicode="^"/>
<glyph d="M0 -74h500v-44h-500v44z" glyph-name="underscore" horiz-adv-x="500" unicode="_"/>
<glyph d="M304 567h-48l-100 123h80z" glyph-name="grave" horiz-adv-x="500" unicode="`"/>
<glyph d="M486 41v-41q-27 -9 -45 -9q-35 0 -50.5 16.5t-19.5 58.5q-40 -44 -79 -61.5t-95 -17.5q-73 0 -113.5 36t-40.5 101q0 62 36 98q20 21 45.5 31.5t75.5 17.5l119 18q38 5 46 13.5t8 45.5q0 49 -29 71.5t-93 22.5q-61 0 -89.5 -24.5t-33.5 -80.5h-65q5 76 53 116t134 40 q119 0 162 -63q12 -18 15.5 -38t3.5 -68v-240q0 -27 6 -37t23 -10q9 0 26 4zM371 248l-164 -25q-56 -9 -80 -31t-24 -65q0 -42 27.5 -65.5t75.5 -23.5q92 0 140 64q25 32 25 108v38z" glyph-name="a" horiz-adv-x="507" unicode="a"/>
<glyph d="M73 0v667h60v-258q37 45 74 64.5t86 19.5q96 0 152 -67.5t56 -183.5q0 -115 -58.5 -185t-153.5 -70q-47 0 -82.5 18t-73.5 61v-66h-60zM292 442q-77 0 -124 -61q-35 -48 -35 -138t30 -138q43 -68 122 -68q72 0 114 56t42 152q0 94 -39 145.5t-110 51.5z" glyph-name="b" horiz-adv-x="547" unicode="b"/>
<glyph d="M400 165h59q-41 -178 -201 -178q-96 0 -154 67.5t-58 179.5q0 117 61.5 188t162.5 71q79 0 129 -43.5t61 -120.5h-60q-6 54 -39.5 82.5t-89.5 28.5q-77 0 -120.5 -54t-43.5 -148q0 -91 43 -144.5t116 -53.5q56 0 91.5 33t42.5 92z" glyph-name="c" horiz-adv-x="494" unicode="c"/>
<glyph d="M474 0h-60v66q-38 -43 -73.5 -61t-82.5 -18q-95 0 -153.5 70t-58.5 185q0 116 56 183.5t152 67.5q49 0 86 -19.5t74 -64.5v258h60v-667zM254 442q-71 0 -109.5 -51t-38.5 -146q0 -96 42 -152t114 -56q79 0 122 68q30 49 30 132q0 95 -35 144q-45 61 -125 61z" glyph-name="d" horiz-adv-x="547" unicode="d"/>
<glyph d="M404 150h61q-21 -54 -43 -85q-57 -78 -165 -78q-98 0 -154.5 65.5t-56.5 179.5q0 119 58.5 190t156.5 71q74 0 124 -39.5t68 -111.5q7 -30 12 -111h-362q1 -94 41.5 -144t114.5 -50q118 0 145 113zM106 282h298q-4 77 -40.5 119t-100.5 42q-82 0 -124 -64 q-24 -38 -33 -97z" glyph-name="e" horiz-adv-x="511" unicode="e"/>
<glyph d="M149 480h81v-50h-81v-430h-60v430h-70v50h70v88q0 106 99 106q18 0 42 -3v-52q-21 3 -28 3q-33 0 -43 -13t-10 -56v-73z" glyph-name="f" horiz-adv-x="258" unicode="f"/>
<glyph d="M473 480v-399q0 -117 -25 -164q-51 -91 -191 -91q-168 0 -188 127h61q3 -30 21 -47q36 -34 111 -34q82 0 121 51q16 20 21.5 46t7.5 88l1 24q-39 -45 -73.5 -62.5t-83.5 -17.5q-96 0 -153 66.5t-57 178.5q0 110 58 178.5t152 68.5q97 0 157 -81v68h60zM263 443 q-73 0 -115.5 -53t-42.5 -144t41.5 -143.5t114.5 -52.5t114.5 52.5t41.5 145.5q0 94 -40 144.5t-114 50.5z" glyph-name="g" horiz-adv-x="546" unicode="g"/>
<glyph d="M73 0v667h60v-245q42 43 73 57t81 14q124 0 155 -92q10 -30 10 -104v-297h-60v307q0 60 -12 84q-27 52 -102 52q-46 0 -81 -22t-51 -62q-13 -32 -13 -93v-266h-60z" glyph-name="h" horiz-adv-x="526" unicode="h"/>
<glyph d="M73 0v480h60v-480h-60zM73 586v81h60v-81h-60z" glyph-name="i" horiz-adv-x="207" unicode="i"/>
<glyph d="M77 480h60v-495q0 -93 -22 -121q-24 -32 -85 -32q-12 0 -21 1v52q11 -2 20 -2q32 0 43 31q5 16 5 73v493zM77 585v82h60v-82h-60z" glyph-name="j" horiz-adv-x="210" unicode="j"/>
<glyph d="M73 0v667h60v-411l236 224h82l-191 -176l208 -304h-74l-175 266l-86 -79v-187h-60z" glyph-name="k" horiz-adv-x="489" unicode="k"/>
<glyph d="M73 0v667h60v-667h-60z" glyph-name="l" horiz-adv-x="207" unicode="l"/>
<glyph d="M73 0v480h60v-52q56 65 136 65q97 0 139 -82q51 82 153 82q111 0 141 -86q9 -28 9 -91v-316h-60v314q0 50 -8 74q-18 55 -93 55q-95 0 -120 -90q-7 -27 -7 -74v-279h-60v292q0 70 -8 95q-20 56 -89 56q-50 0 -83 -26.5t-44 -74.5q-6 -34 -6 -87v-255h-60z" glyph-name="m" horiz-adv-x="784" unicode="m"/>
<glyph d="M73 0v480h60v-58q35 40 69 55.5t85 15.5q123 0 155 -92q10 -31 10 -91v-310h-60v307q0 59 -12 84q-27 52 -102 52q-46 0 -81 -22t-52 -62q-12 -32 -12 -93v-266h-60z" glyph-name="n" horiz-adv-x="526" unicode="n"/>
<glyph d="M268 493q100 0 160.5 -71t60.5 -188q0 -114 -59.5 -180.5t-161.5 -66.5q-104 0 -163 66.5t-59 183.5q0 115 61 185.5t161 70.5zM268 442q-75 0 -118.5 -55t-43.5 -150t42.5 -147t119.5 -52q76 0 118.5 52t42.5 144q0 97 -43.5 152.5t-117.5 55.5z" glyph-name="o" horiz-adv-x="535" unicode="o"/>
<glyph d="M133 -172h-60v652h60v-69q33 44 70 63t89 19q91 0 149.5 -70t58.5 -179q0 -107 -54 -182q-55 -75 -164 -75q-50 0 -84.5 17t-64.5 57v-233zM287 443q-80 0 -126 -65q-31 -45 -31 -134q0 -94 31 -144q40 -63 121 -63q72 0 115 55t43 147q0 96 -40.5 150t-112.5 54z" glyph-name="p" horiz-adv-x="547" unicode="p"/>
<glyph d="M413 -172v233q-30 -40 -64.5 -57t-84.5 -17q-109 0 -164 75q-54 75 -54 182q0 109 58.5 179t149.5 70q52 0 89 -19t70 -63v69h60v-652h-60zM259 443q-71 0 -112 -54t-41 -146q0 -96 42 -151t116 -55q82 0 121 63q31 50 31 144q0 88 -31 134q-44 65 -126 65z" glyph-name="q" horiz-adv-x="547" unicode="q"/>
<glyph d="M73 0v480h60v-80q28 49 58 68.5t76 19.5q9 0 24 -3v-58q-18 2 -21 2q-37 0 -70 -24t-50 -65q-17 -39 -17 -115v-225h-60z" glyph-name="r" horiz-adv-x="316" unicode="r"/>
<glyph d="M40 151h60q9 -112 138 -112q55 0 87 25t32 69q0 23 -11.5 37.5t-39.5 25.5q-21 8 -126 32q-66 14 -96.5 44.5t-30.5 81.5q0 64 47 101.5t128 37.5q164 0 180 -150h-59q-10 52 -38 73.5t-87 21.5q-52 0 -81.5 -20.5t-29.5 -57.5q0 -42 38 -61q23 -10 101 -28 q83 -20 114 -38q51 -29 51 -96q0 -69 -50 -109.5t-136 -40.5q-91 0 -141 43t-50 121z" glyph-name="s" horiz-adv-x="455" unicode="s"/>
<glyph d="M222 50v-39q-29 -14 -61 -14q-59 0 -71 45q-4 12 -4 64v324h-69v50h69v142h60v-142h76v-50h-76v-338q0 -28 5 -37q10 -15 33 -15q14 0 38 10z" glyph-name="t" horiz-adv-x="258" unicode="t"/>
<glyph d="M452 480v-480h-60v58q-35 -40 -69 -55.5t-85 -15.5q-123 0 -155 92q-10 30 -10 104v297h60v-300q0 -66 12 -91q27 -52 102 -52q76 0 116 54q29 41 29 109v280h60z" glyph-name="u" horiz-adv-x="526" unicode="u"/>
<glyph d="M185 0l-178 480h66l145 -404l147 404h65l-184 -480h-61z" glyph-name="v" horiz-adv-x="436" unicode="v"/>
<glyph d="M155 0l-148 480h64l116 -389l109 389h62l105 -389l121 389h63l-154 -480h-60l-106 383l-112 -383h-60z" glyph-name="w" horiz-adv-x="653" unicode="w"/>
<glyph d="M3 0l183 251l-166 229h71l128 -186l131 186h71l-169 -229l185 -251h-72l-146 205l-145 -205h-71z" glyph-name="x" horiz-adv-x="441" unicode="x"/>
<glyph d="M60 -168v53q27 -7 40 -7q46 0 72 66l23 62l-188 474h65l151 -399l149 399h62l-218 -561q-20 -52 -45 -71.5t-71 -19.5q-16 0 -40 4z" glyph-name="y" horiz-adv-x="440" unicode="y"/>
<glyph d="M411 0h-382v44l294 382h-272v54h348v-41l-292 -385h304v-54z" glyph-name="z" horiz-adv-x="428" unicode="z"/>
<glyph d="M154 525v-135q0 -47 -11 -72t-39 -42q28 -17 39 -42.5t11 -73.5v-127q0 -58 19 -77q16 -18 52 -18h13v-51h-14q-68 0 -96.5 33.5t-28.5 115.5v124q0 44 -11.5 64.5t-40.5 30.5v47q28 8 40 29t12 62v138q0 72 29.5 104t96.5 32h13v-51h-13q-38 0 -54.5 -21t-16.5 -70z" glyph-name="braceleft" horiz-adv-x="304" unicode="{"/>
<glyph d="M218 667h65v-834h-65v834z" glyph-name="bar" horiz-adv-x="500" unicode="|"/>
<glyph d="M151 29v135q0 47 11 72t39 42q-28 17 -39 42.5t-11 73.5v127q0 58 -19 77q-16 18 -52 18h-13v51h14q68 0 96.5 -33.5t28.5 -115.5v-124q0 -44 11.5 -64.5t40.5 -30.5v-47q-28 -8 -40 -29t-12 -62v-138q0 -72 -29.5 -104t-96.5 -32h-13v51h13q38 0 54.5 21t16.5 70z" glyph-name="braceright" horiz-adv-x="304" unicode="}"/>
<glyph d="M131 586l-36 28q54 107 132 107q40 0 116 -40q70 -35 99 -35q27 0 49 18t46 59l36 -27q-28 -57 -59.5 -83t-72.5 -26q-36 0 -117 42q-68 34 -99 34q-27 0 -48 -17t-46 -60z" glyph-name="asciitilde" horiz-adv-x="667" unicode="~"/>
<glyph d="M148 547v-85h-68v85h68zM92 383h45q11 -229 11 -317v-186h-68v186q0 75 12 317z" glyph-name="exclamdown" horiz-adv-x="228" unicode="¡"/>
<glyph d="M415 257h60q-12 -73 -59 -121t-113 -56v-90h-45v90q-49 5 -80.5 20t-56.5 46q-59 68 -59 182q0 133 78 205q43 39 118 51v90h45v-90q73 -4 118 -46.5t54 -116.5h-60q-6 103 -112 111v-399q48 7 78 39.5t34 84.5zM258 134v396q-60 -9 -92 -51q-45 -57 -45 -149 q0 -83 38 -138q35 -49 99 -58z" glyph-name="cent" unicode="¢"/>
<glyph d="M464 81l32 -51q-56 -43 -120 -43q-25 0 -92 20q-57 18 -94 18q-53 0 -117 -38l-31 43q110 68 110 166q0 52 -28 108h-82v39h66q-4 7 -5 13q-31 74 -31 121q0 86 60 141.5t153 55.5q119 0 174 -93q22 -39 29 -114h-66q-1 71 -37 110t-101 39q-63 0 -104 -37.5t-41 -95.5 q0 -52 38 -140h173v-39h-157q17 -58 17 -93q0 -36 -15 -69t-53 -80q42 14 73 14q30 0 82 -14q61 -16 84 -16q40 0 83 35z" glyph-name="sterling" unicode="£"/>
<glyph d="M33 515l39 39l54 -54q59 47 141 47q84 0 141 -47l54 54l40 -39l-56 -55q44 -62 44 -140t-44 -140l56 -55l-40 -39l-54 54q-57 -47 -141 -47q-82 0 -141 47l-54 -54l-39 39l55 55q-43 64 -43 140q0 75 43 140zM268 496q-72 0 -117 -48.5t-45 -125.5q0 -80 44.5 -129 t117.5 -49q71 0 116 49t45 127t-45 127t-116 49z" glyph-name="currency" horiz-adv-x="535" unicode="¤"/>
<glyph d="M240 0v241h-205v51h205l-55 80h-150v50h117l-164 245h74l210 -320l208 320h71l-159 -245h117v-50h-149l-53 -80h202v-51h-202v-241h-67z" glyph-name="yen" unicode="¥"/>
<glyph d="M218 667h65v-331h-65v331zM218 153h65v-320h-65v320z" glyph-name="brokenbar" horiz-adv-x="500" unicode="¦"/>
<glyph d="M444 515h-61q-6 111 -104 111q-41 0 -66.5 -21t-25.5 -56q0 -38 39 -68q9 -7 107 -63q94 -54 126.5 -90.5t32.5 -86.5q0 -87 -92 -128q27 -25 37.5 -47t10.5 -52q0 -60 -45.5 -98.5t-116.5 -38.5q-97 0 -143 67q-26 37 -29 104h63q6 -117 110 -117q43 0 70 22.5t27 57.5 q0 44 -63 86q-22 14 -134 80q-61 35 -87.5 70t-26.5 81q0 90 92 128q-41 41 -41 90q0 59 43.5 96.5t112.5 37.5q78 0 120.5 -43t43.5 -122zM204 422q-71 -33 -71 -90q0 -34 33 -64q20 -17 114 -72q40 -24 79 -50q72 32 72 87q0 43 -49 79q-27 21 -142 87q-15 9 -36 23z" glyph-name="section" horiz-adv-x="566" unicode="§"/>
<glyph d="M130 584v85h68v-85h-68zM301 584v85h68v-85h-68z" glyph-name="dieresis" horiz-adv-x="500" unicode="¨"/>
<glyph d="M507 286h45q-11 -71 -55 -109t-114 -38q-83 0 -131 53.5t-48 146.5q0 89 49.5 142t134.5 53q126 0 158 -120h-45q-27 81 -115 81q-64 0 -100 -42.5t-36 -118.5q0 -71 36.5 -114t97.5 -43q49 0 82.5 29.5t40.5 79.5zM382 679q139 0 239.5 -102t100.5 -244 q0 -143 -101 -244t-243 -101t-243.5 101t-101.5 244q0 145 101.5 245.5t247.5 100.5zM382 638q-127 0 -215.5 -88.5t-88.5 -216.5q0 -125 88 -214.5t212 -89.5t211.5 89.5t87.5 214.5t-87 215t-208 90z" glyph-name="copyright" horiz-adv-x="756" unicode="©"/>
<glyph d="M326 299v-31q-21 -7 -32 -7q-22 0 -32.5 9t-14.5 32q-44 -43 -108 -43q-47 0 -73.5 22.5t-26.5 62.5q0 38 24 60q22 22 78 30l75 10q22 3 26.5 7.5t4.5 24.5q0 28 -17.5 40t-57.5 12q-38 0 -54 -14t-19 -48h-47q6 99 121 99q68 0 99 -31q19 -20 19 -65v-149q0 -15 3 -20 t12 -5q7 0 20 4zM246 413l-100 -14q-33 -5 -47.5 -17.5t-14.5 -36.5q0 -23 16 -36t45 -13q41 0 69 21q19 13 25.5 29t6.5 48v19z" glyph-name="ordfeminine" horiz-adv-x="353" unicode="ª"/>
<glyph d="M204 402v-70l-104 -91l104 -90v-73l-157 135v52zM378 402v-70l-104 -91l104 -90v-73l-158 135v52z" glyph-name="guillemotleft" horiz-adv-x="434" unicode="«"/>
<glyph d="M403 0v218h-370v57h433v-275h-63z" glyph-name="logicalnot" horiz-adv-x="500" unicode="¬"/>
<glyph d="M241 147v380h163q72 0 101 -25q34 -28 34 -79q0 -65 -57 -90q27 -15 34.5 -32.5t10.5 -73.5q3 -48 6 -56q5 -11 21 -24h-58q-8 22 -11 63q-5 71 -19.5 88t-71.5 17h-107v-168h-46zM287 352h102q52 0 73 10q31 16 31 61q0 38 -24 52q-18 13 -78 13h-104v-136zM382 679 q139 0 239.5 -102t100.5 -244q0 -143 -101 -244t-243 -101t-243.5 101t-101.5 244q0 145 101.5 245.5t247.5 100.5zM382 638q-127 0 -215.5 -88.5t-88.5 -216.5q0 -125 88 -214.5t212 -89.5t211.5 89.5t87.5 214.5t-87 215t-208 90z" glyph-name="registered" horiz-adv-x="756" unicode="®"/>
<glyph d="M189 674q59 0 101 -41t42 -99t-41.5 -99t-100.5 -41q-60 0 -101.5 41.5t-41.5 100.5q0 56 42 97t100 41zM189 627q-38 0 -66 -27.5t-28 -64.5q0 -39 27.5 -66.5t67.5 -27.5q38 0 66 27.5t28 65.5t-28 65.5t-67 27.5z" glyph-name="degree" horiz-adv-x="378" unicode="°"/>
<glyph d="M97 403h145v139h56v-139h145v-53h-145v-136h-56v136h-145v53zM97 136h346v-53h-346v53z" glyph-name="plusminus" unicode="±"/>
<glyph d="M315 313v-46h-276q-1 63 27 101.5t103 78.5q56 31 74 51.5t18 54.5q0 71 -78 71q-54 0 -72 -38q-9 -19 -11 -59h-53q2 70 37.5 107t100.5 37q58 0 94.5 -32t36.5 -84q0 -55 -39 -92q-21 -21 -81 -54q-54 -29 -74 -48.5t-27 -47.5h220z" glyph-name="twosuperior" horiz-adv-x="355" unicode="²"/>
<glyph d="M36 395h53q3 -37 14 -52q21 -34 73 -34q39 0 64 21.5t25 54.5q0 34 -23.5 53t-65.5 19q-17 0 -35 -2v44q26 -2 28 -2q39 0 61 17.5t22 48.5q0 28 -20 44.5t-54 16.5q-53 0 -71 -34q-10 -18 -10 -53h-52q0 35 8 56q13 37 46.5 57.5t79.5 20.5q56 0 91 -29.5t35 -75.5 q0 -49 -47 -84q33 -17 47 -38t14 -55q0 -55 -40.5 -90.5t-102.5 -35.5q-61 0 -100.5 33.5t-39.5 86.5v12z" glyph-name="threesuperior" horiz-adv-x="355" unicode="³"/>
<glyph d="M196 567l68 123h80l-100 -123h-48z" glyph-name="acute" horiz-adv-x="500" unicode="´"/>
<glyph d="M460 667v-780h-58v722h-71v-722h-58v405h-38q-102 0 -145 43q-51 49 -51 145q0 92 45 143q38 44 129 44h247z" glyph-name="paragraph" unicode="¶"/>
<glyph d="M277 0l-36 -58q17 5 29 5q31 0 51 -18t20 -45q0 -34 -26.5 -56t-68.5 -22q-39 0 -88 19l13 28q36 -15 69 -15q22 0 37.5 12.5t15.5 30.5q0 16 -13 26t-33 10q-16 0 -40 -8l-15 14l51 77h34z" glyph-name="cedilla" horiz-adv-x="500" unicode="¸"/>
<glyph d="M184 267v291h-97v36h9q50 0 72.5 16.5t24.5 56.5h42v-400h-51z" glyph-name="onesuperior" horiz-adv-x="355" unicode="¹"/>
<glyph d="M185 565q65 0 104 -43t39 -114q0 -68 -38.5 -108.5t-103.5 -40.5q-67 0 -105.5 40t-38.5 111q0 69 39.5 112t103.5 43zM185 528q-45 0 -71.5 -32t-26.5 -86t26 -84t72 -30t72 29.5t26 82.5q0 56 -26 88t-72 32z" glyph-name="ordmasculine" horiz-adv-x="370" unicode="º"/>
<glyph d="M230 78v70l104 91l-104 90v73l158 -135v-52zM57 78v70l104 91l-104 90v73l157 -135v-52z" glyph-name="guillemotright" horiz-adv-x="434" unicode="»"/>
<glyph d="M184 267v291h-97v36h9q50 0 72.5 16.5t24.5 56.5h42v-400h-51zM179 0l425 667h58l-425 -667h-58zM702 0v97h-182v39l189 264h43v-259h57v-44h-57v-97h-50zM580 141h122v174z" glyph-name="onequarter" horiz-adv-x="840" unicode="¼"/>
<glyph d="M184 267v291h-97v36h9q50 0 72.5 16.5t24.5 56.5h42v-400h-51zM179 0l425 667h58l-425 -667h-58zM801 46v-46h-276q-1 64 26.5 102t103.5 78q55 31 73.5 52t18.5 55q0 70 -78 70q-54 0 -72 -38q-9 -19 -11 -58h-53q2 70 37.5 106.5t100.5 36.5q59 0 95 -31.5t36 -83.5 q0 -55 -39 -92q-22 -23 -81 -55q-54 -29 -74 -48.5t-27 -47.5h220z" glyph-name="onehalf" horiz-adv-x="840" unicode="½"/>
<glyph d="M36 395h53q3 -37 14 -52q21 -34 73 -34q39 0 64 21.5t25 54.5q0 34 -23.5 53t-65.5 19q-17 0 -35 -2v44q26 -2 28 -2q39 0 61 17.5t22 48.5q0 28 -20 44.5t-54 16.5q-53 0 -71 -34q-10 -18 -10 -53h-52q0 35 8 56q13 37 46.5 57.5t79.5 20.5q56 0 91 -29.5t35 -75.5 q0 -49 -47 -84q33 -17 47 -38t14 -55q0 -55 -40.5 -90.5t-102.5 -35.5q-61 0 -100.5 33.5t-39.5 86.5v12zM178 0l426 667h58l-426 -667h-58zM701 0v97h-182v39l189 264h43v-259h58v-44h-58v-97h-50zM579 141h122v174z" glyph-name="threequarters" horiz-adv-x="840" unicode="¾"/>
<glyph d="M268 547v-83h-67v83h67zM207 382h56q1 -70 -18 -111.5t-70 -82.5q-48 -41 -65 -70t-17 -69q0 -58 34.5 -90t96.5 -32q81 0 118 58q22 37 23 102h62q-6 -109 -56.5 -161.5t-148.5 -52.5q-88 0 -140 47t-52 127q0 64 45 117q22 24 80 75q33 31 42 56t10 87z" glyph-name="questiondown" horiz-adv-x="457" unicode="¿"/>
<glyph d="M13 0l262 667h70l261 -667h-70l-80 211h-294l-79 -211h-70zM182 263h256l-129 341zM343 730h-48l-100 123h80z" glyph-name="Agrave" horiz-adv-x="619" unicode="À"/>
<glyph d="M13 0l262 667h70l261 -667h-70l-80 211h-294l-79 -211h-70zM182 263h256l-129 341zM275 730l68 123h80l-100 -123h-48z" glyph-name="Aacute" horiz-adv-x="619" unicode="Á"/>
<glyph d="M13 0l262 667h70l261 -667h-70l-80 211h-294l-79 -211h-70zM182 263h256l-129 341zM176 731l99 121h71l98 -121h-65l-67 85l-73 -85h-63z" glyph-name="Acircumflex" horiz-adv-x="619" unicode="Â"/>
<glyph d="M13 0l262 667h70l261 -667h-70l-80 211h-294l-79 -211h-70zM182 263h256l-129 341zM426 839h36q-17 -91 -82 -91q-27 0 -97 34q-16 9 -34 9q-34 0 -47 -47h-35q15 91 86 91q26 0 62 -18q48 -24 66 -24q33 0 45 46z" glyph-name="Atilde" horiz-adv-x="619" unicode="Ã"/>
<glyph d="M13 0l262 667h70l261 -667h-70l-80 211h-294l-79 -211h-70zM182 263h256l-129 341zM170 749v85h68v-85h-68zM381 749v85h68v-85h-68z" glyph-name="Adieresis" horiz-adv-x="619" unicode="Ä"/>
<glyph d="M13 0l262 667h70l261 -667h-70l-80 211h-294l-79 -211h-70zM182 263h256l-129 341zM311 885q34 0 58 -24.5t24 -58.5t-24.5 -59t-59.5 -25q-34 0 -58.5 24.5t-24.5 58.5q0 35 24.5 59.5t60.5 24.5zM310 848q-20 0 -33.5 -14t-13.5 -33t13.5 -32.5t32.5 -13.5t33 13.5 t14 32.5t-13.5 33t-32.5 14z" glyph-name="Aring" horiz-adv-x="619" unicode="Å"/>
<glyph d="M13 0l257 667h554v-57h-350v-239h322v-53h-322v-261h359v-57h-425v207h-251l-78 -207h-66zM178 261h230v349h-99z" glyph-name="AE" horiz-adv-x="874" unicode="Æ"/>
<glyph d="M358 -13l-26 -44q19 4 29 4q31 0 51 -18t20 -45q0 -34 -26.5 -56t-68.5 -22q-38 0 -88 19l13 29q37 -16 69 -16q22 0 37.5 12.5t15.5 30.5q0 16 -13 26t-33 10q-15 0 -40 -8l-15 15l41 63q-105 13 -166 66q-106 92 -106 285q0 130 61 220q83 122 246 122q210 0 260 -203 h-65q-46 146 -198 146q-111 0 -174 -78t-63 -215q0 -131 63 -209t170 -78q85 0 143.5 53.5t69.5 140.5h64q-13 -112 -87.5 -181t-183.5 -69z" glyph-name="Ccedilla" horiz-adv-x="667" unicode="Ç"/>
<glyph d="M80 0v667h448v-57h-381v-241h350v-54h-350v-259h390v-56h-457zM349 730h-48l-100 123h80z" glyph-name="Egrave" horiz-adv-x="578" unicode="È"/>
<glyph d="M80 0v667h448v-57h-381v-241h350v-54h-350v-259h390v-56h-457zM258 730l68 123h80l-100 -123h-48z" glyph-name="Eacute" horiz-adv-x="578" unicode="É"/>
<glyph d="M80 0v667h448v-57h-381v-241h350v-54h-350v-259h390v-56h-457zM169 731l99 121h71l98 -121h-65l-67 85l-73 -85h-63z" glyph-name="Ecircumflex" horiz-adv-x="578" unicode="Ê"/>
<glyph d="M80 0v667h448v-57h-381v-241h350v-54h-350v-259h390v-56h-457zM163 749v85h68v-85h-68zM374 749v85h68v-85h-68z" glyph-name="Edieresis" horiz-adv-x="578" unicode="Ë"/>
<glyph d="M80 0v667h68v-667h-68zM148 730h-48l-100 123h80z" glyph-name="Igrave" horiz-adv-x="228" unicode="Ì"/>
<glyph d="M80 0v667h68v-667h-68zM80 730l68 123h80l-100 -123h-48z" glyph-name="Iacute" horiz-adv-x="228" unicode="Í"/>
<glyph d="M80 0v667h68v-667h-68zM-3 731l83 121h70l81 -121h-61l-54 85l-59 -85h-60z" glyph-name="Icircumflex" horiz-adv-x="228" unicode="Î"/>
<glyph d="M80 0v667h68v-667h-68zM26 749v85h61v-85h-61zM141 749v85h61v-85h-61z" glyph-name="Idieresis" horiz-adv-x="228" unicode="Ï"/>
<glyph d="M80 325h-73v54h73v288h222q78 0 116.5 -7.5t70.5 -28.5q121 -81 121 -291q0 -229 -135 -307q-55 -33 -170 -33h-225v325zM148 325v-268h152q62 0 95 8.5t60 30.5q42 34 65 98.5t23 147.5q0 90 -28 154.5t-79 91.5q-41 22 -138 22h-150v-231h209v-54h-209z" glyph-name="Eth" horiz-adv-x="662" unicode="Ð"/>
<glyph d="M80 0v667h66l379 -570v570h59v-667h-66l-379 571v-571h-59zM450 839h36q-17 -91 -82 -91q-27 0 -97 34q-16 9 -34 9q-34 0 -47 -47h-35q15 91 86 91q26 0 62 -18q48 -24 66 -24q33 0 45 46z" glyph-name="Ntilde" horiz-adv-x="664" unicode="Ñ"/>
<glyph d="M360 680q159 0 239 -114q69 -96 69 -239q0 -155 -83.5 -247.5t-223.5 -92.5q-143 0 -226 92.5t-83 252.5q0 137 69 234q82 114 239 114zM360 623q-112 0 -176.5 -77t-64.5 -211q0 -136 64.5 -213.5t177.5 -77.5q111 0 175.5 77t64.5 210q0 136 -64 214t-177 78zM407 730 h-48l-100 123h80z" glyph-name="Ograve" horiz-adv-x="720" unicode="Ò"/>
<glyph d="M360 680q159 0 239 -114q69 -96 69 -239q0 -155 -83.5 -247.5t-223.5 -92.5q-143 0 -226 92.5t-83 252.5q0 137 69 234q82 114 239 114zM360 623q-112 0 -176.5 -77t-64.5 -211q0 -136 64.5 -213.5t177.5 -77.5q111 0 175.5 77t64.5 210q0 136 -64 214t-177 78zM313 730 l68 123h80l-100 -123h-48z" glyph-name="Oacute" horiz-adv-x="720" unicode="Ó"/>
<glyph d="M360 680q159 0 239 -114q69 -96 69 -239q0 -155 -83.5 -247.5t-223.5 -92.5q-143 0 -226 92.5t-83 252.5q0 137 69 234q82 114 239 114zM360 623q-112 0 -176.5 -77t-64.5 -211q0 -136 64.5 -213.5t177.5 -77.5q111 0 175.5 77t64.5 210q0 136 -64 214t-177 78zM226 731 l99 121h71l98 -121h-65l-67 85l-73 -85h-63z" glyph-name="Ocircumflex" horiz-adv-x="720" unicode="Ô"/>
<glyph d="M360 680q159 0 239 -114q69 -96 69 -239q0 -155 -83.5 -247.5t-223.5 -92.5q-143 0 -226 92.5t-83 252.5q0 137 69 234q82 114 239 114zM360 623q-112 0 -176.5 -77t-64.5 -211q0 -136 64.5 -213.5t177.5 -77.5q111 0 175.5 77t64.5 210q0 136 -64 214t-177 78zM478 839 h36q-17 -91 -82 -91q-27 0 -97 34q-16 9 -34 9q-34 0 -47 -47h-35q15 91 86 91q26 0 62 -18q48 -24 66 -24q33 0 45 46z" glyph-name="Otilde" horiz-adv-x="720" unicode="Õ"/>
<glyph d="M360 680q159 0 239 -114q69 -96 69 -239q0 -155 -83.5 -247.5t-223.5 -92.5q-143 0 -226 92.5t-83 252.5q0 137 69 234q82 114 239 114zM360 623q-112 0 -176.5 -77t-64.5 -211q0 -136 64.5 -213.5t177.5 -77.5q111 0 175.5 77t64.5 210q0 136 -64 214t-177 78zM221 749 v85h68v-85h-68zM432 749v85h68v-85h-68z" glyph-name="Odieresis" horiz-adv-x="720" unicode="Ö"/>
<glyph d="M145 497l125 -124l124 124l39 -39l-124 -125l124 -124l-39 -39l-124 124l-125 -124l-39 39l124 124l-124 125z" glyph-name="multiply" unicode="×"/>
<glyph d="M47 10l75 86q-69 96 -69 234q0 158 83 253.5t221 95.5q132 0 211 -76l72 81l37 -34l-77 -87q68 -97 68 -238q0 -157 -83 -248t-225 -91q-64 0 -111 16.5t-93 56.5l-72 -82zM165 146l362 409q-58 66 -162 66q-139 0 -198 -100q-47 -77 -47 -189q0 -106 45 -186zM557 513 l-359 -406q59 -65 165 -65q109 0 173.5 77.5t64.5 209.5q0 112 -44 184z" glyph-name="Oslash" horiz-adv-x="720" unicode="Ø"/>
<glyph d="M73 667h67v-427q0 -52 4.5 -76.5t17.5 -46.5q44 -73 157 -73q129 0 166 93q13 36 13 110v420h67v-425q0 -102 -35 -157q-64 -98 -213 -98q-80 0 -139 30.5t-84 85.5q-21 45 -21 134v430zM366 730h-48l-100 123h80z" glyph-name="Ugrave" horiz-adv-x="639" unicode="Ù"/>
<glyph d="M73 667h67v-427q0 -52 4.5 -76.5t17.5 -46.5q44 -73 157 -73q129 0 166 93q13 36 13 110v420h67v-425q0 -102 -35 -157q-64 -98 -213 -98q-80 0 -139 30.5t-84 85.5q-21 45 -21 134v430zM272 730l68 123h80l-100 -123h-48z" glyph-name="Uacute" horiz-adv-x="639" unicode="Ú"/>
<glyph d="M73 667h67v-427q0 -52 4.5 -76.5t17.5 -46.5q44 -73 157 -73q129 0 166 93q13 36 13 110v420h67v-425q0 -102 -35 -157q-64 -98 -213 -98q-80 0 -139 30.5t-84 85.5q-21 45 -21 134v430zM185 731l99 121h71l98 -121h-65l-67 85l-73 -85h-63z" glyph-name="Ucircumflex" horiz-adv-x="639" unicode="Û"/>
<glyph d="M73 667h67v-427q0 -52 4.5 -76.5t17.5 -46.5q44 -73 157 -73q129 0 166 93q13 36 13 110v420h67v-425q0 -102 -35 -157q-64 -98 -213 -98q-80 0 -139 30.5t-84 85.5q-21 45 -21 134v430zM180 749v85h68v-85h-68zM391 749v85h68v-85h-68z" glyph-name="Udieresis" horiz-adv-x="639" unicode="Ü"/>
<glyph d="M257 0v293l-250 374h82l202 -311l204 311h76l-247 -374v-293h-67zM242 730l68 123h80l-100 -123h-48z" glyph-name="Yacute" horiz-adv-x="578" unicode="Ý"/>
<glyph d="M80 0v667h66v-100h193q106 0 154 -44q54 -49 54 -143q0 -96 -60 -145q-53 -43 -170 -43h-171v-192h-66zM146 250h150q60 0 87 4t47 17q50 31 50 110q0 64 -31 95q-33 33 -128 33h-175v-259z" glyph-name="Thorn" horiz-adv-x="580" unicode="Þ"/>
<glyph d="M73 0v464q0 94 17 129q19 40 63 63.5t101 23.5q79 0 126.5 -44.5t47.5 -117.5q0 -92 -84 -138q45 -19 68 -40q53 -48 53 -143q0 -96 -55 -153.5t-146 -57.5q-30 0 -73 11v53q40 -13 67 -13q65 0 105.5 44t40.5 115q0 73 -41.5 113.5t-116.5 40.5q-15 0 -42 -3v51 q19 -3 30 -3q64 0 98 32t34 93q0 52 -29.5 80t-85.5 28q-89 0 -111 -71q-7 -27 -7 -89v-468h-60z" glyph-name="germandbls" horiz-adv-x="511" unicode="ß"/>
<glyph d="M486 41v-41q-27 -9 -45 -9q-35 0 -50.5 16.5t-19.5 58.5q-40 -44 -79 -61.5t-95 -17.5q-73 0 -113.5 36t-40.5 101q0 62 36 98q20 21 45.5 31.5t75.5 17.5l119 18q38 5 46 13.5t8 45.5q0 49 -29 71.5t-93 22.5q-61 0 -89.5 -24.5t-33.5 -80.5h-65q5 76 53 116t134 40 q119 0 162 -63q12 -18 15.5 -38t3.5 -68v-240q0 -27 6 -37t23 -10q9 0 26 4zM371 248l-164 -25q-56 -9 -80 -31t-24 -65q0 -42 27.5 -65.5t75.5 -23.5q92 0 140 64q25 32 25 108v38zM298 567h-48l-100 123h80z" glyph-name="agrave" horiz-adv-x="507" unicode="à"/>
<glyph d="M486 41v-41q-27 -9 -45 -9q-35 0 -50.5 16.5t-19.5 58.5q-40 -44 -79 -61.5t-95 -17.5q-73 0 -113.5 36t-40.5 101q0 62 36 98q20 21 45.5 31.5t75.5 17.5l119 18q38 5 46 13.5t8 45.5q0 49 -29 71.5t-93 22.5q-61 0 -89.5 -24.5t-33.5 -80.5h-65q5 76 53 116t134 40 q119 0 162 -63q12 -18 15.5 -38t3.5 -68v-240q0 -27 6 -37t23 -10q9 0 26 4zM371 248l-164 -25q-56 -9 -80 -31t-24 -65q0 -42 27.5 -65.5t75.5 -23.5q92 0 140 64q25 32 25 108v38zM207 567l68 123h80l-100 -123h-48z" glyph-name="aacute" horiz-adv-x="507" unicode="á"/>
<glyph d="M486 41v-41q-27 -9 -45 -9q-35 0 -50.5 16.5t-19.5 58.5q-40 -44 -79 -61.5t-95 -17.5q-73 0 -113.5 36t-40.5 101q0 62 36 98q20 21 45.5 31.5t75.5 17.5l119 18q38 5 46 13.5t8 45.5q0 49 -29 71.5t-93 22.5q-61 0 -89.5 -24.5t-33.5 -80.5h-65q5 76 53 116t134 40 q119 0 162 -63q12 -18 15.5 -38t3.5 -68v-240q0 -27 6 -37t23 -10q9 0 26 4zM371 248l-164 -25q-56 -9 -80 -31t-24 -65q0 -42 27.5 -65.5t75.5 -23.5q92 0 140 64q25 32 25 108v38zM121 567l99 122h71l98 -122h-65l-67 86l-73 -86h-63z" glyph-name="acircumflex" horiz-adv-x="507" unicode="â"/>
<glyph d="M486 41v-41q-27 -9 -45 -9q-35 0 -50.5 16.5t-19.5 58.5q-40 -44 -79 -61.5t-95 -17.5q-73 0 -113.5 36t-40.5 101q0 62 36 98q20 21 45.5 31.5t75.5 17.5l119 18q38 5 46 13.5t8 45.5q0 49 -29 71.5t-93 22.5q-61 0 -89.5 -24.5t-33.5 -80.5h-65q5 76 53 116t134 40 q119 0 162 -63q12 -18 15.5 -38t3.5 -68v-240q0 -27 6 -37t23 -10q9 0 26 4zM371 248l-164 -25q-56 -9 -80 -31t-24 -65q0 -42 27.5 -65.5t75.5 -23.5q92 0 140 64q25 32 25 108v38zM367 676h36q-18 -90 -82 -90q-27 0 -97 34q-17 9 -34 9q-34 0 -47 -47h-35q15 91 86 91 q24 0 62 -18q49 -24 66 -24q33 0 45 45z" glyph-name="atilde" horiz-adv-x="507" unicode="ã"/>
<glyph d="M486 41v-41q-27 -9 -45 -9q-35 0 -50.5 16.5t-19.5 58.5q-40 -44 -79 -61.5t-95 -17.5q-73 0 -113.5 36t-40.5 101q0 62 36 98q20 21 45.5 31.5t75.5 17.5l119 18q38 5 46 13.5t8 45.5q0 49 -29 71.5t-93 22.5q-61 0 -89.5 -24.5t-33.5 -80.5h-65q5 76 53 116t134 40 q119 0 162 -63q12 -18 15.5 -38t3.5 -68v-240q0 -27 6 -37t23 -10q9 0 26 4zM371 248l-164 -25q-56 -9 -80 -31t-24 -65q0 -42 27.5 -65.5t75.5 -23.5q92 0 140 64q25 32 25 108v38zM135 584v85h68v-85h-68zM306 584v85h68v-85h-68z" glyph-name="adieresis" horiz-adv-x="507" unicode="ä"/>
<glyph d="M486 41v-41q-27 -9 -45 -9q-35 0 -50.5 16.5t-19.5 58.5q-40 -44 -79 -61.5t-95 -17.5q-73 0 -113.5 36t-40.5 101q0 62 36 98q20 21 45.5 31.5t75.5 17.5l119 18q38 5 46 13.5t8 45.5q0 49 -29 71.5t-93 22.5q-61 0 -89.5 -24.5t-33.5 -80.5h-65q5 76 53 116t134 40 q119 0 162 -63q12 -18 15.5 -38t3.5 -68v-240q0 -27 6 -37t23 -10q9 0 26 4zM371 248l-164 -25q-56 -9 -80 -31t-24 -65q0 -42 27.5 -65.5t75.5 -23.5q92 0 140 64q25 32 25 108v38zM255 712q34 0 58 -24.5t24 -58.5q0 -35 -24.5 -59.5t-59.5 -24.5q-34 0 -58.5 24.5 t-24.5 58.5q0 35 24.5 59.5t60.5 24.5zM254 676q-20 0 -33.5 -14t-13.5 -33t13.5 -33t32.5 -14t33 14t14 33t-13.5 33t-32.5 14z" glyph-name="aring" horiz-adv-x="507" unicode="å"/>
<glyph d="M118 335h-60q9 76 58.5 117t132.5 41q53 0 88.5 -18t66.5 -61q37 42 73.5 60.5t83.5 18.5q65 0 112.5 -32.5t69.5 -93.5q21 -55 21 -140h-352q4 -84 23 -118q20 -33 53.5 -52t73.5 -19q50 0 88.5 30.5t51.5 79.5h58q-58 -161 -203 -161q-112 0 -172 105 q-36 -56 -78 -80.5t-103 -24.5q-74 0 -117.5 37.5t-43.5 102.5q0 43 21.5 76.5t58.5 47.5q39 15 144 26q69 7 80.5 14.5t11.5 43.5q0 35 -8 54q-23 54 -107 54q-119 0 -126 -108zM357 191l-1 55q-31 -8 -80 -14q-95 -12 -125 -25q-50 -23 -50 -80q0 -43 28 -66.5t78 -23.5 q72 0 111 40t39 114zM413 277h293q-3 80 -41 123t-105 43q-46 0 -83 -23t-51 -60q-12 -30 -13 -83z" glyph-name="ae" horiz-adv-x="810" unicode="æ"/>
<glyph d="M269 -13l-28 -44q19 4 29 4q31 0 51 -18t20 -45q0 -34 -26.5 -56t-68.5 -22q-39 0 -88 19l13 28q38 -15 69 -15q22 0 37.5 12.5t15.5 30.5q0 16 -13 26t-33 10q-15 0 -40 -8l-15 14l43 65q-84 11 -130 64q-59 68 -59 182q0 117 61.5 188t162.5 71q79 0 129 -43.5 t61 -120.5h-60q-6 54 -39.5 82.5t-89.5 28.5q-77 0 -120.5 -54t-43.5 -149q0 -91 43 -144.5t116 -53.5q56 0 91.5 33.5t42.5 92.5h59q-35 -169 -190 -178z" glyph-name="ccedilla" horiz-adv-x="494" unicode="ç"/>
<glyph d="M404 150h61q-21 -54 -43 -85q-57 -78 -165 -78q-98 0 -154.5 65.5t-56.5 179.5q0 119 58.5 190t156.5 71q74 0 124 -39.5t68 -111.5q7 -30 12 -111h-362q1 -94 41.5 -144t114.5 -50q118 0 145 113zM106 282h298q-4 77 -40.5 119t-100.5 42q-82 0 -124 -64 q-24 -38 -33 -97zM309 567h-48l-100 123h80z" glyph-name="egrave" horiz-adv-x="511" unicode="è"/>
<glyph d="M404 150h61q-21 -54 -43 -85q-57 -78 -165 -78q-98 0 -154.5 65.5t-56.5 179.5q0 119 58.5 190t156.5 71q74 0 124 -39.5t68 -111.5q7 -30 12 -111h-362q1 -94 41.5 -144t114.5 -50q118 0 145 113zM106 282h298q-4 77 -40.5 119t-100.5 42q-82 0 -124 -64 q-24 -38 -33 -97zM218 567l68 123h80l-100 -123h-48z" glyph-name="eacute" horiz-adv-x="511" unicode="é"/>
<glyph d="M404 150h61q-21 -54 -43 -85q-57 -78 -165 -78q-98 0 -154.5 65.5t-56.5 179.5q0 119 58.5 190t156.5 71q74 0 124 -39.5t68 -111.5q7 -30 12 -111h-362q1 -94 41.5 -144t114.5 -50q118 0 145 113zM106 282h298q-4 77 -40.5 119t-100.5 42q-82 0 -124 -64 q-24 -38 -33 -97zM131 567l99 122h71l98 -122h-65l-67 86l-73 -86h-63z" glyph-name="ecircumflex" horiz-adv-x="511" unicode="ê"/>
<glyph d="M404 150h61q-21 -54 -43 -85q-57 -78 -165 -78q-98 0 -154.5 65.5t-56.5 179.5q0 119 58.5 190t156.5 71q74 0 124 -39.5t68 -111.5q7 -30 12 -111h-362q1 -94 41.5 -144t114.5 -50q118 0 145 113zM106 282h298q-4 77 -40.5 119t-100.5 42q-82 0 -124 -64 q-24 -38 -33 -97zM146 584v85h68v-85h-68zM317 584v85h68v-85h-68z" glyph-name="edieresis" horiz-adv-x="511" unicode="ë"/>
<glyph d="M73 0v480h61v-480h-61zM138 567h-48l-94 123h77z" glyph-name="igrave" horiz-adv-x="207" unicode="ì"/>
<glyph d="M74 0v480h61v-480h-61zM70 567l65 123h77l-94 -123h-48z" glyph-name="iacute" horiz-adv-x="207" unicode="í"/>
<glyph d="M74 0v480h61v-480h-61zM-10 567l79 122h71l78 -122h-61l-51 86l-56 -86h-60z" glyph-name="icircumflex" horiz-adv-x="207" unicode="î"/>
<glyph d="M73 0v480h61v-480h-61zM12 584v85h68v-85h-68zM127 584v85h68v-85h-68z" glyph-name="idieresis" horiz-adv-x="207" unicode="ï"/>
<glyph d="M345 697l24 -34l-73 -54q59 -66 93 -115q57 -81 78.5 -138t21.5 -124q0 -113 -60 -179t-162 -66t-161.5 66.5t-59.5 180.5q0 117 61 188t161 71q30 0 65 -10q-27 37 -75 97l-73 -54l-23 35l70 52q-41 52 -55 69l31 26q5 -6 13 -15t22 -24.5t25 -28.5zM268 442 q-75 0 -118.5 -55t-43.5 -150t42.5 -147t119.5 -52q76 0 118.5 52t42.5 144q0 97 -43.5 152.5t-117.5 55.5z" glyph-name="eth" horiz-adv-x="535" unicode="ð"/>
<glyph d="M73 0v480h60v-58q35 40 69 55.5t85 15.5q123 0 155 -92q10 -31 10 -91v-310h-60v307q0 59 -12 84q-27 52 -102 52q-46 0 -81 -22t-52 -62q-12 -32 -12 -93v-266h-60zM368 676h36q-18 -90 -82 -90q-27 0 -97 34q-16 9 -34 9q-34 0 -47 -47h-35q15 91 86 91q25 0 62 -18 q49 -24 66 -24q33 0 45 45z" glyph-name="ntilde" horiz-adv-x="526" unicode="ñ"/>
<glyph d="M268 493q100 0 160.5 -71t60.5 -188q0 -114 -59.5 -180.5t-161.5 -66.5q-104 0 -163 66.5t-59 183.5q0 115 61 185.5t161 70.5zM268 442q-75 0 -118.5 -55t-43.5 -150t42.5 -147t119.5 -52q76 0 118.5 52t42.5 144q0 97 -43.5 152.5t-117.5 55.5zM315 567h-48l-100 123 h80z" glyph-name="ograve" horiz-adv-x="535" unicode="ò"/>
<glyph d="M268 493q100 0 160.5 -71t60.5 -188q0 -114 -59.5 -180.5t-161.5 -66.5q-104 0 -163 66.5t-59 183.5q0 115 61 185.5t161 70.5zM268 442q-75 0 -118.5 -55t-43.5 -150t42.5 -147t119.5 -52q76 0 118.5 52t42.5 144q0 97 -43.5 152.5t-117.5 55.5zM223 567l68 123h80 l-100 -123h-48z" glyph-name="oacute" horiz-adv-x="535" unicode="ó"/>
<glyph d="M268 493q100 0 160.5 -71t60.5 -188q0 -114 -59.5 -180.5t-161.5 -66.5q-104 0 -163 66.5t-59 183.5q0 115 61 185.5t161 70.5zM268 442q-75 0 -118.5 -55t-43.5 -150t42.5 -147t119.5 -52q76 0 118.5 52t42.5 144q0 97 -43.5 152.5t-117.5 55.5zM134 567l99 122h71 l98 -122h-65l-67 86l-73 -86h-63z" glyph-name="ocircumflex" horiz-adv-x="535" unicode="ô"/>
<glyph d="M268 493q100 0 160.5 -71t60.5 -188q0 -114 -59.5 -180.5t-161.5 -66.5q-104 0 -163 66.5t-59 183.5q0 115 61 185.5t161 70.5zM268 442q-75 0 -118.5 -55t-43.5 -150t42.5 -147t119.5 -52q76 0 118.5 52t42.5 144q0 97 -43.5 152.5t-117.5 55.5zM386 676h36 q-18 -90 -82 -90q-27 0 -97 34q-17 9 -34 9q-34 0 -47 -47h-35q15 91 86 91q25 0 62 -18q49 -24 66 -24q33 0 45 45z" glyph-name="otilde" horiz-adv-x="535" unicode="õ"/>
<glyph d="M268 493q100 0 160.5 -71t60.5 -188q0 -114 -59.5 -180.5t-161.5 -66.5q-104 0 -163 66.5t-59 183.5q0 115 61 185.5t161 70.5zM268 442q-75 0 -118.5 -55t-43.5 -150t42.5 -147t119.5 -52q76 0 118.5 52t42.5 144q0 97 -43.5 152.5t-117.5 55.5zM148 584v85h68v-85h-68z M319 584v85h68v-85h-68z" glyph-name="odieresis" horiz-adv-x="535" unicode="ö"/>
<glyph d="M271 522q15 0 26 -11t11 -26q0 -16 -11 -27t-27 -11q-15 0 -26 11t-11 26q0 16 11 27t27 11zM271 220q15 0 26 -11t11 -26q0 -16 -11 -27t-27 -11q-15 0 -26 11t-11 26q0 16 11 27t27 11zM97 360h346v-53h-346v53z" glyph-name="divide" unicode="÷"/>
<glyph d="M37 7l54 63q-45 61 -45 157q0 121 60 193.5t161 72.5q78 0 143 -54l53 60l34 -31l-57 -66q48 -57 48 -165q0 -122 -58 -186.5t-169 -64.5q-83 0 -139 50l-51 -59zM130 115l244 283q-46 43 -107 43q-74 0 -117 -56t-43 -151q0 -56 20 -110zM400 359l-241 -281 q44 -41 107 -41q78 0 120.5 51t42.5 145q0 80 -29 126z" glyph-name="oslash" horiz-adv-x="534" unicode="ø"/>
<glyph d="M452 480v-480h-60v58q-35 -40 -69 -55.5t-85 -15.5q-123 0 -155 92q-10 30 -10 104v297h60v-300q0 -66 12 -91q27 -52 102 -52q76 0 116 54q29 41 29 109v280h60zM310 567h-48l-100 123h80z" glyph-name="ugrave" horiz-adv-x="526" unicode="ù"/>
<glyph d="M452 480v-480h-60v58q-35 -40 -69 -55.5t-85 -15.5q-123 0 -155 92q-10 30 -10 104v297h60v-300q0 -66 12 -91q27 -52 102 -52q76 0 116 54q29 41 29 109v280h60zM212 567l68 123h80l-100 -123h-48z" glyph-name="uacute" horiz-adv-x="526" unicode="ú"/>
<glyph d="M452 480v-480h-60v58q-35 -40 -69 -55.5t-85 -15.5q-123 0 -155 92q-10 30 -10 104v297h60v-300q0 -66 12 -91q27 -52 102 -52q76 0 116 54q29 41 29 109v280h60zM129 567l99 122h71l98 -122h-65l-67 86l-73 -86h-63z" glyph-name="ucircumflex" horiz-adv-x="526" unicode="û"/>
<glyph d="M452 480v-480h-60v58q-35 -40 -69 -55.5t-85 -15.5q-123 0 -155 92q-10 30 -10 104v297h60v-300q0 -66 12 -91q27 -52 102 -52q76 0 116 54q29 41 29 109v280h60zM143 584v85h68v-85h-68zM314 584v85h68v-85h-68z" glyph-name="udieresis" horiz-adv-x="526" unicode="ü"/>
<glyph d="M60 -168v53q27 -7 40 -7q46 0 72 66l23 62l-188 474h65l151 -399l149 399h62l-218 -561q-20 -52 -45 -71.5t-71 -19.5q-16 0 -40 4zM173 567l68 123h80l-100 -123h-48z" glyph-name="yacute" horiz-adv-x="440" unicode="ý"/>
<glyph d="M133 -172h-60v839h60v-256q33 44 69.5 63t89.5 19q91 0 149.5 -70t58.5 -179q0 -108 -55 -182q-53 -75 -163 -75q-50 0 -84.5 17t-64.5 57v-233zM287 443q-80 0 -126 -65q-31 -45 -31 -134q0 -94 31 -144q40 -63 121 -63q72 0 115 55t43 147q0 96 -40.5 150t-112.5 54z " glyph-name="thorn" horiz-adv-x="547" unicode="þ"/>
</font>
</defs>
</svg>
