<?xml version="1.0" encoding="UTF-8"?>
<svg width="120px" height="63px" viewBox="0 0 120 63" version="1.1" xmlns="http://www.w3.org/2000/svg" xmlns:xlink="http://www.w3.org/1999/xlink">
    <!-- Generator: Sketch 53.2 (72643) - https://sketchapp.com -->
    <title>Artboard</title>
    <desc>Created with Sketch.</desc>
    <g id="Artboard" stroke="none" stroke-width="1" fill="none" fill-rule="evenodd">
        <path d="M13.3248,42.5541 L33.8954,42.5541 L32.381,51.1988 L2.0299,51.1988 L10.3591,4 L20.1396,4 L13.3248,42.5541 Z M75.8118287,51.1988 L67.5457287,51.1988 L51.9600287,21.9835 L46.8489287,51.1988 L37.0684287,51.1988 L45.3976287,4 L53.6637287,4 L69.2494287,33.2784 L74.4236287,4 L84.1410287,4 L75.8118287,51.1988 Z M94.3181575,42.5541 L114.888757,42.5541 L113.374357,51.1988 L83.0232575,51.1988 L91.3524575,4 L101.132957,4 L94.3181575,42.5541 Z M1.204,56.1988 L112.5,56.1988 L111.497333,62.1988 L-7.10542736e-15,62.1988 L1.204,56.1988 Z" id="Combined-Shape" fill="#2F47F3" fill-rule="nonzero"></path>
        <path d="M18.3248,38.5541 L38.8954,38.5541 L37.381,47.1988 L7.0299,47.1988 L15.3591,0 L25.1396,0 L18.3248,38.5541 Z M80.8118287,47.1988 L72.5457287,47.1988 L56.9600287,17.9835 L51.8489287,47.1988 L42.0684287,47.1988 L50.3976287,0 L58.6637287,0 L74.2494287,29.2784 L79.4236287,0 L89.1410287,0 L80.8118287,47.1988 Z M99.3181575,38.5541 L119.888757,38.5541 L118.374357,47.1988 L88.0232575,47.1988 L96.3524575,0 L106.132957,0 L99.3181575,38.5541 Z M6.204,52.1988 L117.5,52.1988 L116.497333,58.1988 L5,58.1988 L6.204,52.1988 Z" id="Combined-Shape" fill="#FFE54B" fill-rule="nonzero"></path>
    </g>
</svg>