<?xml version="1.0" encoding="UTF-8"?>
<svg width="64px" height="64px" viewBox="0 0 64 64" version="1.1" xmlns="http://www.w3.org/2000/svg" xmlns:xlink="http://www.w3.org/1999/xlink">
    <!-- Generator: Sketch 47.1 (45422) - http://www.bohemiancoding.com/sketch -->
    <title>logomark/black</title>
    <desc>Created with Sketch.</desc>
    <defs></defs>
    <g id="Symbols" stroke="none" stroke-width="1" fill="none" fill-rule="evenodd">
        <g id="logomark/black" fill="#111822">
            <path d="M24.3176883,22.4873786 L23.9339597,22.6072421 C23.3696482,23.5909291 22.7397797,24.9875507 22.3333271,26.5725283 C22.3271764,26.5965133 22.0800402,26.8031336 21.5919185,27.192389 C21.7562063,25.2800436 21.5017514,23.9138897 21.2654488,23.8817952 C20.9344165,23.8368345 19.2726017,26.2243435 18.4737717,29.3394121 C18.467621,29.3633972 18.2204848,29.5700175 17.7323631,29.9592729 C17.8966509,28.0469275 17.642196,26.6807736 17.4058934,26.6486791 C17.0748611,26.6037184 15.4130463,28.9912273 14.6142163,32.106296 C14.6080656,32.1302811 14.3609294,32.3369013 13.8728077,32.7261567 C14.0370955,30.8138114 13.7826406,29.4476575 13.546338,29.415563 C13.2153057,29.3706022 11.5534909,31.7581112 10.7546609,34.8731799 C10.7485102,34.897165 10.4300784,35.1548965 9.79936553,35.6463744 C10.762521,29.7983045 11.8260455,25.7576081 19.4453879,20.2953635 C19.5428216,20.2255141 19.6396435,20.1566393 19.7358645,20.0887285 C19.7514043,20.0671816 19.1727841,19.7657004 18.0000039,19.184285 C17.1694653,19.6432608 16.2298936,20.2609598 15.3067839,21.0371669 C15.2873155,21.0535371 14.9875163,21.0664332 14.4073861,21.0758552 C15.7377444,19.5554345 16.4351707,18.2238913 16.294856,18.0406116 C16.0982916,17.7838582 13.4463224,18.7207363 10.9178595,20.8468226 C10.8983911,20.8631928 10.5985918,20.8760889 10.0184616,20.8855109 C11.3488199,19.3650902 12.0462462,18.033547 11.9059316,17.8502673 C11.7093672,17.5935139 9.05739795,18.5303921 6.528935,20.6564784 C6.50946661,20.6728486 6.20966734,20.6857447 5.62953719,20.6951667 C6.95989545,19.174746 7.65732179,17.8432028 7.51700711,17.6599231 C7.3204427,17.4031697 4.66847349,18.3400479 2.14001054,20.4661341 C2.12054215,20.4825043 1.7396685,20.4918843 0.997389611,20.494274 C5.37917565,16.1487988 8.67755025,13.4089895 17.3419468,13.7847577 C17.7412122,13.8020735 18.1270073,13.8249268 18.5000042,13.8532264 C19.8871925,13.2873818 20.8048804,12.7097783 20.8445156,12.4969749 C20.9172345,12.1065429 18.3344548,11.3324941 14.8735963,11.8532779 C14.8469488,11.8572877 14.6302962,11.6748099 14.2236385,11.3058443 C16.3699391,10.6216034 17.9279392,9.71717105 17.9798486,9.43846675 C18.0525675,9.04803473 15.4697878,8.27398595 12.0089293,8.79476968 C11.9822818,8.79877955 11.7656292,8.61630171 11.3589715,8.24733614 C13.5052721,7.56309519 15.0632722,6.65866285 15.1151816,6.37995856 C15.1879006,5.98952653 12.6051208,5.21547775 9.14426235,5.73626148 C9.11761479,5.74027136 8.84804466,5.50129525 8.33555194,5.01933315 C14.8684484,3.44191154 19.3558682,2.79692455 25.0111514,8.83487939 C25.7906987,9.66717576 26.4472152,10.4714067 26.9950488,11.2568151 C27.5428824,10.3240415 28.1993989,9.34321021 28.9789462,8.30121859 C34.6342294,0.742014242 39.1216492,0.179902517 45.6545457,0 L44.9656011,0.920886333 C41.3849768,1.34464227 38.8021971,2.8134489 38.874916,3.18431981 C38.9268254,3.44906068 40.4848255,3.93439694 42.6311261,4.04129128 L42.1009341,4.74997897 C38.5203098,5.17373491 35.9375301,6.64254154 36.010249,7.01341245 C36.0621584,7.27815331 37.6201586,7.76348958 39.7664591,7.87038392 L39.2362671,8.57907161 C35.6556428,9.00282755 33.0728631,10.4716342 33.145582,10.8425051 C33.1859014,11.0481364 34.1348522,11.3868539 35.5623551,11.5779471 C35.9639555,11.4382984 36.3804969,11.3010075 36.8128323,11.1659609 C45.4772288,8.45950328 48.7756034,10.3120624 53.1573895,13.478854 L52.1018651,13.8085633 C49.4863056,12.3121353 46.8343364,12.0886267 46.637772,12.3982552 C46.4974573,12.619279 47.1948836,13.7632172 48.5252419,14.9257766 L47.7129406,15.1795114 C45.0973811,13.6830834 42.4454119,13.4595748 42.2488475,13.7692033 C42.1085328,13.9902271 42.8059592,15.1341653 44.1363174,16.2967247 L43.3240162,16.5504595 C40.7084567,15.0540315 38.0564874,14.8305229 37.859923,15.1401514 C37.7196084,15.3611752 38.4170347,16.5051134 39.747393,17.6676728 L38.9350917,17.9214076 C37.9285449,17.3451177 36.992763,16.9809633 36.1646577,16.7453107 L34.355499,18.0422819 C34.5112122,18.1443866 34.618419,18.1917459 34.7263768,18.2400998 C42.3457192,21.6527705 43.4092438,25.4073828 44.3723992,30.9963676 L43.4441867,30.5806252 C42.6182739,27.5799574 40.9564591,25.6394703 40.6254268,25.7734774 C40.3891241,25.8691365 40.1346692,27.3037377 40.298957,29.1718903 L39.5846313,28.8519469 C38.7587185,25.8512792 37.0969037,23.910792 36.7658714,24.0447991 C36.5295687,24.1404582 36.2751138,25.5750594 36.4394016,27.443212 L35.7250759,27.1232686 C34.8991631,24.1226009 33.2373483,22.1821137 32.906316,22.3161208 C32.6700133,22.4117799 32.4155584,23.8463812 32.5798462,25.7145337 L31.8655205,25.3945903 C31.4324917,23.8203051 30.8036865,22.5943362 30.2399156,21.7624997 L29.8452923,21.7453852 L29.8452923,62.0194144 C29.8452923,63.5568558 28.6047901,64.9700435 27.0814903,65.1749244 C25.5550846,65.380223 24.3176883,64.302512 24.3176883,62.7628666 L24.3176883,22.4873786 Z" id="logo/palm-tree" transform="translate(27.077390, 32.600000) rotate(18.200001) translate(-27.077390, -32.600000) "></path>
        </g>
    </g>
</svg>