<?xml version="1.0" encoding="UTF-8"?>
<svg width="117px" height="24px" viewBox="0 0 117 24" version="1.1" xmlns="http://www.w3.org/2000/svg" xmlns:xlink="http://www.w3.org/1999/xlink">
    <!-- Generator: Sketch 47.1 (45422) - http://www.bohemiancoding.com/sketch -->
    <title>logo/black</title>
    <desc>Created with Sketch.</desc>
    <defs></defs>
    <g id="Symbols" stroke="none" stroke-width="1" fill="none" fill-rule="evenodd">
        <g id="logo/black" fill="#FFFFFF">
            <path d="M25,17.751462 L33.184775,17.751462 L33.9428845,15.4707602 L29.2117196,15.4707602 L31.682595,8 L28.228985,8 L25,17.751462 Z M45.5130799,8 L43.814353,13.1461988 C43.4072201,14.374269 43.1123997,14.9590643 42.7193059,15.2807018 C42.4244855,15.5292398 41.9190792,15.6900585 41.441751,15.6900585 C40.6976805,15.6900585 40.2203523,15.2807018 40.2203523,14.6374269 C40.2203523,14.2573099 40.3045867,13.8625731 40.599407,13 L42.2419777,8 L38.7883676,8 L37.2300314,12.7222222 C36.9071329,13.6578947 36.710586,14.6081871 36.710586,15.1345029 C36.710586,16.8888889 38.4654691,18 41.245204,18 C42.9018137,18 44.2636031,17.6491228 45.1621032,16.9619883 C45.976369,16.3479532 46.5098535,15.4561404 47.0994942,13.6578947 L48.9666899,8 L45.5130799,8 Z M48.9967736,17.751462 L52.2257586,8 L55.6793687,8 L54.7527904,10.8362573 L58.2485176,8 L62.9796826,8 L57.5746425,12.1520468 L59.5822288,17.751462 L56.1566969,17.751462 L54.8510638,13.9649123 L53.3348448,15.119883 L52.4644227,17.751462 L48.9967736,17.751462 Z M62.1533833,17.751462 L65.3823683,8 L73.4548308,8 L72.6967213,10.2807018 L68.0919079,10.2807018 L67.5724625,11.8157895 L71.6437914,11.8157895 L70.9558772,13.877193 L66.8985874,13.877193 L66.3651029,15.4707602 L71.0962679,15.4707602 L70.3381584,17.751462 L62.1533833,17.751462 Z M78.4567492,17.751462 L81.9243983,17.751462 L85.1393443,8 L81.6857342,8 L78.4567492,17.751462 Z M88.2720614,17.751462 L87.766655,8 L91.1781479,8 L91.3185385,14.2280702 L95.5583362,8 L99.7279386,8 L92.4416638,17.751462 L88.2720614,17.751462 Z M98.8595221,17.751462 L102.088507,8 L105.542117,8 L102.327171,17.751462 L98.8595221,17.751462 Z M105.698552,17.751462 L113.883328,17.751462 L114.641437,15.4707602 L109.910272,15.4707602 L110.443757,13.877193 L114.501046,13.877193 L115.188961,11.8157895 L111.117632,11.8157895 L111.637077,10.2807018 L116.24189,10.2807018 L117,8 L108.927537,8 L105.698552,17.751462 Z" id="Luke-Ivie"></path>
            <path d="M9.67536707,8.46684706 L9.53264596,8.5114282 C9.32276014,8.87729339 9.08849157,9.39674234 8.93731866,9.98624703 C8.935031,9.99516786 8.84311301,10.0720166 8.6615647,10.2167934 C8.72266867,9.50552997 8.62802863,8.99741294 8.54013999,8.98547593 C8.41701832,8.96875358 7.79893536,9.85674579 7.50182454,11.0153411 C7.49953687,11.0242619 7.40761889,11.1011107 7.22607058,11.2458874 C7.28717455,10.534624 7.1925345,10.026507 7.10464587,10.01457 C6.98152419,9.99784765 6.36344124,10.8858399 6.06633041,12.0444352 C6.06404275,12.053356 5.97212476,12.1302048 5.79057645,12.2749815 C5.85168043,11.5637181 5.75704038,11.0556011 5.66915174,11.0436641 C5.54603007,11.0269417 4.92794712,11.9149339 4.63083629,13.0735292 C4.62854863,13.0824501 4.51011349,13.1783088 4.27553087,13.3611054 C4.63375969,11.1860181 5.02931905,9.68315174 7.86320019,7.65156539 C7.89943894,7.62558612 7.93545013,7.59996937 7.97123787,7.57471112 C7.97701763,7.56669712 7.76180996,7.45456648 7.32561488,7.23831919 C7.01671056,7.40902719 6.66725331,7.63876954 6.32391881,7.92746619 C6.31667789,7.9335548 6.20517279,7.93835128 5.98940353,7.94185562 C6.48420701,7.37636174 6.74360254,6.88111753 6.69141495,6.81294985 C6.61830626,6.71745492 5.63195269,7.06591037 4.69153513,7.85667097 C4.6842942,7.86275959 4.5727891,7.86755607 4.35701984,7.87106041 C4.85182333,7.30556653 5.11121885,6.81032232 5.05903126,6.74215464 C4.98592257,6.64665971 3.99956901,6.99511515 3.05915144,7.78587576 C3.05191051,7.79196437 2.94040542,7.79676085 2.72463615,7.8002652 C3.21943964,7.23477131 3.47883517,6.73952711 3.42664758,6.67135942 C3.35353888,6.5758645 2.36718532,6.92431994 1.42676775,7.71508055 C1.41952682,7.72116916 1.27786753,7.72465788 1.00178988,7.72554669 C2.63151856,6.10932318 3.8582913,5.09029905 7.08086203,5.23005944 C7.22936181,5.23649976 7.37285159,5.24499965 7.51158126,5.25552517 C8.02752168,5.04506917 8.36883964,4.83023964 8.38358124,4.75109117 C8.41062779,4.60587681 7.45000804,4.31798291 6.16280227,4.51167931 C6.15289117,4.51317071 6.07231103,4.44530127 5.92106183,4.30807098 C6.71934077,4.05357952 7.29881167,3.71719173 7.31811846,3.61353255 C7.345165,3.46831819 6.38454526,3.18042428 5.09733948,3.37412068 C5.08742839,3.37561208 5.00684825,3.30774264 4.85559905,3.17051235 C5.65387798,2.9160209 6.23334889,2.57963311 6.25265568,2.47597392 C6.27970222,2.33075956 5.31908248,2.04286565 4.0318767,2.23656205 C4.02196561,2.23805346 3.92170371,2.14917047 3.73109101,1.9699131 C6.16088759,1.38321872 7.82990489,1.14332709 9.93328855,3.38903879 C10.2232276,3.69859686 10.4674074,3.99771648 10.6711645,4.28983541 C10.8749216,3.94290659 11.1191014,3.57810354 11.4090404,3.19055299 C13.5124241,0.379039145 15.1814414,0.16997152 17.611238,0.103059926 L17.3549971,0.44556749 C16.0232465,0.603176101 15.0626268,1.14947304 15.0896733,1.28741198 C15.1089801,1.38587772 15.688451,1.56639005 16.4867299,1.60614753 L16.2895343,1.86973152 C14.9577837,2.02734013 13.997164,2.57363707 14.0242105,2.71157601 C14.0435173,2.81004175 14.6229882,2.99055408 15.4212672,3.03031157 L15.2240715,3.29389555 C13.892321,3.45150417 12.9317012,3.9978011 12.9587477,4.13574005 C12.9737438,4.21222102 13.3266895,4.33820108 13.8576242,4.40927484 C14.0069925,4.35733493 14.1619178,4.306272 14.3227174,4.25604378 C17.5452881,3.24942421 18.7720608,3.93845117 20.4017895,5.11628392 L20.0092057,5.23891352 C19.0363941,4.68234331 18.0500405,4.59921319 17.9769318,4.71437408 C17.9247442,4.79658002 18.1841397,5.22204782 18.6789432,5.65444147 L18.376822,5.74881369 C17.4040104,5.19224348 16.4176568,5.10911336 16.3445481,5.22427425 C16.2923605,5.30648019 16.5517561,5.73194799 17.0465595,6.16434164 L16.7444383,6.25871386 C15.7716267,5.70214365 14.7852731,5.61901353 14.7121644,5.73417441 C14.6599768,5.81638036 14.9193724,6.24184816 15.4141759,6.67424181 L15.1120546,6.76861403 C14.7376871,6.55427307 14.3896394,6.4188322 14.0816402,6.33118535 L13.4087552,6.81357109 C13.46667,6.85154716 13.5065437,6.86916162 13.5466967,6.88714599 C16.3805779,8.15642918 16.7761372,9.55289157 17.134366,11.6316167 L16.7891336,11.4769886 C16.4819498,10.3609427 15.8638668,9.63921244 15.7407452,9.68905405 C15.6528565,9.72463276 15.5582165,10.2582076 15.6193205,10.9530343 L15.3536395,10.8340369 C15.0464557,9.71799105 14.4283727,8.99626079 14.305251,9.0461024 C14.2173624,9.08168111 14.1227224,9.61525595 14.1838263,10.3100826 L13.9181454,10.1910853 C13.6109616,9.0750394 12.9928786,8.35330914 12.8697569,8.40315075 C12.7818683,8.43872946 12.6872282,8.9723043 12.7483322,9.66713098 L12.4826513,9.54813362 C12.3215938,8.96260577 12.0877207,8.50662807 11.8780359,8.19724104 L11.7312627,8.1908756 L11.7312627,23.1700964 C11.7312627,23.7419208 11.2698796,24.2675312 10.7033149,24.3437331 C10.135595,24.4200903 9.67536707,24.0192546 9.67536707,23.4466104 L9.67536707,8.46684706 Z" id="logo/palm-tree" transform="translate(10.701790, 12.228060) rotate(18.200001) translate(-10.701790, -12.228060) "></path>
        </g>
    </g>
</svg>