<?xml version="1.0" encoding="UTF-8"?>
<svg width="107px" height="19px" viewBox="0 0 107 19" version="1.1" xmlns="http://www.w3.org/2000/svg" xmlns:xlink="http://www.w3.org/1999/xlink">
    <!-- Generator: Sketch 47.1 (45422) - http://www.bohemiancoding.com/sketch -->
    <title>logo/black</title>
    <desc>Created with Sketch.</desc>
    <defs></defs>
    <g id="Symbols" stroke="none" stroke-width="1" fill="none" fill-rule="evenodd">
        <g id="logo/black" fill="#111822">
            <path d="M15,18.751462 L23.184775,18.751462 L23.9428845,16.4707602 L19.2117196,16.4707602 L21.682595,9 L18.228985,9 L15,18.751462 Z M35.5130799,9 L33.814353,14.1461988 C33.4072201,15.374269 33.1123997,15.9590643 32.7193059,16.2807018 C32.4244855,16.5292398 31.9190792,16.6900585 31.441751,16.6900585 C30.6976805,16.6900585 30.2203523,16.2807018 30.2203523,15.6374269 C30.2203523,15.2573099 30.3045867,14.8625731 30.599407,14 L32.2419777,9 L28.7883676,9 L27.2300314,13.7222222 C26.9071329,14.6578947 26.710586,15.6081871 26.710586,16.1345029 C26.710586,17.8888889 28.4654691,19 31.245204,19 C32.9018137,19 34.2636031,18.6491228 35.1621032,17.9619883 C35.976369,17.3479532 36.5098535,16.4561404 37.0994942,14.6578947 L38.9666899,9 L35.5130799,9 Z M38.9967736,18.751462 L42.2257586,9 L45.6793687,9 L44.7527904,11.8362573 L48.2485176,9 L52.9796826,9 L47.5746425,13.1520468 L49.5822288,18.751462 L46.1566969,18.751462 L44.8510638,14.9649123 L43.3348448,16.119883 L42.4644227,18.751462 L38.9967736,18.751462 Z M52.1533833,18.751462 L55.3823683,9 L63.4548308,9 L62.6967213,11.2807018 L58.0919079,11.2807018 L57.5724625,12.8157895 L61.6437914,12.8157895 L60.9558772,14.877193 L56.8985874,14.877193 L56.3651029,16.4707602 L61.0962679,16.4707602 L60.3381584,18.751462 L52.1533833,18.751462 Z M68.4567492,18.751462 L71.9243983,18.751462 L75.1393443,9 L71.6857342,9 L68.4567492,18.751462 Z M78.2720614,18.751462 L77.766655,9 L81.1781479,9 L81.3185385,15.2280702 L85.5583362,9 L89.7279386,9 L82.4416638,18.751462 L78.2720614,18.751462 Z M88.8595221,18.751462 L92.0885072,9 L95.5421172,9 L92.3271713,18.751462 L88.8595221,18.751462 Z M95.6985525,18.751462 L103.883328,18.751462 L104.641437,16.4707602 L99.9102721,16.4707602 L100.443757,14.877193 L104.501046,14.877193 L105.188961,12.8157895 L101.117632,12.8157895 L101.637077,11.2807018 L106.24189,11.2807018 L107,9 L98.9275375,9 L95.6985525,18.751462 Z" id="Luke-Ivie"></path>
            <path d="M5.79648775,6.65075825 L5.68466502,6.6856878 C5.52021839,6.97234507 5.33666776,7.379336 5.218223,7.84121598 C5.21643061,7.8482055 5.14441239,7.90841692 5.00216835,8.02185024 C5.05004363,7.46457167 4.97589266,7.06645935 4.90703146,7.05710664 C4.81056499,7.0440046 4.3262938,7.73975108 4.09350593,8.6475165 C4.09171354,8.65450602 4.01969532,8.71471744 3.87745128,8.82815076 C3.92532656,8.2708722 3.85117559,7.87275987 3.78231439,7.86340717 C3.68584792,7.85030512 3.20157673,8.54605161 2.96878887,9.45381702 C2.96699647,9.46080654 2.89497825,9.52101796 2.75273421,9.63445128 C2.80060949,9.07717272 2.72645853,8.6790604 2.65759732,8.66970769 C2.56113086,8.65660564 2.07685967,9.35235213 1.8440718,10.2601175 C1.8422794,10.2671071 1.74948486,10.3422129 1.56568817,10.4854349 C1.8463623,8.7812428 2.1562851,7.60373925 4.37664562,6.01198084 C4.40503887,5.99162595 4.43325383,5.9715551 4.46129371,5.95176512 C4.46582217,5.94548612 4.29720586,5.85763118 3.95544476,5.68820031 C3.71341662,5.82195091 3.43961506,6.00195523 3.17061071,6.22815054 C3.1649374,6.232921 3.07757259,6.23667907 2.90851625,6.23942474 C3.29619734,5.79635736 3.49943508,5.40833096 3.45854583,5.35492123 C3.40126479,5.28010046 2.62845168,5.5531171 1.89162965,6.17268213 C1.88595635,6.17745259 1.79859153,6.18121065 1.62953519,6.18395633 C2.01721628,5.74088894 2.22045402,5.35286255 2.17956477,5.29945282 C2.12228373,5.22463205 1.34947062,5.49764869 0.612648593,6.11721371 C0.606975287,6.12198417 0.519610469,6.12574224 0.350554136,6.12848791 C0.738235225,5.68542053 0.941472963,5.29739413 0.900583716,5.2439844 C0.843302676,5.16916363 0.0704895606,5.44218027 -0.666332466,6.06174529 C-0.672005771,6.06651576 -0.782996557,6.06924918 -0.999304824,6.06994557 C0.27759602,4.8036261 1.2387788,4.00521542 3.76367963,4.11471841 C3.88002998,4.11976444 3.99245496,4.12642414 4.10115037,4.13467094 C4.50539236,3.96977758 4.77281675,3.80145753 4.78436687,3.7394443 C4.80555798,3.6256681 4.05290744,3.40010173 3.04437506,3.55186386 C3.03660967,3.55303238 2.97347471,3.49985633 2.85497018,3.39233568 C3.48042585,3.19294031 3.93444431,2.92937874 3.94957127,2.84816123 C3.97076238,2.73438503 3.21811184,2.50881867 2.20957946,2.6605808 C2.20181407,2.66174932 2.13867911,2.60857326 2.02017458,2.50105262 C2.64563026,2.30165725 3.09964871,2.03809568 3.11477567,1.95687817 C3.13596678,1.84310196 2.38331624,1.6175356 1.37478386,1.76929773 C1.36701847,1.77046625 1.28846276,1.70082597 1.13911672,1.5603769 C3.04287491,1.10069882 4.35055859,0.912742486 5.99857056,2.67226921 C6.22573926,2.91480956 6.41705542,3.14917133 6.57670018,3.37804803 C6.73634494,3.1062275 6.92766109,2.82040242 7.15482979,2.51675456 C8.80284177,0.31391893 10.1105254,0.150113365 12.0142836,0.0976877848 L11.8135176,0.366044232 C10.7700841,0.489531393 10.0174336,0.917557867 10.0386247,1.02563374 C10.0537516,1.10278216 10.5077701,1.2442145 11.1332258,1.2753647 L10.978722,1.48188411 C9.93528851,1.60537128 9.18263797,2.03339775 9.20382908,2.14147363 C9.21895605,2.21862204 9.6729745,2.36005439 10.2984302,2.39120458 L10.1439264,2.597724 C9.10049291,2.72121116 8.34784238,3.14923763 8.36903348,3.25731351 C8.380783,3.31723675 8.65731773,3.41594277 9.07330785,3.47162943 C9.19033865,3.43093425 9.31172341,3.39092618 9.43771072,3.3515721 C11.9626115,2.56288047 12.9237943,3.10273666 14.2006952,4.0255747 L13.8931037,4.12165563 C13.1309008,3.68557999 12.3580877,3.62044711 12.3008066,3.71067626 C12.2599174,3.77508504 12.4631551,4.10844127 12.8508362,4.44722392 L12.6141227,4.52116505 C11.8519197,4.08508941 11.0791066,4.01995653 11.0218256,4.11018568 C10.9809363,4.17459446 11.1841741,4.50795069 11.5718552,4.84673334 L11.3351416,4.92067446 C10.5729387,4.48459883 9.80012556,4.41946595 9.74284452,4.5096951 C9.70195527,4.57410388 9.90519301,4.90746011 10.2928741,5.24624276 L10.0561605,5.32018388 C9.76284169,5.15224663 9.4901445,5.04612801 9.24882549,4.97745626 L8.72161666,5.35540798 C8.7669932,5.38516242 8.79823443,5.39896344 8.82969454,5.41305429 C11.0500551,6.40754423 11.3599779,7.50167973 11.640652,9.13037161 L11.3701606,9.00921968 C11.1294805,8.13479197 10.6452093,7.56931258 10.5487428,7.60836374 C10.4798816,7.63623984 10.4057307,8.05429849 10.453606,8.59869879 L10.2454436,8.50546374 C10.0047634,7.63103603 9.52049224,7.06555664 9.42402578,7.1046078 C9.35516458,7.1324839 9.28101361,7.55054255 9.32888889,8.09494285 L9.12072648,8.0017078 C8.88004637,7.12728009 8.39577518,6.5618007 8.29930871,6.60085185 C8.23044751,6.62872796 8.15629654,7.04678661 8.20417182,7.5911869 L7.99600942,7.49795186 C7.86982005,7.03918776 7.68657927,6.68192687 7.5222902,6.43952054 L7.40729261,6.43453318 L7.40729261,18.1708301 C7.40729261,18.6188575 7.04579656,19.030676 6.60189018,19.0903805 C6.1570787,19.1502068 5.79648775,18.8361499 5.79648775,18.3874803 L5.79648775,6.65075825 Z" id="logo/palm-tree" transform="translate(6.600695, 9.597688) rotate(18.000000) translate(-6.600695, -9.597688) "></path>
        </g>
    </g>
</svg>