<?xml version="1.0" encoding="UTF-8"?>
<svg width="92px" height="10px" viewBox="0 0 92 10" version="1.1" xmlns="http://www.w3.org/2000/svg" xmlns:xlink="http://www.w3.org/1999/xlink">
    <!-- Generator: Sketch 47.1 (45422) - http://www.bohemiancoding.com/sketch -->
    <title>logo/white</title>
    <desc>Created with Sketch.</desc>
    <defs></defs>
    <g id="Symbols" stroke="none" stroke-width="1" fill="none" fill-rule="evenodd">
        <g id="logo/white" fill="#FFFFFF">
            <path d="M0,9.75146199 L8.18477503,9.75146199 L8.94288455,7.47076023 L4.21171957,7.47076023 L6.68259505,0 L3.228985,0 L0,9.75146199 Z M20.5130799,0 L18.814353,5.14619883 C18.4072201,6.37426901 18.1123997,6.95906433 17.7193059,7.28070175 C17.4244855,7.52923977 16.9190792,7.69005848 16.441751,7.69005848 C15.6976805,7.69005848 15.2203523,7.28070175 15.2203523,6.6374269 C15.2203523,6.25730994 15.3045867,5.8625731 15.599407,5 L17.2419777,0 L13.7883676,0 L12.2300314,4.72222222 C11.9071329,5.65789474 11.710586,6.60818713 11.710586,7.13450292 C11.710586,8.88888889 13.4654691,10 16.245204,10 C17.9018137,10 19.2636031,9.64912281 20.1621032,8.9619883 C20.976369,8.34795322 21.5098535,7.45614035 22.0994942,5.65789474 L23.9666899,0 L20.5130799,0 Z M23.9967736,9.75146199 L27.2257586,0 L30.6793687,0 L29.7527904,2.83625731 L33.2485176,0 L37.9796826,0 L32.5746425,4.15204678 L34.5822288,9.75146199 L31.1566969,9.75146199 L29.8510638,5.96491228 L28.3348448,7.11988304 L27.4644227,9.75146199 L23.9967736,9.75146199 Z M37.1533833,9.75146199 L40.3823683,0 L48.4548308,0 L47.6967213,2.28070175 L43.0919079,2.28070175 L42.5724625,3.81578947 L46.6437914,3.81578947 L45.9558772,5.87719298 L41.8985874,5.87719298 L41.3651029,7.47076023 L46.0962679,7.47076023 L45.3381584,9.75146199 L37.1533833,9.75146199 Z M53.4567492,9.75146199 L56.9243983,9.75146199 L60.1393443,0 L56.6857342,0 L53.4567492,9.75146199 Z M63.2720614,9.75146199 L62.766655,0 L66.1781479,0 L66.3185385,6.22807018 L70.5583362,0 L74.7279386,0 L67.4416638,9.75146199 L63.2720614,9.75146199 Z M73.8595221,9.75146199 L77.0885072,0 L80.5421172,0 L77.3271713,9.75146199 L73.8595221,9.75146199 Z M80.6985525,9.75146199 L88.8833275,9.75146199 L89.641437,7.47076023 L84.9102721,7.47076023 L85.4437565,5.87719298 L89.5010464,5.87719298 L90.1889606,3.81578947 L86.1176317,3.81578947 L86.6370771,2.28070175 L91.2418905,2.28070175 L92,0 L83.9275375,0 L80.6985525,9.75146199 Z" id="Luke-Ivie"></path>
        </g>
    </g>
</svg>