<?xml version="1.0" encoding="UTF-8"?>
<svg width="200px" height="21px" viewBox="0 0 200 21" version="1.1" xmlns="http://www.w3.org/2000/svg" xmlns:xlink="http://www.w3.org/1999/xlink">
    <!-- Generator: Sketch 48.2 (47327) - http://www.bohemiancoding.com/sketch -->
    <title>Logo</title>
    <desc>Created with Sketch.</desc>
    <defs></defs>
    <g id="Page-1" stroke="none" stroke-width="1" fill="none" fill-rule="evenodd">
        <g id="Logo" fill="#FFFFFF">
            <path d="M0,0.509272468 L6.54501583,0.509272468 L8.92776353,7.87874465 L13.9043885,0.509272468 L21.4447293,0.509272468 L11.5216408,13.4208274 L9.83260443,20.4907275 L3.46855678,20.4907275 L5.12743176,13.510699 L0,0.509272468 Z M31.3979792,0 C33.5997587,0 35.6507314,0.629101284 37.2191223,1.76747504 C39.4209018,3.35520685 40.5368723,5.87161198 40.5368723,9.10699001 C40.5368723,15.8473609 35.62057,21 29.1660383,21 C26.7229679,21 24.4005429,20.2510699 22.7115066,18.9029957 C20.7510179,17.3452211 19.6953702,14.9186876 19.6953702,11.9529244 C19.6953702,8.62767475 21.0224702,5.39229672 23.2845725,3.20542083 C25.5466747,1.04850214 28.2008747,0 31.3979792,0 Z M31.217011,4.79315264 C29.9803951,4.79315264 28.8644247,5.36233951 27.9595838,6.44079886 C26.6928065,7.99857347 25.9086111,10.1554922 25.9086111,12.2225392 C25.9086111,14.4094151 27.2658724,15.9372325 29.1961997,15.9372325 C31.9408837,15.9372325 34.3839542,12.4621969 34.3839542,8.50784593 C34.3839542,6.29101284 33.1171769,4.79315264 31.217011,4.79315264 Z M57.9098175,0.509272468 L64.1833811,0.509272468 L61.438697,13.2710414 C60.6545016,17.0156919 59.9306289,18.3038516 58.030463,19.4721826 C56.4922334,20.4607703 54.1698085,21 51.6060926,21 C45.9659177,21 42.7989745,18.5135521 42.7989745,14.0798859 C42.7989745,13.4208274 42.8894586,12.6119829 43.0402654,11.9529244 L45.4833358,0.509272468 L51.7568994,0.509272468 L49.2535063,12.2824536 C49.1630222,12.7318117 49.1026994,13.1811698 49.1026994,13.510699 C49.1026994,14.9486448 50.1583472,15.9072753 51.7870608,15.9072753 C53.6872267,15.9072753 54.8635198,14.7389444 55.376263,12.3124108 L57.9098175,0.509272468 Z M86.5027899,0.509272468 L82.2198763,20.4907275 L76.0367969,20.4907275 L72.2967878,9.49643367 L69.9442015,20.4907275 L63.7309606,20.4907275 L68.0138742,0.509272468 L73.9556628,0.509272468 L77.8163173,12.2225392 L80.3197105,0.509272468 L86.5027899,0.509272468 Z M100.738953,13.4208274 L97.964108,13.4208274 L98.8387875,9.28673324 L107.555422,9.28673324 L105.142512,20.4907275 L100.980244,20.4907275 L101.372342,17.914408 C100.075403,19.8915835 97.9037853,21 95.4305535,21 C93.3494194,21 91.2682853,20.2211127 89.8507013,18.8730385 C88.1918263,17.3452211 87.1361786,14.7389444 87.1361786,12.192582 C87.1361786,8.83737518 88.6140854,5.2425107 90.9968331,2.90584879 C92.987483,0.928673324 95.641683,0 99.1705625,0 C101.432665,0 103.121701,0.389443652 104.509124,1.22824536 C106.439451,2.39657632 107.52526,4.31383738 107.52526,6.62054208 C107.52526,6.68045649 107.52526,6.92011412 107.495099,7.15977175 L101.673956,7.15977175 C101.523149,5.60199715 100.497662,4.79315264 98.7483034,4.79315264 C95.9131353,4.79315264 93.4097421,8.29814551 93.4097421,12.2524964 C93.4097421,14.5292439 94.8273262,15.9671897 97.0291057,15.9671897 C98.6879807,15.9671897 100.165887,14.9486448 100.738953,13.4208274 Z M123.691751,15.1883024 L132.378223,15.1883024 L131.232092,20.4907275 L116.241894,20.4907275 L120.524808,0.509272468 L126.828533,0.509272468 L123.691751,15.1883024 Z M150.475041,0.509272468 L156.748605,0.509272468 L154.003921,13.2710414 C153.219726,17.0156919 152.495853,18.3038516 150.595687,19.4721826 C149.057457,20.4607703 146.735032,21 144.171317,21 C138.531142,21 135.364198,18.5135521 135.364198,14.0798859 C135.364198,13.4208274 135.454683,12.6119829 135.605489,11.9529244 L138.04856,0.509272468 L144.322123,0.509272468 L141.81873,12.2824536 C141.728246,12.7318117 141.667923,13.1811698 141.667923,13.510699 C141.667923,14.9486448 142.723571,15.9072753 144.352285,15.9072753 C146.252451,15.9072753 147.428744,14.7389444 147.941487,12.3124108 L150.475041,0.509272468 Z M170.260896,9.04707561 L177.469462,20.4907275 L170.110089,20.4907275 L165.947821,12.7617689 L163.896848,14.4693295 L162.59991,20.4907275 L156.296185,20.4907275 L160.548937,0.509272468 L166.852662,0.509272468 L165.555723,6.59058488 L171.708641,0.509272468 L180.183984,0.509272468 L170.260896,9.04707561 Z M188.237068,5.69186876 L187.754487,7.99857347 L196.89338,7.99857347 L195.898055,12.6119829 L186.759162,12.6119829 L186.186096,15.278174 L197.285477,15.278174 L196.169507,20.4907275 L178.917207,20.4907275 L183.200121,0.509272468 L200,0.509272468 L198.88403,5.69186876 L188.237068,5.69186876 Z" id="YOUNG-LUKE-Copy"></path>
        </g>
    </g>
</svg>