<?xml version="1.0" encoding="UTF-8"?>
<svg width="1091px" height="1090px" viewBox="0 0 1091 1090" version="1.1" xmlns="http://www.w3.org/2000/svg" xmlns:xlink="http://www.w3.org/1999/xlink">
    <!-- Generator: Sketch 46.1 (44463) - http://www.bohemiancoding.com/sketch -->
    <title>Artboard</title>
    <desc>Created with Sketch.</desc>
    <defs>
        <path d="M508.182542,605.551163 L502.986697,606.467331 C495.282183,618.752895 486.677089,636.526765 481.130698,657.266273 C481.004977,657.736378 480.881981,658.206112 480.761662,658.675422 L471.015631,664.302296 C473.247498,638.719017 469.767493,619.763792 466.542374,618.897953 C462.024362,617.685014 439.357507,646.965336 428.47216,687.668694 C428.34644,688.138799 428.223443,688.608533 428.103124,689.077843 L418.357093,694.704717 C420.58896,669.121438 417.108955,650.166213 413.883837,649.300374 C409.365824,648.087435 386.698969,677.367757 375.813623,718.071115 C375.687902,718.54122 375.564905,719.010954 375.444586,719.480264 L365.698555,725.107138 C367.930422,699.523859 364.450417,680.568634 361.225299,679.702795 C356.707286,678.489856 334.040431,707.770178 323.155085,748.473536 C323.029364,748.943641 322.906367,749.413375 322.786048,749.882685 L310.121814,757.194385 C323.235141,679.800393 337.727951,627.052121 441.683819,567.033173 C443.019092,566.262252 444.345947,565.503514 445.664535,564.756831 C445.963994,564.38484 446.258661,564.015313 446.548502,563.648396 L421.872762,549.401857 C410.567137,554.102182 397.788636,560.741089 385.232958,569.541717 C384.834473,569.821026 384.438312,570.101803 384.044476,570.383976 L372.961698,568.429783 C391.116022,550.266471 400.634368,533.509022 398.720334,530.772685 C396.038998,526.939398 359.854152,534.799452 325.351878,558.983067 C324.953393,559.262376 324.557232,559.543153 324.163396,559.825326 L313.080618,557.871133 C331.234942,539.707821 340.753288,522.950372 338.839254,520.214035 C336.157918,516.380748 299.973072,524.240802 265.470798,548.424417 C265.072313,548.703726 264.676152,548.984503 264.282316,549.266676 L253.199538,547.312483 C271.353862,529.149171 280.872208,512.391722 278.958175,509.655385 C276.276838,505.822098 240.091992,513.682152 205.589719,537.865767 C205.191233,538.145076 204.795073,538.425853 204.401236,538.708026 L190,536.1687 C249.793291,485.310547 294.801362,454.218825 413.015614,475.063187 C418.464655,476.024 423.729793,477.035309 428.820203,478.0971 C447.735214,472.959139 460.24696,466.81532 460.788878,464.009947 C461.783886,458.859041 426.533172,443.70129 379.28862,444.470889 C378.742967,444.479778 378.197968,444.491439 377.65368,444.505808 L370.419911,435.884937 C399.721493,430.51945 420.994007,421.107636 421.704279,417.430736 C422.699287,412.279829 387.448573,397.122079 340.204021,397.891678 C339.658368,397.900566 339.113369,397.912228 338.569081,397.926596 L331.335311,389.305725 C360.636894,383.940239 381.909408,374.528425 382.61968,370.851524 C383.614688,365.700618 348.363974,350.542868 301.119422,351.312466 C300.573769,351.321355 300.02877,351.333016 299.484482,351.347385 L290.084743,340.145212 C379.269641,330.650362 440.527707,330.062082 517.68658,422.016445 C528.303127,434.668754 537.246555,446.720369 544.711592,458.321556 C552.176629,446.720369 561.120056,434.668754 571.736603,422.016445 C648.895476,330.062082 710.153542,330.650362 799.338441,340.145212 L789.938701,351.347385 C789.394414,351.333016 788.849415,351.321355 788.303762,351.312466 C741.05921,350.542868 705.808495,365.700618 706.803503,370.851524 C707.513776,374.528425 728.786289,383.940239 758.087872,389.305725 L750.854102,397.926596 C750.309815,397.912228 749.764815,397.900566 749.219162,397.891678 C701.974611,397.122079 666.723896,412.279829 667.718904,417.430736 C668.429177,421.107636 689.70169,430.51945 719.003273,435.884937 L711.769503,444.505808 C711.225216,444.491439 710.680216,444.479778 710.134563,444.470889 C662.890011,443.70129 627.639297,458.859041 628.634305,464.009947 C629.185574,466.863725 642.123303,473.172151 661.587781,478.362139 C667.068782,477.203287 672.753781,476.10363 678.654431,475.063187 C796.868682,454.218825 841.876754,485.310547 901.670045,536.1687 L887.268808,538.708026 C886.874972,538.425853 886.478811,538.145076 886.080326,537.865767 C851.578052,513.682152 815.393206,505.822098 812.71187,509.655385 C810.797837,512.391722 820.316182,529.149171 838.470506,547.312483 L827.387728,549.266676 C826.993892,548.984503 826.597732,548.703726 826.199246,548.424417 C791.696973,524.240802 755.512126,516.380748 752.83079,520.214035 C750.916757,522.950372 760.435102,539.707821 778.589427,557.871133 L767.506648,559.825326 C767.112812,559.543153 766.716652,559.262376 766.318166,558.983067 C731.815893,534.799452 695.631046,526.939398 692.94971,530.772685 C691.035677,533.509022 700.554023,550.266471 718.708347,568.429783 L707.625569,570.383976 C707.231732,570.101803 706.835572,569.821026 706.437086,569.541717 C693.931234,560.776013 681.204325,554.154908 669.931948,549.457907 L645.194171,563.740269 C645.3979,563.997761 645.603999,564.256534 645.812456,564.516533 C647.270774,565.340587 648.739211,566.179409 650.217973,567.033173 C754.173841,627.052121 768.66665,679.800393 781.779978,757.194385 L769.115743,749.882685 C768.995425,749.413375 768.872428,748.943641 768.746707,748.473536 C757.86136,707.770178 735.194505,678.489856 730.676493,679.702795 C727.451375,680.568634 723.97137,699.523859 726.203237,725.107138 L716.457206,719.480264 C716.336887,719.010954 716.21389,718.54122 716.088169,718.071115 C705.202823,677.367757 682.535968,648.087435 678.017955,649.300374 C674.792837,650.166213 671.312832,669.121438 673.544699,694.704717 L663.798668,689.077843 C663.678349,688.608533 663.555352,688.138799 663.429631,687.668694 C652.544285,646.965336 629.87743,617.685014 625.359417,618.897953 C622.134299,619.763792 618.654294,638.719017 620.886161,664.302296 L611.14013,658.675422 C611.019811,658.206112 610.896814,657.736378 610.771094,657.266273 C605.231612,636.552602 596.641045,618.797184 588.943893,606.513272 L583.599401,605.570894 L583.599401,1089.69021 C867.095304,1070.13155 1091,833.963645 1091,545.5 C1091,244.228669 846.771331,0 545.5,0 C244.228669,0 0,244.228669 0,545.5 C0,834.228808 224.316524,1070.56569 508.182542,1089.7436 L508.182542,605.551163 Z" id="path-1"></path>
    </defs>
    <g id="SVG" stroke="none" stroke-width="1" fill="none" fill-rule="evenodd">
        <g id="Artboard">
            <g id="logo/circle/white">
                <mask id="mask-2" fill="white">
                    <use xlink:href="#path-1"></use>
                </mask>
                <use id="palm-tree-circle" fill="#FFFFFF" fill-rule="evenodd" xlink:href="#path-1"></use>
            </g>
        </g>
    </g>
</svg>