<?xml version="1.0" encoding="UTF-8"?>
<svg width="389px" height="389px" viewBox="0 0 389 389" version="1.1" xmlns="http://www.w3.org/2000/svg" xmlns:xlink="http://www.w3.org/1999/xlink">
    <!-- Generator: Sketch 48.2 (47327) - http://www.bohemiancoding.com/sketch -->
    <title>Artboard</title>
    <desc>Created with Sketch.</desc>
    <defs>
        <linearGradient x1="50%" y1="0%" x2="50%" y2="98.5590721%" id="linearGradient-1">
            <stop stop-color="#3D2599" offset="0%"></stop>
            <stop stop-color="#FFCACA" offset="73.5741429%"></stop>
            <stop stop-color="#ED68A7" offset="100%"></stop>
        </linearGradient>
    </defs>
    <g id="Page-1" stroke="none" stroke-width="1" fill="none" fill-rule="evenodd">
        <g id="Artboard" fill="url(#linearGradient-1)">
            <g id="Group-Copy">
                <path d="M154.422327,384.866427 L199.379017,217.085774 L202.036613,218.325866 C203.659104,223.448341 205.099659,230.690971 205.131606,238.712569 C205.132228,238.891838 205.132144,239.069883 205.130835,239.248635 L208.071756,242.190027 C209.672924,232.891604 212.686661,226.500857 213.91545,226.505033 C215.637338,226.511926 220.960528,239.100618 221.022104,254.603814 C221.022986,254.782117 221.023609,254.961387 221.0223,255.140139 L223.962514,258.080306 C225.563423,248.782849 228.577419,242.391136 229.804983,242.396019 C231.526871,242.402912 236.851027,254.991863 236.912862,270.494092 C236.912519,270.673103 236.913401,270.851407 236.912091,271.030159 L239.853272,273.970585 C241.455146,264.673386 244.467918,258.282381 245.696448,258.287523 C247.417629,258.293191 252.741785,270.882142 252.80362,286.384371 C252.804242,286.563641 252.803899,286.742652 252.802849,286.920438 L256.62476,290.742867 C259.204809,262.000252 258.987923,241.872274 227.61747,210.501055 C227.138918,210.022904 226.662677,209.551584 226.189713,209.087353 C226.058524,208.796488 225.931389,208.509815 225.809014,208.228558 L235.881772,205.529616 C239.507274,208.280706 243.492035,211.88174 247.183824,216.243882 C247.299157,216.381419 247.413524,216.518697 247.527891,216.655975 L251.67119,217.018699 C246.921271,208.866552 245.120659,202.03266 246.065095,201.247339 C247.388418,200.145288 259.557794,206.366953 269.570641,218.202764 C269.685973,218.3403 269.800599,218.476612 269.914707,218.614856 L274.058265,218.976615 C269.308347,210.824468 267.508441,203.9918 268.453137,203.205513 C269.774976,202.105136 281.944611,208.325835 291.957457,220.161645 C292.074014,220.298475 292.188381,220.435753 292.301782,220.572772 L296.445082,220.935496 C291.696129,212.783608 289.895257,205.950682 290.839953,205.164395 C292.163017,204.063311 304.332393,210.284975 314.345498,222.11982 C314.460831,222.257357 314.575456,222.393669 314.689564,222.531913 L320.073253,223.002343 C303.5751,199.325539 290.469911,184.047066 246.273963,180.179529 C244.423686,180.018143 242.622653,179.885481 240.871122,179.780577 C233.812033,175.876523 229.360425,172.082069 229.443904,170.955281 C229.585477,169.028261 243.600043,166.96106 260.352315,171.696213 C260.545689,171.751134 260.738805,171.80702 260.930696,171.863613 L264.338179,169.478256 C254.41983,164.800818 247.750781,159.441114 247.853238,158.065768 C247.994811,156.138748 262.009118,154.072512 278.760683,158.806441 C278.954765,158.862586 279.147432,158.916282 279.339065,158.973841 L282.746548,156.588484 C272.828198,151.911046 266.159149,146.551342 266.260382,145.176703 C266.403439,143.24801 280.418004,141.180809 297.168793,145.917635 C297.363392,145.971848 297.556508,146.027735 297.748399,146.084328 L302.17457,142.984274 C294.664433,140.110589 287.697422,137.582242 280.923384,135.767144 C259.87367,130.127926 240.721054,131.383652 213.227674,150.634809 C208.204321,154.151498 203.840975,157.612097 200.052369,161.052772 C198.491678,156.178758 196.442243,150.999858 193.851202,145.442899 C175.101861,105.235167 153.26028,99.5452712 120.645232,94.3436341 L122.929347,99.2417044 C123.123827,99.2886386 123.319013,99.3367975 123.513682,99.3868883 C140.388703,103.66007 151.493039,112.457861 150.651617,114.199428 C150.051967,115.440516 141.59655,116.747632 130.668288,115.839237 L132.426576,119.608759 C132.62228,119.654986 132.815983,119.704818 133.011169,119.752977 C149.885414,124.029056 160.990008,132.825881 160.149105,134.565516 C159.549196,135.80757 151.094744,137.114945 140.166483,136.20655 L141.923805,139.975813 C142.118284,140.022747 142.31347,140.070906 142.509364,140.12029 C159.383868,144.395404 170.487237,153.192936 169.647299,154.932829 C169.16505,155.928956 163.635909,156.967289 155.829936,156.870662 C154.426508,156.173679 152.979405,155.477417 151.488627,154.781875 C111.280045,136.033286 92.292348,142.712497 66.1651604,154.967875 L71.0637525,157.252573 C71.230729,157.189646 71.3991196,157.129168 71.5668031,157.067465 C86.154863,151.824482 99.80565,152.52131 100.400915,154.136409 C100.825902,155.289701 95.850804,160.307012 87.6611802,164.992019 L91.4307451,166.74954 C91.5974627,166.687578 91.7661121,166.626134 91.9335369,166.565398 C106.522821,161.321708 120.172384,162.019242 120.767907,163.633376 C121.192894,164.786668 116.217797,169.803978 108.028173,174.488986 L111.797479,176.247473 C111.965421,176.184804 112.132846,176.124067 112.301495,176.062623 C126.889814,170.818675 140.540601,171.515502 141.135607,173.131567 C141.560853,174.283893 136.585496,179.30217 128.395872,183.987177 L132.165437,185.744698 C132.332155,185.682737 132.499838,185.621034 132.668488,185.55959 C138.046742,183.627759 143.297198,182.501294 147.813485,181.931789 L155.187279,189.305522 C154.94067,189.487909 154.688197,189.672867 154.428186,189.85891 C153.785506,190.024204 153.138375,190.194518 152.484861,190.369333 C109.631642,201.852379 99.3788583,219.175018 87.2438709,245.357395 L92.4639916,243.95777 C92.5519751,243.803278 92.6411834,243.648079 92.7303917,243.492879 C100.536023,230.098731 111.441353,221.858457 112.934773,222.714139 C114.001282,223.323951 113.414916,230.36511 110.153581,239.217658 L114.170931,238.141764 C114.259173,237.986306 114.348123,237.832072 114.438297,237.677132 C122.242962,224.282724 133.148292,216.042451 134.641971,216.897167 C135.70848,217.506979 135.122822,224.549363 131.86052,233.401651 L135.87787,232.325758 C135.966112,232.1703 136.055321,232.0151 136.145236,231.861125 C143.95016,218.465752 154.85549,210.225479 156.349169,211.080195 C157.416386,211.691231 156.829054,218.732132 153.56746,227.585645 L157.584102,226.508527 C157.67331,226.353327 157.76226,226.199094 157.852434,226.044153 C161.890899,219.113219 166.760737,213.561454 170.726128,209.936246 L172.570091,210.098011 L127.78054,377.254894 C53.2240995,350.028923 0,278.480039 0,194.5 C0,87.0806162 87.0806162,0 194.5,0 C301.919384,0 389,87.0806162 389,194.5 C389,301.919384 301.919384,389 194.5,389 C180.761548,389 167.355781,387.575601 154.422327,384.866427 Z" id="Combined-Shape"></path>
            </g>
        </g>
    </g>
</svg>