<?xml version="1.0" encoding="UTF-8"?>
<svg width="181px" height="21px" viewBox="0 0 181 21" version="1.1" xmlns="http://www.w3.org/2000/svg" xmlns:xlink="http://www.w3.org/1999/xlink">
    <!-- Generator: Sketch 46.2 (44496) - http://www.bohemiancoding.com/sketch -->
    <title>Luke Ivie Copy</title>
    <desc>Created with Sketch.</desc>
    <defs></defs>
    <g id="Young-Luke" stroke="none" stroke-width="1" fill="none" fill-rule="evenodd">
        <path d="M12.160184,20 L12.160184,17.854 L3.17018404,17.854 L3.17018404,0.657 L0.763184038,0.657 L0.763184038,20 L12.160184,20 Z M29.8259556,20.348 C35.0749556,20.348 37.7429556,17.274 37.7429556,12.46 L37.7429556,0.657 L35.3069556,0.657 L35.3069556,12.431 C35.3069556,15.969 33.3929556,18.202 29.8259556,18.202 C26.2589556,18.202 24.3739556,15.969 24.3739556,12.431 L24.3739556,0.657 L21.9379556,0.657 L21.9379556,12.489 C21.9379556,17.245 24.6059556,20.348 29.8259556,20.348 Z M64.3117272,20 L55.5247272,9.821 L63.5867272,0.657 L60.5707272,0.657 L52.0157272,10.633 L52.0157272,0.657 L49.6087272,0.657 L49.6087272,20 L52.0157272,20 L52.0157272,13.504 L53.9587272,11.3 L61.2957272,20 L64.3117272,20 Z M87.0524988,20 L87.0524988,17.854 L76.7864988,17.854 L76.7864988,11.184 L86.8494988,11.184 L86.8494988,9.038 L76.7864988,9.038 L76.7864988,2.803 L87.0524988,2.803 L87.0524988,0.657 L74.3794988,0.657 L74.3794988,20 L87.0524988,20 Z M115.482042,20 L115.482042,0.657 L113.075042,0.657 L113.075042,20 L115.482042,20 Z M136.134814,20 L143.906814,0.657 L141.151814,0.657 L134.626814,17.361 L128.101814,0.657 L125.346814,0.657 L133.147814,20 L136.134814,20 Z M156.178585,20 L156.178585,0.657 L153.771585,0.657 L153.771585,20 L156.178585,20 Z M180.717357,20 L180.717357,17.854 L170.451357,17.854 L170.451357,11.184 L180.514357,11.184 L180.514357,9.038 L170.451357,9.038 L170.451357,2.803 L180.717357,2.803 L180.717357,0.657 L168.044357,0.657 L168.044357,20 L180.717357,20 Z" id="Luke-Ivie-Copy" fill="#FFFFFF"></path>
    </g>
</svg>